<svg xmlns="http://www.w3.org/2000/svg" viewBox="0 0 76 24" width="currentSize" height="currentSize"><g fill="none" fill-rule="evenodd" transform="translate(2.4 3.4)"><path fill="#FFFFFF" fill-rule="nonzero" d="M14.8723681,0.0394368412 C16.4378102,0.0394368412 17.7051365,1.31912892 17.7051365,2.89710388 L17.7051858,3.014225 C17.7051858,3.014225 13.1041096,4.94863548 10.7801767,6.07525914 C9.22208729,4.14151708 7.21181101,2.96810395 5.12500053,2.96810395 C1.59557035,2.96810395 0.396924322,6.08294598 2.06814402,8.13366173 C2.43226638,8.5808354 3.05205979,9.00762224 4.01441898,9.24674986 C5.51920184,9.61939459 7.91448863,9.01397224 10.1592136,8.26701173 C10.5626057,9.01731434 10.9024978,9.84314853 11.1556622,10.7227906 L11.1556622,10.7227906 L4.23783871,10.7227906 L4.23783871,11.4296459 L7.80470047,11.4296459 L7.80470047,12.6963037 L3.4845282,12.6963037 L3.4845282,13.4033261 L7.80470047,13.4033261 L7.80511996,15.2208436 C7.80847582,15.2743026 7.83867854,15.5148681 8.1105031,15.5148681 L8.1105031,15.5148681 L9.85374517,15.5148681 L9.85374517,13.4033261 L14.1252898,13.4033261 L14.1252898,12.6963037 L9.85374517,12.6963037 L9.85374517,11.4296459 L13.3407306,11.4296459 C13.0071885,10.0510275 12.4996898,8.78253145 11.8643556,7.66860779 C12.922299,7.28259464 13.8721253,6.91696833 14.5799832,6.67784071 C17.1273358,5.81758283 17.7051858,5.77112757 17.7051858,5.77112757 L17.7051858,5.77112757 L17.7051365,15.0220944 C17.7051365,16.601072 16.4378102,17.8802628 14.8723681,17.8802628 L2.84914467,17.8802628 C1.28336839,17.8802628 0.0153736839,16.601072 0.0153736839,15.0220944 L0.0153736839,2.89710388 C0.0153736839,1.31912892 1.28336839,0.0394368412 2.84914467,0.0394368412 L14.8723681,0.0394368412 Z M4.79530186,4.16056708 C6.3948334,4.16056708 7.99369652,5.19210785 9.24899123,6.84360913 C7.46313732,7.7227499 5.94983209,8.35173409 4.31504134,8.18880646 C3.87288082,8.14452357 3.04353742,7.94717226 2.58967954,7.54294464 C1.22960983,6.34680519 2.04324534,4.16056708 4.79530186,4.16056708 Z" transform="matrix(1 0 0 -1 .458 18.08)"/><path fill="#FFFFFF" fill-rule="nonzero" d="M0,1.67105259 C0,0.748130247 0.674436827,0.126832892 1.61523944,0.126832892 C2.55604205,0.126832892 3.23047888,0.748130247 3.23047888,1.67105259 C3.23047888,2.57626179 2.55604205,3.2154394 1.61523944,3.2154394 C0.674436827,3.2154394 0,2.57626179 0,1.67105259" transform="matrix(1 0 0 -1 38.886 4.483)"/><polygon fill="#FFFFFF" fill-rule="nonzero" points="34.377 14.616 37.181 14.616 37.181 1.658 34.377 1.658"/><path fill="#FFFFFF" fill-rule="nonzero" d="M4.01052623,4.51184201 L5.67890514,10.2806498 L5.75009198,10.2806498 L7.3299051,4.51184201 L4.01052623,4.51184201 Z M8.09324193,12.5348997 L4.33003148,12.5348997 L0.123156576,0.0208881574 L2.71479205,0.0208881574 L3.42482229,2.47048416 L7.88018272,2.47048416 L8.55445244,0.0208881574 L11.8739984,0.0208881574 L8.09324193,12.5348997 Z" transform="matrix(1 0 0 -1 21.367 14.637)"/><polygon fill="#FFFFFF" fill-rule="nonzero" points="39.098 14.616 41.903 14.616 41.903 5.101 39.098 5.101"/><polygon fill="#FFFFFF" fill-rule="nonzero" points="9.525 12.533 9.543 12.551 6.898 12.551 5.229 6.764 5.141 6.764 3.224 12.551 .082 12.551 3.863 3.001 2.283 .09 2.283 .019 4.75 .019" transform="matrix(1 0 0 -1 61.685 17.652)"/><path fill="#FFFFFF" fill-rule="nonzero" d="M3.84342097,4.67894727 C3.52408282,4.67894727 3.22212361,4.71437358 2.8850723,4.82098674 L2.8850723,9.96849715 C3.47077624,10.3767353 3.95003412,10.5720813 4.55345122,10.5720813 C5.60086698,10.5720813 6.43505644,9.73772479 6.43505644,7.96273272 C6.43505644,5.69076961 5.21034199,4.67894727 3.84342097,4.67894727 M5.61858014,12.7553116 C4.58904464,12.7553116 3.7902815,12.3647866 2.8850723,11.61933 L2.8850723,12.5601326 L0.0802105245,12.5601326 L0.0802105245,0.0284078941 L2.8850723,0.0284078941 L2.8850723,3.13472756 C3.41746966,2.99268809 3.9144407,2.92166836 4.5180249,2.92166836 C7.02076037,2.92166836 9.27517743,4.76768016 9.27517743,8.05146561 C9.27517743,10.9980327 7.64189062,12.7553116 5.61858014,12.7553116" transform="matrix(1 0 0 -1 43.26 17.662)"/><path fill="#FFFFFF" fill-rule="nonzero" d="M58.4118483,7.40926948 C57.6663918,7.00103133 57.2401062,6.8412787 56.7434694,6.8412787 C56.0688655,6.8412787 55.6429142,7.28494316 55.6429142,7.99497341 C55.6429142,8.26133919 55.6960536,8.52753787 55.9089457,8.74042997 C56.2463313,9.07781549 56.903222,9.32630101 58.4118483,9.68123258 L58.4118483,7.40926948 Z M61.2163759,7.48028921 L61.2163759,11.4562247 C61.2163759,13.6219088 59.938522,14.8110298 57.684272,14.8110298 C56.2463313,14.8110298 55.2523892,14.5627114 53.4418037,14.0124338 L53.9386076,11.8290365 C55.5894405,12.5746602 56.317351,12.8941654 57.0806878,12.8941654 C58.0037773,12.8941654 58.4118483,12.2374417 58.4118483,11.2256194 L58.4118483,11.1545997 C55.1989155,10.5510155 54.2049734,10.213797 53.5836761,9.59249969 C53.1222984,9.13095496 52.9271195,8.4742313 52.9271195,7.71106158 C52.9271195,5.88276293 54.34718,4.9063669 55.6785076,4.9063669 C56.6724497,4.9063669 57.4710457,5.27917873 58.5540549,6.09582214 L58.7492338,5.10171295 L61.5537614,5.10171295 L61.2163759,7.48028921 Z" transform="matrix(1 0 0 -1 0 19.717)"/></g></svg>