<svg xmlns="http://www.w3.org/2000/svg" viewBox="0 0 38 24" width="currentSize" height="currentSize"><g fill="none" fill-rule="evenodd"><rect width="38" height="24" fill="#1474F8" rx="4"/><path fill="#FFFFFF" fill-rule="nonzero" d="M22.6065478,13.78 C23.9998812,11.4273333 24.6665478,8.33333333 24.6665478,8.33333333 L19.9998812,8.33333333 L19.9998812,7 L25.9998812,7 L25.9998812,5.66666667 L19.9998812,5.66666667 L19.9998812,3.01333333 L17.3332145,3 L17.3332145,5.66666667 L11.3332145,5.66666667 L11.3332145,7 L17.3332145,7 L17.3332145,8.33333333 L11.9998812,8.33333333 L11.9998812,9.66666667 C11.9998812,9.66666667 20.7498812,9.66666667 21.6665478,9.66 C21.4792145,10.1886667 21.0065478,11.786 20.3232145,13.03 C17.7345478,12.2266667 15.3458812,11.6666667 13.4285478,11.6666667 C8.82988117,11.6666667 7.80988117,13.9873333 8.02721451,16.1093333 C8.20254784,17.8026667 9.45721451,20.2746667 13.2892145,20.2746667 C16.7898812,20.2746667 19.6158812,18.2593333 21.3552145,15.86 C22.9261979,16.5865995 24.5390612,17.3157418 26.0664226,18.0301402 C26.7314111,18.3411778 27.3801918,18.6494204 28.0022519,18.9534416 C28.7072164,19.2979809 29.3778633,19.6370984 29.9988914,19.9687178 C30.0042864,17.3799308 30.0049023,16.0848495 30.0007392,16.0834737 C29.3403918,15.8652584 28.6728081,15.6570266 28.0019554,15.4528119 C27.5481738,15.3146759 27.0928964,15.1783779 26.6373514,15.0420711 C25.2854093,14.6375473 23.9311092,14.2329467 22.6065478,13.78 Z M12.7318812,18.8413333 C9.49321451,18.8413333 8.99188117,17.008 8.93588117,15.9133333 C8.88321451,14.956 9.52654784,13.1586667 13.1832145,13.1586667 C14.5432145,13.1586667 16.7005478,13.856 19.1225478,14.872 C17.7538812,16.6773333 15.5605478,18.8413333 12.7318812,18.8413333 Z"/></g></svg>