<svg xmlns="http://www.w3.org/2000/svg" viewBox="0 0 24 24" width="currentSize" height="currentSize"><g fill="none" fill-rule="evenodd"><path fill="#1474F8" fill-rule="nonzero" d="M24,3.33333333 L24,21.3333333 C24,22.8060927 22.8060927,24 21.3333333,24 L3.33333333,24 C1.49238417,24 0,22.5076158 0,20.6666667 L0,3.33333333 C0,1.49238417 1.49238417,0 3.33333333,0 L20.6666667,0 C22.5076158,0 24,1.49238417 24,3.33333333 Z"/><path fill="#FFFFFF" fill-rule="nonzero" d="M18.6065478,14.1133333 C19.9998812,11.7606667 20.6665478,8.66666667 20.6665478,8.66666667 L15.9998812,8.66666667 L15.9998812,7.33333333 L21.9998812,7.33333333 L21.9998812,6 L15.9998812,6 L15.9998812,3.34666667 L13.3332145,3.33333333 L13.3332145,6 L7.33321451,6 L7.33321451,7.33333333 L13.3332145,7.33333333 L13.3332145,8.66666667 L7.99988117,8.66666667 L7.99988117,10 C7.99988117,10 16.7498812,10 17.6665478,9.99333333 C17.4792145,10.522 17.0065478,12.1193333 16.3232145,13.3633333 C13.7345478,12.56 11.3458812,12 9.42854784,12 C4.82988117,12 3.80988117,14.3206667 4.02721451,16.4426667 C4.20254784,18.136 5.45721451,20.608 9.28921451,20.608 C12.7898812,20.608 15.6158812,18.5926667 17.3552145,16.1933333 C20.6718812,17.7273333 24.1752145,19.2726667 26.6665478,20.6666667 L26.6665478,16.6413333 C24.0325478,15.734 21.2598812,15.0206667 18.6065478,14.1133333 Z M8.73188117,19.1746667 C5.49321451,19.1746667 4.99188117,17.3413333 4.93588117,16.2466667 C4.88321451,15.2893333 5.52654784,13.492 9.18321451,13.492 C10.5432145,13.492 12.7005478,14.1893333 15.1225478,15.2053333 C13.7538812,17.0106667 11.5605478,19.1746667 8.73188117,19.1746667 Z"/></g></svg>