<svg xmlns="http://www.w3.org/2000/svg" viewBox="0 0 34 25" width="currentSize" height="currentSize"><g fill="none" fill-rule="evenodd"><rect width="34" height="25" fill="#016FD0" rx="4"/><path fill="#FFFFFF" fill-rule="nonzero" d="M7.73748593 17.7288563L7.73748593 13.0885778 12.6506791 13.0885778 13.1778116 13.77576 13.7223748 13.0885778 31.5560533 13.0885778 31.5560533 17.4088385C31.5560533 17.4088385 31.0896711 17.7242163 30.5502785 17.7288563L20.6754027 17.7288563 20.0810815 16.9973837 20.0810815 17.7288563 18.1335363 17.7288563 18.1335363 16.4802104C18.1335363 16.4802104 17.8674987 16.6545067 17.2923434 16.6545067L16.6294465 16.6545067 16.6294465 17.7288563 13.6806987 17.7288563 13.1543194 17.0269363 12.6198581 17.7288563 7.73748593 17.7288563zM2 9.59122667L3.10794444 7.0082163 5.02401867 7.0082163 5.65278993 8.45511407 5.65278993 7.0082163 8.03464681 7.0082163 8.40895467 8.05399111 8.77183348 7.0082163 19.4639016 7.0082163 19.4639016 7.53396148C19.4639016 7.53396148 20.0259742 7.0082163 20.9497049 7.0082163L24.4188898 7.02034074 25.0368065 8.44830222 25.0368065 7.0082163 27.0300684 7.0082163 27.5786729 7.82846519 27.5786729 7.0082163 29.5902216 7.0082163 29.5902216 11.6484919 27.5786729 11.6484919 27.0529271 10.8255852 27.0529271 11.6484919 24.1243834 11.6484919 23.829877 10.9170193 23.0425858 10.9170193 22.7528729 11.6484919 20.7668367 11.6484919C19.9719956 11.6484919 19.4639016 11.1334815 19.4639016 11.1334815L19.4639016 11.6484919 16.469437 11.6484919 15.8751156 10.9170193 15.8751156 11.6484919 4.74016385 11.6484919 4.44586044 10.9170193 3.6610797 10.9170193 3.3688563 11.6484919 2 11.6484919 2 9.59122667z"/><path fill="#016FD0" fill-rule="nonzero" d="M17.0851881,13.6606281 C17.8724732,13.6606281 18.3324053,14.1680415 18.3324053,14.8292681 C18.3324053,15.6274696 17.7459855,16.0379111 16.9723241,16.0379111 L16.9723241,16.0379111 L16.0579837,16.0379111 L16.0579837,17.13512 L15.1665019,17.13512 L15.1665019,13.6606281 Z M11.1662625,13.6600415 L11.1662625,14.4372326 L9.20957422,14.4372326 L9.20957422,15.0315526 L11.1205455,15.0315526 L11.1205455,15.7630252 L9.20957422,15.7630252 L9.20957422,16.3802044 L11.1662625,16.3802044 L11.1662625,17.1345363 L8.33180741,17.1345363 L8.33180741,13.6600415 L11.1662625,13.6600415 Z M25.0550933,13.6600415 L25.0550933,14.4372326 L23.0984047,14.4372326 L23.0984047,15.0315526 L25.0002329,15.0315526 L25.0002329,15.7630252 L23.0984047,15.7630252 L23.0984047,16.3802044 L25.0550933,16.3802044 L25.0550933,17.1345363 L22.2206379,17.1345363 L22.2206379,13.6600415 L25.0550933,13.6600415 Z M12.3377612,13.6600415 L13.17924,14.7472474 L14.0235763,13.6600415 L15.0750679,13.6600415 L13.6806987,15.3972889 L15.0633218,17.1345363 L13.9691437,17.1345363 L13.1520957,16.0644681 L12.3549052,17.1345363 L11.276269,17.1345363 L12.6563517,15.418717 L11.2434101,13.6600415 L12.3377612,13.6600415 Z M20.6425437,13.6600415 C21.2830273,13.6600415 21.8569019,14.0560978 21.8569019,14.7872504 C21.8569019,15.4122874 21.3730513,15.8148711 20.9039879,15.8544593 L20.9039879,15.8544593 L22.0469135,17.1345363 L20.9854213,17.1345363 L19.9439304,15.9001748 L19.5781944,15.9001748 L19.5781944,17.1345363 L18.709571,17.1345363 L18.709571,13.6600415 Z M28.4015793,13.6600415 L28.035843,14.4418015 L26.5728984,14.4418015 C26.2932477,14.4418015 26.2071621,14.5885452 26.2071621,14.7286785 C26.2071621,14.8727141 26.3135431,15.0315526 26.5271813,15.0315526 L27.3500877,15.0315526 C28.1112815,15.0315526 28.4415816,15.4633274 28.4415816,16.0287556 C28.4415816,16.6366459 28.0735188,17.1345363 27.3086495,17.1345363 L25.457403,17.1345363 L25.457403,16.3802044 L27.1957929,16.3802044 C27.4530121,16.3802044 27.5643864,16.2412059 27.5643864,16.0887585 C27.5643864,15.9426963 27.4533633,15.7950281 27.1957929,15.7950281 L26.4102344,15.7950281 C25.7273985,15.7950281 25.3471108,15.3790015 25.3471108,14.7543941 C25.3471108,14.1972889 25.6953621,13.6600415 26.7100495,13.6600415 L28.4015793,13.6600415 Z M31.5896267,13.6600415 L31.2238904,14.4418015 L29.7609464,14.4418015 C29.481296,14.4418015 29.3952104,14.5885452 29.3952104,14.7286785 C29.3952104,14.8727141 29.5015911,15.0315526 29.7152293,15.0315526 L30.5381363,15.0315526 C31.2993304,15.0315526 31.6296296,15.4633274 31.6296296,16.0287556 C31.6296296,16.6366459 31.2615674,17.1345363 30.4966963,17.1345363 L28.6454513,17.1345363 L28.6454513,16.3802044 L30.38384,16.3802044 C30.6410607,16.3802044 30.7524356,16.2412059 30.7524356,16.0887585 C30.7524356,15.9426963 30.6414104,15.7950281 30.38384,15.7950281 L29.5982827,15.7950281 C28.9154468,15.7950281 28.5351588,15.3790015 28.5351588,14.7543941 C28.5351588,14.1972889 28.8834101,13.6600415 29.8980975,13.6600415 L31.5896267,13.6600415 Z M17.0208984,14.4463881 L16.0579837,14.4463881 L16.0579837,15.2464356 L17.0180412,15.2464356 C17.2717399,15.2464356 17.4494954,15.0782993 17.4494954,14.8464119 C17.4494954,14.5995763 17.2708379,14.4463881 17.0208984,14.4463881 L17.0208984,14.4463881 Z M20.5711108,14.4372326 L19.5781944,14.4372326 L19.5781944,15.1687022 L20.5839686,15.1687022 C20.7580681,15.1687022 20.9825639,15.0337985 20.9825639,14.8029659 C20.9825639,14.6235467 20.8092978,14.4372326 20.5711108,14.4372326 L20.5711108,14.4372326 Z M4.63301452,7.5802637 L6.12596119,11.0547556 L5.131616,11.0547556 L4.85731378,10.3590044 L3.25436074,10.3590044 L2.97862996,11.0547556 L2.00571464,11.0547556 L3.50008978,7.5802637 L4.63301452,7.5802637 Z M16.4365778,7.5802637 C17.0770613,7.5802637 17.650936,7.97632 17.650936,8.70747556 C17.650936,9.33250963 17.1670856,9.73509926 16.6980219,9.77468148 L16.6980219,9.77468148 L17.8409476,11.0547556 L16.7794554,11.0547556 L15.7379644,9.82039704 L15.3722284,9.82039704 L15.3722284,11.0547556 L14.503605,11.0547556 L14.503605,7.5802637 Z M24.0184599,7.5802637 L25.5114062,11.0547556 L24.517061,11.0547556 L24.2427591,10.3590044 L22.6398059,10.3590044 L22.3640753,11.0547556 L21.39116,11.0547556 L22.8855348,7.5802637 L24.0184599,7.5802637 Z M10.5719413,7.57967704 L10.5719413,11.0541719 L9.70331793,11.0541719 L9.70331793,8.49401778 L8.78255881,11.0541719 L8.02077422,11.0541719 L7.0974477,8.49401778 L7.0974477,11.0541719 L6.2288243,11.0541719 L6.2288243,7.57967704 L7.61139111,7.58481185 L8.41553896,9.82494519 L9.20043081,7.57967704 L10.5719413,7.57967704 Z M14.0007179,7.57967704 L14.0007179,8.35686815 L12.0440293,8.35686815 L12.0440293,8.95118815 L13.9550009,8.95118815 L13.9550009,9.68266074 L12.0440293,9.68266074 L12.0440293,10.29984 L14.0007179,10.29984 L14.0007179,11.0541719 L11.1662625,11.0541719 L11.1662625,7.57967704 L14.0007179,7.57967704 Z M18.8924391,7.57967704 L18.8924391,11.0541719 L18.0055289,11.0541719 L18.0055289,7.57967704 L18.8924391,7.57967704 Z M22.0011964,7.57967704 L22.0011964,8.4025837 L21.0060388,8.4025837 C20.5311944,8.4025837 20.1953739,8.77315259 20.1953739,9.3397837 C20.1953739,10.0126607 20.5793701,10.2952681 21.132573,10.2952681 L21.3611579,10.2952681 L20.9954219,11.0541719 L20.8039819,11.0541719 C19.8777087,11.0541719 19.3153215,10.3244178 19.3153215,9.33121185 C19.3153215,8.31346963 19.8714121,7.57967704 21.041139,7.57967704 L22.0011964,7.57967704 Z M26.7171926,7.57967704 L28.127277,9.76266667 L28.127277,7.57967704 L28.9959004,7.57967704 L28.9959004,11.0541719 L27.9272652,11.0541719 L26.4814643,8.81403852 L26.4814643,11.0541719 L25.6128409,11.0541719 L25.6128409,7.57967704 L26.7171926,7.57967704 Z M4.05297985,8.38888296 L3.56295052,9.60467259 L4.54158074,9.60467259 L4.05297985,8.38888296 Z M23.4384252,8.38888296 L22.9483959,9.60467259 L23.9270258,9.60467259 L23.4384252,8.38888296 Z M16.3651449,8.35745185 L15.3722284,8.35745185 L15.3722284,9.08892444 L16.378003,9.08892444 C16.5521025,9.08892444 16.7765982,8.95401778 16.7765982,8.72318815 C16.7765982,8.54376889 16.6033319,8.35745185 16.3651449,8.35745185 L16.3651449,8.35745185 Z"/></g></svg>