<svg id="Layer_1" data-name="Layer 1" xmlns="http://www.w3.org/2000/svg" xmlns:xlink="http://www.w3.org/1999/xlink" viewBox="0 0 255 252">
  <defs>
    <style>
      .cls-1 {
        fill: #fff;
      }

      .cls-2 {
        fill: #ff3c78;
      }

      .cls-3 {
        opacity: 0.4;
        fill: url(#linear-gradient);
      }
    </style>
    <linearGradient id="linear-gradient" x1="24.88" y1="146.7" x2="125.99" y2="146.7" gradientUnits="userSpaceOnUse">
      <stop offset="0" stop-color="#fff" stop-opacity="0.5"/>
      <stop offset="0.18" stop-color="#fff" stop-opacity="0.52"/>
      <stop offset="0.36" stop-color="#fff" stop-opacity="0.56"/>
      <stop offset="0.53" stop-color="#fff" stop-opacity="0.64"/>
      <stop offset="0.71" stop-color="#fff" stop-opacity="0.75"/>
      <stop offset="0.88" stop-color="#fff" stop-opacity="0.89"/>
      <stop offset="1" stop-color="#fff"/>
    </linearGradient>
  </defs>
  <g>
    <path class="cls-1" d="M222,42.44l-81.33-31a39.62,39.62,0,0,0-28.42.08L32.76,42.35A39.58,39.58,0,0,0,7.5,79.25v93.5a39.58,39.58,0,0,0,25.26,36.9l79.52,30.85a39.62,39.62,0,0,0,28.42.08l81.33-31a39.57,39.57,0,0,0,25.47-37V79.41A39.57,39.57,0,0,0,222,42.44Zm9.44,123.73A34.07,34.07,0,0,1,209.54,198l-70,26.71a34.1,34.1,0,0,1-24.46-.07L46.56,198.08a34.07,34.07,0,0,1-21.75-31.77V85.8A34.08,34.08,0,0,1,46.56,54L115,27.46a34.1,34.1,0,0,1,24.46-.07l70,26.71a34.08,34.08,0,0,1,21.93,31.84Z"/>
    <path class="cls-2" d="M231.47,166.17A34.07,34.07,0,0,1,209.54,198l-70,26.71a34.1,34.1,0,0,1-24.46-.07L46.56,198.08a34.07,34.07,0,0,1-21.75-31.77V85.8A34.08,34.08,0,0,1,46.56,54L115,27.46a34.1,34.1,0,0,1,24.46-.07l70,26.71a34.08,34.08,0,0,1,21.93,31.84Z"/>
    <path class="cls-3" d="M126,106.87l-.35,119.94a34,34,0,0,1-10.52-2.25L46.64,198a34.08,34.08,0,0,1-21.76-31.77V85.71a34.05,34.05,0,0,1,5.87-19.12Z"/>
    <path class="cls-1" d="M192.67,117.22c-6.76,2.37-9.26,5.87-12.39,10.26-3.13-2.59-8.19-6.06-15.21-4.54-9.91,2.14-15.87,10.77-15,21.26.72,8.36,7.59,14.19,12.83,18.36,1.08.86,11.53,7.48,17.41,10.95a5.2,5.2,0,0,0,6.52-1A250.43,250.43,0,0,0,203,152.67c4.5-6.61,8.12-12.76,8.09-22.3A13.93,13.93,0,0,0,192.67,117.22Z"/>
  </g>
</svg>
