<svg xmlns="http://www.w3.org/2000/svg" viewBox="0 0 34 25" width="currentSize" height="currentSize"><g fill="none" fill-rule="evenodd"><path fill="#FFFFFF" fill-rule="nonzero" d="M4.39393939,1 L29.6060606,1 C31.4804816,1 33,2.50171157 33,4.35416667 L33,20.6458333 C33,22.4982884 31.4804816,24 29.6060606,24 L4.39393939,24 C2.51951842,24 1,22.4982884 1,20.6458333 L1,4.35416667 C1,2.50171157 2.51951842,1 4.39393939,1 Z"/><path fill="#D9D9D9" fill-rule="nonzero" d="M29.6285714,0 L4.37142857,0 C1.95715524,0 0,1.93722945 0,4.32692308 L0,20.6730769 C0,23.0627706 1.95715524,25 4.37142857,25 L29.6285714,25 C32.0428448,25 34,23.0627706 34,20.6730769 L34,4.32692308 C34,1.93722945 32.0428448,0 29.6285714,0 Z M4.39393939,1 L29.6060606,1 C31.4804816,1 33,2.50171157 33,4.35416667 L33,20.6458333 C33,22.4982884 31.4804816,24 29.6060606,24 L4.39393939,24 C2.51951842,24 1,22.4982884 1,20.6458333 L1,4.35416667 C1,2.50171157 2.51951842,1 4.39393939,1 Z"/><g fill-rule="nonzero" transform="translate(7 5)"><path fill="#0079BE" d="M11.6224262,15.71745 C15.9181927,15.7379114 19.8391126,12.2139795 19.8391126,7.92697609 C19.8391126,3.23889933 15.9181927,-0.0015586994 11.6224262,1.01506105e-15 L7.92541627,1.01506105e-15 C3.57819416,-0.0015586994 -4.0602442e-15,3.23986608 -4.0602442e-15,7.92697609 C-4.0602442e-15,12.2149151 3.57819416,15.7379425 7.92541627,15.71745 L11.6224262,15.71745 Z"/><path fill="#FFFFFF" d="M7.94291119,0.649589061 C3.97053563,0.65083647 0.75159541,3.87071225 0.750659853,7.84467825 C0.75159541,11.8179582 3.97050444,15.0375221 7.94291119,15.0387695 C11.9162223,15.0375221 15.1358174,11.8179582 15.1363787,7.84467825 C15.1357862,3.87071225 11.9162223,0.65083647 7.94291119,0.649589061 Z M3.38394131,7.84467825 L3.38394131,7.84467825 C3.38768354,5.90277351 4.60047743,4.2468374 6.31067585,3.5887977 L6.31067585,12.0995609 C4.60047743,11.4418954 3.38765235,9.78686366 3.38394131,7.84467825 Z M9.57452282,12.101432 L9.57452282,12.101432 L9.57452282,3.58851703 C11.2853449,4.24496628 12.5000099,5.90183795 12.5031285,7.84467825 C12.5000099,9.78811107 11.2853449,11.4437353 9.57452282,12.101432 Z"/></g></g></svg>