<svg xmlns="http://www.w3.org/2000/svg" viewBox="0 0 34 25" width="currentSize" height="currentSize"><defs><linearGradient id="discover-a" x1="75.555%" x2="40.992%" y1="90.012%" y2="35.896%"><stop offset="0%" stop-color="#F89F20"/><stop offset="25.02%" stop-color="#F79A20"/><stop offset="53.31%" stop-color="#F68D20"/><stop offset="61.96%" stop-color="#F58720"/><stop offset="72.32%" stop-color="#F48120"/><stop offset="100%" stop-color="#F37521"/></linearGradient><linearGradient id="discover-b" x1="70.098%" x2="19.584%" y1="89.284%" y2="-9.451%"><stop offset="0%" stop-color="#F58720"/><stop offset="35.87%" stop-color="#E16F27"/><stop offset="70.3%" stop-color="#D4602C"/><stop offset="98.16%" stop-color="#D05B2E"/></linearGradient></defs><g fill="none" fill-rule="evenodd"><path fill="#FFFFFF" fill-rule="nonzero" d="M4.39393939,1 L29.6060606,1 C31.4804816,1 33,2.50171157 33,4.35416667 L33,20.6458333 C33,22.4982884 31.4804816,24 29.6060606,24 L4.39393939,24 C2.51951842,24 1,22.4982884 1,20.6458333 L1,4.35416667 C1,2.50171157 2.51951842,1 4.39393939,1 Z"/><path fill="#D9D9D9" fill-rule="nonzero" d="M29.6285714,0 L4.37142857,0 C1.95715524,0 0,1.93722945 0,4.32692308 L0,20.6730769 C0,23.0627706 1.95715524,25 4.37142857,25 L29.6285714,25 C32.0428448,25 34,23.0627706 34,20.6730769 L34,4.32692308 C34,1.93722945 32.0428448,0 29.6285714,0 Z M4.39393939,1 L29.6060606,1 C31.4804816,1 33,2.50171157 33,4.35416667 L33,20.6458333 C33,22.4982884 31.4804816,24 29.6060606,24 L4.39393939,24 C2.51951842,24 1,22.4982884 1,20.6458333 L1,4.35416667 C1,2.50171157 2.51951842,1 4.39393939,1 Z"/><path fill="#F48120" fill-rule="nonzero" d="M33,15 C33,15 24.1699212,21.2136752 8,24 L30,24 C31.6568542,24 33,22.6568542 33,21 L33,15 L33,15 Z"/><g fill-rule="nonzero" transform="translate(2 9)"><path fill="#231F20" d="M1.45308574,0.767795572 L0.0875789474,0.767795572 L0.0875789474,5.55141808 L1.45308574,5.55141808 C2.17497786,5.55141808 2.69682759,5.37746817 3.15779485,5.00347586 C3.70573706,4.5512061 4.02754439,3.87280145 4.02754439,3.16830432 C4.0188469,1.75061256 2.96644995,0.767795572 1.45308574,0.767795572 Z M2.54897016,4.36855869 C2.25325532,4.62948356 1.87926301,4.75124849 1.27043833,4.75124849 L1.01821096,4.75124849 L1.01821096,1.58536015 L1.27043833,1.58536015 C1.87056552,1.58536015 2.23586033,1.68973009 2.54897016,1.96804995 C2.8707775,2.2550673 3.0621224,2.69863956 3.0621224,3.15960682 C3.0621224,3.62057408 2.8707775,4.08154134 2.54897016,4.36855869 Z"/><rect width="1" height="4.784" x="4.454" y=".768" fill="#231F20"/><path fill="#231F20" d="M7.6630975 2.60296711C7.10645779 2.39422722 6.94120537 2.2550673 6.94120537 2.00283993 6.94120537 1.69842759 7.23692022 1.4722927 7.63700501 1.4722927 7.91532486 1.4722927 8.15015724 1.58536015 8.38498962 1.86368L8.87204936 1.22876283C8.47196457.880863013 7.99360232.698215608 7.4630551.698215608 6.61939804.698215608 5.96708588 1.2896453 5.96708588 2.07241989 5.96708588 2.73342955 6.27149822 3.07263187 7.14124777 3.38574171 7.50654258 3.51620414 7.68918998 3.60317909 7.78486243 3.65536407 7.96750984 3.777129 8.06318229 3.95107891 8.06318229 4.15112131 8.06318229 4.5425086 7.75876995 4.82952595 7.34129016 4.82952595 6.89771789 4.82952595 6.54112058 4.60339107 6.32368319 4.19460878L5.72355601 4.77734098C6.14973328 5.41225815 6.67158301 5.690578 7.37608015 5.690578 8.34150214 5.690578 9.02860428 5.04696334 9.02860428 4.11633132 9.04599927 3.34225423 8.72419194 2.99435441 7.6630975 2.60296711zM9.33301662 3.16830432C9.33301662 4.57729858 10.4375985 5.66448552 11.8552903 5.66448552 12.2553751 5.66448552 12.6032749 5.58620806 13.0207547 5.38616566L13.0207547 4.29028123C12.6467624 4.66427354 12.3162576 4.81213096 11.8987778 4.81213096 10.9594483 4.81213096 10.2897411 4.13372632 10.2897411 3.15960682 10.2897411 2.2376723 10.9768433 1.51578018 11.8552903 1.51578018 12.2988626 1.51578018 12.6380649 1.6723351 13.0207547 2.0550249L13.0207547.959140472C12.6119724.750400581 12.2727701.663425626 11.8726853.663425626 10.4723885.663425626 9.33301662 1.77670505 9.33301662 3.16830432z"/><polygon fill="#231F20" points="20.431 3.986 19.152 .768 18.135 .768 20.161 5.673 20.666 5.673 22.727 .768 21.718 .768"/><polygon fill="#231F20" points="23.153 5.551 25.797 5.551 25.797 4.743 24.084 4.743 24.084 3.455 25.736 3.455 25.736 2.646 24.084 2.646 24.084 1.585 25.797 1.585 25.797 .768 23.153 .768"/><path fill="#231F20" d="M29.4938111,2.18548733 C29.4938111,1.2896453 28.8762889,0.776493067 27.7977995,0.776493067 L26.4148977,0.776493067 L26.4148977,5.56011557 L27.3455297,5.56011557 L27.3455297,3.63796907 L27.4672947,3.63796907 L28.754524,5.56011557 L29.9025934,5.56011557 L28.3979267,3.54229662 C29.1024238,3.3944392 29.4938111,2.91607695 29.4938111,2.18548733 Z M27.6151521,2.97695942 L27.3455297,2.97695942 L27.3455297,1.52447768 L27.6325471,1.52447768 C28.2152793,1.52447768 28.5283891,1.76800755 28.5283891,2.2376723 C28.5283891,2.71603456 28.2152793,2.97695942 27.6151521,2.97695942 Z"/><circle cx="15.882" cy="3.177" r="2.548" fill="url(#discover-a)"/><circle cx="15.882" cy="3.177" r="2.548" fill="url(#discover-b)" opacity=".65"/><g fill="#231F20" transform="translate(29.529 .611)"><path d="M0.55663971,0.339202323 C0.55663971,0.252227368 0.495757241,0.208739891 0.400084791,0.208739891 L0.260924864,0.208739891 L0.260924864,0.626219673 L0.365294809,0.626219673 L0.365294809,0.46096726 L0.487059746,0.626219673 L0.608824682,0.626219673 L0.469664755,0.452269764 C0.521849728,0.443572269 0.55663971,0.400084791 0.55663971,0.339202323 Z M0.391376314,0.430465626 L0.365294809,0.430465626 L0.365294809,0.28701735 L0.391376314,0.28701735 C0.469620828,0.28701735 0.508743085,0.309086316 0.508743085,0.353224247 C0.508743085,0.408396661 0.469620828,0.430465626 0.391376314,0.430465626 Z"/><path d="M0.417479782,0.0521849728 C0.217437387,0.0521849728 0.0521849728,0.217437387 0.0521849728,0.417479782 C0.0521849728,0.617522178 0.217437387,0.782774592 0.417479782,0.782774592 C0.617522178,0.782774592 0.782774592,0.617522178 0.782774592,0.417479782 C0.782774592,0.217437387 0.617522178,0.0521849728 0.417479782,0.0521849728 Z M0.417479782,0.721892123 C0.260924864,0.721892123 0.121764936,0.591429691 0.121764936,0.417479782 C0.121764936,0.252227368 0.252227368,0.113067441 0.417479782,0.113067441 C0.574034701,0.113067441 0.704497132,0.252227368 0.704497132,0.417479782 C0.704497132,0.582732196 0.574034701,0.721892123 0.417479782,0.721892123 Z"/></g></g></g></svg>