<svg xmlns="http://www.w3.org/2000/svg" viewBox="0 0 79 82" width="currentSize" height="currentSize"><g fill="none" fill-rule="evenodd" transform="translate(0 -5)"><path fill="#FFCBDA" d="M0 39.1836735L78.3673469 39.1836735 78.3673469 76.5588697C78.3673469 81.8857732 74.0490385 86.2040816 68.722135 86.2040816L9.64521193 86.2040816C4.31830847 86.2040816 2.42871437e-15 81.8857732 0 76.5588697L0 39.1836735 0 39.1836735zM47.7089169 8.52524345L78.3673469 39.1836735 78.3673469 39.1836735 0 39.1836735 30.65843 8.52524345C35.366792 3.81688151 43.000555 3.81688151 47.7089169 8.52524345z"/><path fill="#F5F8FF" d="M19.2904239,18.0847724 L59.0769231,18.0847724 C63.0721007,18.0847724 66.310832,21.3235037 66.310832,25.3186813 L66.310832,77.1616954 L66.310832,77.1616954 L12.0565149,77.1616954 L12.0565149,25.3186813 C12.0565149,21.3235037 15.2952463,18.0847724 19.2904239,18.0847724 Z"/><path fill="#FFEAF0" d="M0,39.1836735 L45.2119309,73.8592588 L9.51085556,85.6983002 C5.71874794,86.9558231 1.62521361,84.9011362 0.367690717,81.1090286 C0.124141122,80.3745957 1.67017601e-15,79.6058444 0,78.832082 L0,39.1836735 L0,39.1836735 Z"/><path fill="#FFEAF0" d="M39.7864992,39.1836735 L78.3673469,73.8592588 L49.7859051,85.6840536 C46.0942021,87.2113954 41.8633304,85.456834 40.3359886,81.765131 C39.9732083,80.888263 39.7864992,79.9485845 39.7864992,78.999634 L39.7864992,39.1836735 L39.7864992,39.1836735 Z" transform="matrix(-1 0 0 1 118.154 0)"/><path fill="#FFCBDA" d="M48.428894,61.3321361 L73.2322819,81.9380276 C74.2566326,82.7890267 74.3971619,84.309298 73.5461629,85.3336487 C73.0880468,85.8850847 72.4083162,86.2040816 71.6914118,86.2040816 L6.67593512,86.2040816 C5.34420926,86.2040816 4.26463214,85.1245045 4.26463214,83.7927786 C4.26463214,83.0758743 4.58362907,82.3961436 5.13506503,81.9380276 L29.9384529,61.3321361 C35.297842,56.8797206 43.069505,56.8797206 48.428894,61.3321361 Z"/><g transform="translate(25.922 27.73)"><ellipse cx="13.262" cy="12.961" fill="#57CB70" rx="13.262" ry="12.961"/><path fill="#FFFFFF" fill-rule="nonzero" d="M16.8366726,9.36487473 C17.4291598,8.78029808 18.3833587,8.78671089 18.9679353,9.37919815 C19.5135402,9.93218626 19.5443276,10.8002653 19.0642936,11.3888339 L18.9536119,11.5104609 L12.8437788,17.5387183 C12.2960392,18.0791448 11.4378812,18.1151733 10.8487525,17.6468036 L10.7268395,17.5387183 L7.19146066,14.0505422 C6.5989734,13.4659655 6.59256059,12.5117667 7.17713723,11.9192794 C7.7227421,11.3662913 8.59032896,11.3238392 9.18529638,11.7959191 L9.30839997,11.904956 L11.7844898,14.3485714 L16.8366726,9.36487473 Z"/></g></g></svg>