<svg xmlns="http://www.w3.org/2000/svg" viewBox="0 0 69 57" width="currentSize" height="currentSize"><g fill="#F9324A" fill-rule="evenodd"><path fill-rule="nonzero" d="M28.2017675,3.97858637 L1.72593957,44.9278669 C0.941485334,46.1411562 0.524172048,47.5552027 0.524172048,49 C0.524172048,53.1421356 3.88203642,56.5 8.02417205,56.5 L60.975828,56.5 C62.4206252,56.5 63.8346718,56.0826867 65.047961,55.2982325 C68.5263788,53.0492555 69.5230374,48.4062847 67.2740604,44.9278669 L40.7982325,3.97858637 C40.2220467,3.087419 39.4633004,2.32867276 38.5721331,1.75248696 C35.0937153,-0.496490032 30.4507445,0.500168622 28.2017675,3.97858637 Z M36.9432798,4.27177995 C37.4779803,4.61749143 37.933228,5.07273917 38.2789395,5.60743959 L64.7547674,46.5567202 C66.1041536,48.6437708 65.5061584,51.4295533 63.4191078,52.7789395 C62.6911343,53.249612 61.8427063,53.5 60.975828,53.5 L8.02417205,53.5 C5.53889067,53.5 3.52417205,51.4852814 3.52417205,49 C3.52417205,48.1331216 3.77456002,47.2846937 4.24523256,46.5567202 L30.7210605,5.60743959 C32.0295562,3.58363291 34.6887129,2.96000325 36.7516825,4.15446041 L36.9432798,4.27177995 Z"/><g transform="translate(31 20)"><path d="M3.35179505,0 L4.64820495,0 C6.3050592,-3.04359188e-16 7.64820495,1.34314575 7.64820495,3 C7.64820495,3.11068546 7.64207932,3.2212861 7.62985616,3.33129458 L6.22086305,16.0122325 C6.09512538,17.1438716 5.13860303,18 4,18 C2.86139697,18 1.90487462,17.1438716 1.77913695,16.0122325 L0.370143842,3.33129458 C0.187174899,1.68457409 1.37377998,0.201317739 3.02050047,0.018348796 C3.13050895,0.00612563183 3.24110959,4.64421799e-16 3.35179505,0 Z"/><circle cx="4" cy="24" r="3"/></g></g></svg>