<svg xmlns="http://www.w3.org/2000/svg" viewBox="0 0 24 24" width="currentSize" height="currentSize"><defs><radialGradient id="app-icon-a" cx="19.25%" cy="99.447%" r="109.525%" fx="19.25%" fy="99.447%" gradientTransform="matrix(.99484 0 0 1 .001 0)"><stop offset="0%" stop-color="#0099FF"/><stop offset="60.98%" stop-color="#A033FF"/><stop offset="93.48%" stop-color="#FF5280"/><stop offset="100%" stop-color="#FF7061"/></radialGradient></defs><g fill="none" fill-rule="evenodd"><rect width="24" height="24" fill="#FFFFFF" rx="6"/><path fill="#D9D9D9" fill-rule="nonzero" d="M18,0 C21.3137085,0 24,2.6862915 24,6 L24,18 C24,21.3137085 21.3137085,24 18,24 L6,24 C2.6862915,24 0,21.3137085 0,18 L0,6 C0,2.6862915 2.6862915,0 6,0 L18,0 Z M18,0.5 L6,0.5 C3.03652085,0.5 0.620460863,2.84378001 0.504367204,5.77879286 L0.5,6 L0.5,18 C0.5,20.9634791 2.84378001,23.3795391 5.77879286,23.4956328 L6,23.5 L18,23.5 C20.9634791,23.5 23.3795391,21.15622 23.4956328,18.2212071 L23.5,18 L23.5,6 C23.5,3.03652085 21.15622,0.620460863 18.2212071,0.504367204 L18,0.5 Z"/><path fill="url(#app-icon-a)" fill-rule="nonzero" d="M11.904,2.976 C6.65780282,2.976 2.592,6.79907945 2.592,11.9623803 C2.592,14.6633272 3.70494326,16.9970647 5.51675493,18.6094312 C5.66851992,18.7455037 5.76032837,18.9337685 5.76782294,19.1369453 L5.81841127,20.784728 C5.83527404,21.3103781 6.38050382,21.6514915 6.86390342,21.4408586 L8.71131429,20.6300153 C8.8687002,20.5610471 9.04294889,20.547999 9.20782938,20.5927352 C10.0565891,20.8257361 10.9615581,20.9487606 11.904,20.9487606 C17.1501972,20.9487606 21.216,17.1256812 21.216,11.9623803 C21.216,6.79907945 17.1501972,2.976 11.904,2.976 Z"/><path fill="#FFFFFF" d="M6.31255154,14.6822963 L9.04831386,10.3712909 C9.48303773,9.68629527 10.416195,9.51504636 11.0682808,10.0008721 L13.243774,11.6221526 C13.4442717,11.7710647 13.7178479,11.7692033 13.9164717,11.6202912 L16.8546055,9.40522368 C17.2462318,9.10926088 17.7596556,9.5764726 17.4954485,9.98970368 L14.76156,14.2988477 C14.3268361,14.9838433 13.3936788,15.1550922 12.741593,14.6692665 L10.5660998,13.047986 C10.3656022,12.8990739 10.0920259,12.9009353 9.89340208,13.0498474 L6.9533945,15.2667763 C6.56176825,15.5627391 6.04834436,15.0955274 6.31255154,14.6822963 Z"/></g></svg>