<svg xmlns="http://www.w3.org/2000/svg" viewBox="0 0 48 48" width="currentSize" height="currentSize"><g fill="none" fill-rule="evenodd"><circle cx="24" cy="24" r="24" fill="#F9324A"/><path fill="#FFFFFF" fill-rule="nonzero" d="M19.2662835,16.6530176 L19.3897032,16.7715236 L24,21.494 L28.6102968,16.7715236 C29.6145022,15.7428255 31.2426407,15.7428255 32.246846,16.7715236 C33.2108831,17.7590738 33.2494446,19.3356657 32.3625305,20.3703392 L32.246846,20.4967691 L27.636,25.219 L31.8182746,29.5032309 C32.8224799,30.5319291 32.8224799,32.1997783 31.8182746,33.2284764 C30.8542375,34.2160266 29.3151835,34.2555286 28.3051451,33.3469824 L28.1817254,33.2284764 L24,28.944 L19.8182746,33.2284764 C18.8140693,34.2571745 17.1859307,34.2571745 16.1817254,33.2284764 C15.2176883,32.2409262 15.1791268,30.6643343 16.066041,29.6296608 L16.1817254,29.5032309 L20.363,25.219 L15.753154,20.4967691 C14.7489487,19.4680709 14.7489487,17.8002217 15.753154,16.7715236 C16.7171911,15.7839734 18.256245,15.7444714 19.2662835,16.6530176 Z"/></g></svg>