<svg xmlns="http://www.w3.org/2000/svg" viewBox="0 0 24 24" width="currentSize" height="currentSize"><g fill="none" transform="translate(1 1)"><path fill="#4285F4" d="M21.5896346,11.2654025 C21.5905532,10.5148602 21.5270932,9.76562178 21.3999423,9.02592782 L11.0133078,9.02592782 L11.0133078,13.2677743 L16.9622948,13.2677743 C16.716306,14.6367787 15.9216781,15.845851 14.7625922,16.6147487 L14.7625922,19.3682011 L18.3130161,19.3682011 C20.3918727,17.4514923 21.5896346,14.616966 21.5896346,11.2654025 Z"/><path fill="#34A853" d="M11.0133078,22.0283421 C13.9855067,22.0283421 16.4880891,21.0523962 18.3130161,19.3697308 L14.7625922,16.6162784 C13.7744087,17.2862851 12.5017018,17.6687091 11.0133078,17.6687091 C8.14053908,17.6687091 5.70220398,15.7321142 4.83027737,13.1224532 L1.17277472,13.1224532 L1.17277472,15.9600389 C3.04229839,19.6801933 6.84981555,22.0281524 11.0133078,22.0283421 Z"/><path fill="#FBBC04" d="M4.83027737,13.1224532 C4.36932106,11.754973 4.36932106,10.2740917 4.83027737,8.90661155 L4.83027737,6.06902584 L1.17277472,6.06902584 C-0.390924906,9.18062275 -0.390924906,12.848442 1.17277472,15.9600389 L4.83027737,13.1224532 Z"/><path fill="#EA4335" d="M11.0133078,4.36035564 C12.5839803,4.334695 14.101667,4.92814235 15.2383276,6.0124271 L15.2383276,6.0124271 L18.3818525,2.86890223 C16.3885304,0.996670545 13.7478213,-0.0312160021 11.0133078,0.000722609022 C6.84981555,0.000912364291 3.04229839,2.34887141 1.17277472,6.06902584 L4.83027737,8.90661155 C5.70220398,6.29695052 8.14053908,4.36035564 11.0133078,4.36035564 Z"/></g></svg>