<svg xmlns="http://www.w3.org/2000/svg" viewBox="0 0 45 24" width="currentSize" height="currentSize"><g fill="none" fill-rule="evenodd"><path fill="#FFFFFF" fill-rule="nonzero" d="M32.9547375,0 L11.9667375,0 C5.4079875,0 0.0417375,5.36625 0.0417375,11.925 L0.0417375,11.925 C0.0417375,18.48375 5.4079875,23.85 11.9667375,23.85 L32.9547375,23.85 C39.5134875,23.85 44.8797375,18.48375 44.8797375,11.925 L44.8797375,11.925 C44.8797375,5.36625 39.5134875,0 32.9547375,0 Z"/><path fill="#3C4043" fill-rule="nonzero" d="M32.9547375,0.965925 C34.427475,0.965925 35.858475,1.2580875 37.206,1.8304875 C38.5117875,2.385 39.6804375,3.1780125 40.6940625,4.185675 C41.701725,5.1933375 42.4947375,6.36795 43.04925,7.6737375 C43.62165,9.0212625 43.9138125,10.4522625 43.9138125,11.925 C43.9138125,13.3977375 43.62165,14.8287375 43.04925,16.1762625 C42.4947375,17.48205 41.701725,18.6507 40.6940625,19.664325 C39.6864,20.6719875 38.5117875,21.465 37.206,22.0195125 C35.858475,22.5919125 34.427475,22.884075 32.9547375,22.884075 L11.9667375,22.884075 C10.494,22.884075 9.063,22.5919125 7.715475,22.0195125 C6.4096875,21.465 5.2410375,20.6719875 4.2274125,19.664325 C3.21975,18.6566625 2.4267375,17.48205 1.872225,16.1762625 C1.299825,14.8287375 1.0076625,13.3977375 1.0076625,11.925 C1.0076625,10.4522625 1.299825,9.0212625 1.872225,7.6737375 C2.4267375,6.36795 3.21975,5.1993 4.2274125,4.185675 C5.235075,3.1780125 6.4096875,2.385 7.715475,1.8304875 C9.063,1.2580875 10.494,0.965925 11.9667375,0.965925 L32.9547375,0.965925 M32.9547375,0 L11.9667375,0 C5.4079875,0 0.0417375,5.36625 0.0417375,11.925 L0.0417375,11.925 C0.0417375,18.48375 5.4079875,23.85 11.9667375,23.85 L32.9547375,23.85 C39.5134875,23.85 44.8797375,18.48375 44.8797375,11.925 L44.8797375,11.925 C44.8797375,5.36625 39.5134875,0 32.9547375,0 L32.9547375,0 Z"/><g fill-rule="nonzero" transform="translate(6.857 6.797)"><g fill="#3C4043" transform="translate(13.416 .656)"><path d="M1.1507625 5.31855L1.1507625 8.9258625.0059625 8.9258625.0059625.0178875 3.040875.0178875C3.8100375.0178875 4.4659125.274275 5.0025375.78705 5.5510875 1.299825 5.8253625 1.9258875 5.8253625 2.6652375 5.8253625 3.422475 5.5510875 4.0485375 5.0025375 4.55535 4.471875 5.0621625 3.816 5.3125875 3.040875 5.3125875L1.1507625 5.3125875 1.1507625 5.31855zM1.1507625 1.1149875L1.1507625 4.22145 3.064725 4.22145C3.517875 4.22145 3.899475 4.066425 4.1976 3.7623375 4.5016875 3.45825 4.6567125 3.088575 4.6567125 2.6712 4.6567125 2.2597875 4.5016875 1.896075 4.1976 1.5919875 3.899475 1.275975 3.5238375 1.12095 3.064725 1.12095L1.1507625 1.12095 1.1507625 1.1149875zM8.8185375 2.6294625C9.6652125 2.6294625 10.3330125 2.8560375 10.8219375 3.3091875 11.3108625 3.7623375 11.555325 4.3824375 11.555325 5.1694875L11.555325 8.9258625 10.4641875 8.9258625 10.4641875 8.0791875 10.4164875 8.0791875C9.94545 8.7768 9.313425 9.122625 8.526375 9.122625 7.8526125 9.122625 7.2921375 8.9258625 6.8389875 8.526375 6.3858375 8.1268875 6.1592625 7.632 6.1592625 7.03575 6.1592625 6.403725 6.3977625 5.902875 6.8747625 5.5332 7.3517625 5.1575625 7.98975 4.972725 8.7827625 4.972725 9.4624875 4.972725 10.0229625 5.0979375 10.458225 5.3483625L10.458225 5.0860125C10.458225 4.686525 10.3032 4.352625 9.9871875 4.0723875 9.671175 3.79215 9.3015 3.6550125 8.8781625 3.6550125 8.240175 3.6550125 7.7333625 3.923325 7.3636875 4.4659125L6.356025 3.8338875C6.9105375 3.02895 7.7333625 2.6294625 8.8185375 2.6294625zM7.3398375 7.0536375C7.3398375 7.3517625 7.46505 7.6021875 7.7214375 7.79895 7.9718625 7.9957125 8.2699875 8.097075 8.60985 8.097075 9.0928125 8.097075 9.5221125 7.9182 9.89775 7.56045 10.2733875 7.2027 10.4641875 6.785325 10.4641875 6.3023625 10.1064375 6.022125 9.61155 5.879025 8.9735625 5.879025 8.5084875 5.879025 8.120925 5.9923125 7.810875 6.212925 7.4948625 6.4454625 7.3398375 6.7257 7.3398375 7.0536375z"/><polygon points="17.78 2.826 13.964 11.603 12.784 11.603 14.203 8.532 11.687 2.826 12.933 2.826 14.745 7.203 14.769 7.203 16.534 2.826"/></g><path fill="#4285F4" d="M10.0128262,5.247 C10.0128262,4.8737475 9.97943625,4.51659375 9.91742625,4.17315375 L5.11880625,4.17315375 L5.11880625,6.14077875 L7.882425,6.141375 C7.77033,6.7960575 7.40959875,7.3541475 6.856875,7.7262075 L6.856875,9.00277875 L8.50192875,9.00277875 C9.4624875,8.11377 10.0128262,6.799635 10.0128262,5.247 Z"/><path fill="#34A853" d="M6.85747125,7.7262075 C6.39955125,8.035065 5.80986,8.21572875 5.11999875,8.21572875 C3.78738,8.21572875 2.65689,7.31777625 2.25203625,6.10738875 L0.55510875,6.10738875 L0.55510875,7.42390875 C1.39582125,9.09221625 3.12375375,10.2370162 5.11999875,10.2370162 C6.49972125,10.2370162 7.65883125,9.78327 8.502525,9.0021825 L6.85747125,7.7262075 Z"/><path fill="#FABB05" d="M2.09224125,5.13073125 C2.09224125,4.79086875 2.148885,4.462335 2.25203625,4.1534775 L2.25203625,2.8369575 L0.55510875,2.8369575 C0.207495,3.52681875 0.011925,4.30552125 0.011925,5.13073125 C0.011925,5.95594125 0.20809125,6.73464375 0.55510875,7.424505 L2.25203625,6.107985 C2.148885,5.7991275 2.09224125,5.47059375 2.09224125,5.13073125 Z"/><path fill="#E94235" d="M5.11999875,2.0451375 C5.8730625,2.0451375 6.54742125,2.30450625 7.0798725,2.81131875 L8.53770375,1.35468 C7.6522725,0.53006625 6.4979325,0.02385 5.11999875,0.02385 C3.12435,0.02385 1.39582125,1.16865 0.55510875,2.8369575 L2.25203625,4.1534775 C2.65689,2.94309 3.78738,2.0451375 5.11999875,2.0451375 Z"/></g></g></svg>