<svg xmlns="http://www.w3.org/2000/svg" viewBox="0 0 24 24" width="currentSize" height="currentSize"><defs><radialGradient id="app-icon-a" cx="26.563%" cy="107.702%" r="99.107%" fx="26.563%" fy="107.702%"><stop offset="0%" stop-color="#FFDD55"/><stop offset="10%" stop-color="#FFDD55"/><stop offset="50%" stop-color="#FF543E"/><stop offset="100%" stop-color="#C837AB"/></radialGradient></defs><g fill="none" fill-rule="evenodd"><rect width="24" height="24" fill="url(#app-icon-a)" rx="6"/><path fill="#FFFFFF" fill-rule="nonzero" d="M12.0506235,3.08713693 C9.64353614,3.08713693 9.34145,3.09772095 8.39604597,3.14098548 C7.45248842,3.18443568 6.80843192,3.33465456 6.24488248,3.55506224 C5.66194487,3.78271162 5.16745424,4.08723444 4.67481011,4.58282676 C4.18179667,5.0782334 3.87897194,5.57549689 3.65185339,6.16151763 C3.43212081,6.72841286 3.28255494,7.3762666 3.24008562,8.32474378 C3.19780095,9.27544917 3.18672199,9.57941494 3.18672199,12 C3.18672199,14.4205851 3.19743165,14.7234367 3.24027027,15.6741421 C3.28366284,16.6229907 3.43304406,17.2706587 3.65203804,17.8373683 C3.87860264,18.4235747 4.18142737,18.9208382 4.67425616,19.4162448 C5.16671565,19.9120228 5.66120627,20.2172884 6.24377458,20.4449378 C6.80769332,20.6653454 7.45193447,20.8155643 8.39530737,20.8590145 C9.34071141,20.902279 9.64261289,20.9128631 12.0495156,20.9128631 C14.4567875,20.9128631 14.7579504,20.902279 15.7033544,20.8590145 C16.646912,20.8155643 17.2917071,20.6653454 17.8556258,20.4449378 C18.4383788,20.2172884 18.9321308,19.9120228 19.4245903,19.4162448 C19.9176037,18.9208382 20.2204285,18.4235747 20.447547,17.8375539 C20.6654331,17.2706587 20.814999,16.622805 20.8593148,15.6743278 C20.9017841,14.7236224 20.9128631,14.4205851 20.9128631,12 C20.9128631,9.57941494 20.9017841,9.27563485 20.8593148,8.32492946 C20.814999,7.37608091 20.6654331,6.72841286 20.447547,6.16170332 C20.2204285,5.57549689 19.9176037,5.0782334 19.4245903,4.58282676 C18.9315769,4.08704876 18.4385634,3.78252593 17.8550719,3.55506224 C17.2900452,3.33465456 16.6456194,3.18443568 15.7020619,3.14098548 C14.7566579,3.09772095 14.4556796,3.08713693 12.0478537,3.08713693 L12.0506235,3.08713693 Z M11.2555239,4.69330913 C11.4915056,4.69293776 11.7548154,4.69330913 12.0506235,4.69330913 C14.4170879,4.69330913 14.6975701,4.70185062 15.6320798,4.74455809 C16.4962382,4.78429461 16.9652473,4.9295 17.2776738,5.05149481 C17.691288,5.21304046 17.9861728,5.40615249 18.2961989,5.7181027 C18.6064096,6.0300529 18.7984448,6.32714834 18.9594589,6.74308195 C19.0807734,7.056889 19.2253538,7.52852801 19.2646841,8.39753216 C19.3071534,9.33709647 19.3163859,9.61933714 19.3163859,11.9979575 C19.3163859,14.3765778 19.3071534,14.6588185 19.2646841,15.5983828 C19.2251691,16.4673869 19.0807734,16.9390259 18.9594589,17.252833 C18.7988141,17.6687666 18.6064096,17.9649336 18.2961989,18.2766981 C17.9859882,18.5886483 17.6914727,18.7817604 17.2776738,18.943306 C16.9656166,19.0658579 16.4962382,19.2106919 15.6320798,19.2504284 C14.6977548,19.2931359 14.4170879,19.3024201 12.0506235,19.3024201 C9.68397432,19.3024201 9.40349214,19.2931359 8.46916706,19.2504284 C7.60500868,19.2103205 7.13599964,19.0651151 6.8233885,18.9431203 C6.40977424,18.7815747 6.11433548,18.5884627 5.80412477,18.2765124 C5.49391407,17.9645622 5.30187888,17.6682095 5.14086475,17.2520902 C5.01955021,16.9382832 4.87496987,16.4666442 4.83563958,15.59764 C4.79317026,14.6580757 4.7846764,14.3758351 4.7846764,11.9957293 C4.7846764,9.61562344 4.79317026,9.33486826 4.83563958,8.39530394 C4.87515452,7.52629979 5.01955021,7.05466079 5.14086475,6.74048237 C5.30150958,6.32454876 5.49391407,6.02745332 5.80412477,5.71550311 C6.11433548,5.4035529 6.40977424,5.21044087 6.8233885,5.04852386 C7.135815,4.92597199 7.60500868,4.78113797 8.46916706,4.74121577 C9.28679383,4.70407884 9.60365191,4.69293776 11.2555239,4.69108091 L11.2555239,4.69330913 Z M16.7817059,6.17321577 C16.1945214,6.17321577 15.7181264,6.6517251 15.7181264,7.24238797 C15.7181264,7.83286515 16.1945214,8.31193154 16.7817059,8.31193154 C17.3688905,8.31193154 17.8452855,7.83286515 17.8452855,7.24238797 C17.8452855,6.65191079 17.3688905,6.1728444 16.7817059,6.1728444 L16.7817059,6.17321577 Z M12.0506235,7.42287344 C9.53699353,7.42287344 7.49902002,9.4722749 7.49902002,12 C7.49902002,14.5277251 9.53699353,16.5761981 12.0506235,16.5761981 C14.5642534,16.5761981 16.6014883,14.5277251 16.6014883,12 C16.6014883,9.4722749 14.5640687,7.42287344 12.0504388,7.42287344 L12.0506235,7.42287344 Z M12.0506235,9.02904564 C13.682184,9.02904564 15.0050111,10.3591048 15.0050111,12 C15.0050111,13.6407095 13.682184,14.9709544 12.0506235,14.9709544 C10.4188782,14.9709544 9.09623583,13.6407095 9.09623583,12 C9.09623583,10.3591048 10.4188782,9.02904564 12.0506235,9.02904564 Z"/></g></svg>