<?xml version="1.0" encoding="UTF-8"?>
<svg width="currentSize" height="currentSize" viewBox="0 0 80 86" version="1.1" xmlns="http://www.w3.org/2000/svg" xmlns:xlink="http://www.w3.org/1999/xlink">
    <title>84059E67-AC58-4D9A-9D73-6769ECB7D0D9@1x</title>
    <defs>
        <linearGradient x1="74.711%" y1="66.0057743%" x2="20.198%" y2="58.8583207%" id="linearGradient-1">
            <stop stop-color="#FEEB46" offset="0%"></stop>
            <stop stop-color="#FFDE41" offset="100%"></stop>
        </linearGradient>
        <linearGradient x1="50%" y1="218.002%" x2="50%" y2="65.337%" id="linearGradient-2">
            <stop stop-color="#FFE325" offset="0%"></stop>
            <stop stop-color="#FCCB27" offset="100%"></stop>
        </linearGradient>
    </defs>
    <g id="Symbols" stroke="none" stroke-width="1" fill="none" fill-rule="evenodd">
        <g id="img_refer">
            <rect id="space" x="0" y="0" width="80" height="86"></rect>
            <g id="image" transform="translate(2.000000, 0.000000)">
                <g id="letter">
                    <path d="M0,37.6229508 L76,37.6229508 L76,78.8372906 C76,80.7017068 74.488592,82.2131148 72.6241758,82.2131148 L3.37582418,82.2131148 C1.51140797,82.2131148 2.44877118e-15,80.7017068 0,78.8372906 L0,37.6229508 L0,37.6229508 Z" id="Rectangle" fill="#FFCBDA"></path>
                    <path d="M40.9689212,2.93946251 L76,37.6229508 L76,37.6229508 L0,37.6229508 L35.0310788,2.93946251 C36.6755359,1.31132231 39.3244641,1.31132231 40.9689212,2.93946251 Z" id="Rectangle-Copy" fill="#FFCBDA"></path>
                    <path d="M13.7911274,17.4180328 L61.1533171,17.4180328 C62.5516292,17.4180328 63.6851852,18.5515888 63.6851852,19.9499009 L63.6851852,74.2008197 L63.6851852,74.2008197 L11.2592593,74.2008197 L11.2592593,19.9499009 C11.2592593,18.5515888 12.3928152,17.4180328 13.7911274,17.4180328 Z" id="Rectangle" fill="#F5F8FF"></path>
                    <path d="M0,37.6229508 L43.2777778,70.6987305 L3.32628042,83.9008208 C1.99858222,84.3395626 0.566599662,83.618921 0.127857868,82.2912228 C0.0431642539,82.0349273 2.69759174e-15,81.7667372 0,81.4968105 L0,37.6229508 L0,37.6229508 Z" id="Rectangle" fill="#FFEAF0"></path>
                    <path d="M38.7037037,37.6229508 L76,70.0659301 L42.1767289,83.6093418 C40.8786154,84.1291285 39.4049161,83.4981699 38.8851294,82.2000564 C38.7652822,81.9007503 38.7037037,81.5813083 38.7037037,81.2588994 L38.7037037,37.6229508 L38.7037037,37.6229508 Z" id="Rectangle" fill="#FFEAF0" transform="translate(57.351852, 61.311475) scale(-1, 1) translate(-57.351852, -61.311475) "></path>
                    <path d="M41.2226258,55.9580552 L74.188093,83.1566988 C74.5476218,83.4533334 74.5986077,83.9852588 74.3019732,84.3447876 C74.1416505,84.5391029 73.9029049,84.6516393 73.6509887,84.6516393 L2.34901128,84.6516393 C1.88290723,84.6516393 1.50505524,84.2737874 1.50505524,83.8076833 C1.50505524,83.5557671 1.61759171,83.3170215 1.81190698,83.1566988 L34.7773742,55.9580552 C36.648467,54.4142825 39.351533,54.4142825 41.2226258,55.9580552 Z" id="Rectangle" fill="#FFCBDA"></path>
                </g>
                <g id="gift-box" transform="translate(27.092593, 24.733607)" fill-rule="nonzero">
                    <path d="M20.4074074,5.22540984 L20.4074074,18.5416186 C20.4074074,20.0374163 19.183036,21.25 17.6726974,21.25 L4.4939693,21.25 C2.98363065,21.25 1.75925926,20.0374163 1.75925926,18.5416186 L1.75925926,5.22540984 L20.4074074,5.22540984 Z" id="Path" fill="#FF3C78"></path>
                    <rect id="Rectangle" fill="#FFDB30" x="8.44444444" y="9.4057377" width="4.92592593" height="11.8442623"></rect>
                    <polygon id="Path" fill="#FB8EB5" points="1.75925926 6.2704918 20.4074074 6.2704918 20.4074074 10.0586936 11.0835596 10.4508197 1.75925926 10.0586936"></polygon>
                    <path d="M1.75925926,6.2704918 L20.4074074,6.2704918 L20.4074074,10.7991803 C17.2993827,10.6374328 14.191358,10.556559 11.0833333,10.556559 C7.97530862,10.556559 4.86728396,10.6374328 1.75925926,10.7991803 L1.75925926,6.2704918 Z" id="Path" fill="#E42560"></path>
                    <path d="M11.6111111,3.98290029 L9.33349419,0.999377311 C8.49492812,-0.0990871403 6.90149923,-0.327005161 5.77447119,0.490308159 C5.44369379,0.730185724 5.17770179,1.04483804 4.99940484,1.40716433 L4.10600306,3.22269136 C3.57822723,4.29521136 3.96318142,5.58300543 4.99940484,6.21140401 L5.07496842,6.25722817 C6.21561581,6.94895275 7.53219445,7.31557377 8.87561065,7.31557377 L11.6111111,7.31557377 L11.6111111,7.31557377 L11.6111111,3.98290029 Z" id="Path" fill="url(#linearGradient-1)"></path>
                    <path d="M18.2962963,3.98290029 L16.0186794,0.999377311 C15.1801133,-0.0990871403 13.5866844,-0.327005161 12.4596563,0.490308159 C12.128879,0.730185724 11.862887,1.04483804 11.68459,1.40716433 L10.7911883,3.22269136 C10.2634124,4.29521136 10.6483666,5.58300543 11.68459,6.21140401 L11.7601536,6.25722817 C12.900801,6.94895275 14.2173796,7.31557377 15.5607958,7.31557377 L18.2962963,7.31557377 L18.2962963,7.31557377 L18.2962963,3.98290029 Z" id="Path" fill="url(#linearGradient-1)" transform="translate(14.425926, 3.657787) scale(-1, 1) translate(-14.425926, -3.657787) "></path>
                    <rect id="Rectangle" fill="#FF3C78" x="0" y="4.87704918" width="21.8148148" height="4.52868852" rx="1.2334"></rect>
                    <path d="M10.9074074,2.78688525 C12.0266902,2.78688525 12.995799,3.5565632 13.2386055,4.63835115 L13.3703704,5.22540984 L13.3703704,5.22540984 L8.44444444,5.22540984 L8.57620935,4.63835115 C8.81901589,3.5565632 9.78812461,2.78688525 10.9074074,2.78688525 Z" id="Path" fill="url(#linearGradient-2)"></path>
                    <rect id="Rectangle" fill="#FFE154" x="8.44444444" y="4.87704918" width="4.92592593" height="4.52868852"></rect>
                    <path d="M13.3703704,9.4057377 L13.3703704,10.5779779 C13.055372,10.7254462 12.2343844,10.7991803 10.9074074,10.7991803 C9.58043045,10.7991803 8.75944279,10.7254462 8.44444444,10.5779779 L8.44444444,9.4057377 L13.3703704,9.4057377 Z" id="Path" fill="#FCD621"></path>
                </g>
            </g>
        </g>
    </g>
</svg>
