<svg xmlns="http://www.w3.org/2000/svg" viewBox="0 0 34 25" width="currentSize" height="currentSize"><defs><linearGradient id="jcb-a" x1="-57.527%" x2="232.391%" y1="50.124%" y2="50.124%"><stop offset="0%" stop-color="#007940"/><stop offset="22.85%" stop-color="#00873F"/><stop offset="74.33%" stop-color="#40A737"/><stop offset="100%" stop-color="#5CB531"/></linearGradient><linearGradient id="jcb-b" x1=".183%" x2="100.273%" y1="49.96%" y2="49.96%"><stop offset="0%" stop-color="#007940"/><stop offset="22.85%" stop-color="#00873F"/><stop offset="74.33%" stop-color="#40A737"/><stop offset="100%" stop-color="#5CB531"/></linearGradient><linearGradient id="jcb-c" x1="-62.802%" x2="253.671%" y1="49.858%" y2="49.858%"><stop offset="0%" stop-color="#007940"/><stop offset="22.85%" stop-color="#00873F"/><stop offset="74.33%" stop-color="#40A737"/><stop offset="100%" stop-color="#5CB531"/></linearGradient><linearGradient id="jcb-d" x1=".176%" x2="101.808%" y1="50.006%" y2="50.006%"><stop offset="0%" stop-color="#1F286F"/><stop offset="47.51%" stop-color="#004E94"/><stop offset="82.61%" stop-color="#0066B1"/><stop offset="100%" stop-color="#006FBC"/></linearGradient><linearGradient id="jcb-e" x1="-.576%" x2="98.133%" y1="49.914%" y2="49.914%"><stop offset="0%" stop-color="#6C2C2F"/><stop offset="17.35%" stop-color="#882730"/><stop offset="57.31%" stop-color="#BE1833"/><stop offset="85.85%" stop-color="#DC0436"/><stop offset="100%" stop-color="#E60039"/></linearGradient></defs><g fill="none" fill-rule="evenodd"><path fill="#FFFFFF" fill-rule="nonzero" d="M4.39393939,1 L29.6060606,1 C31.4804816,1 33,2.50171157 33,4.35416667 L33,20.6458333 C33,22.4982884 31.4804816,24 29.6060606,24 L4.39393939,24 C2.51951842,24 1,22.4982884 1,20.6458333 L1,4.35416667 C1,2.50171157 2.51951842,1 4.39393939,1 Z"/><path fill="#D9D9D9" fill-rule="nonzero" d="M29.6285714,0 L4.37142857,0 C1.95715524,0 0,1.93722945 0,4.32692308 L0,20.6730769 C0,23.0627706 1.95715524,25 4.37142857,25 L29.6285714,25 C32.0428448,25 34,23.0627706 34,20.6730769 L34,4.32692308 C34,1.93722945 32.0428448,0 29.6285714,0 Z M4.39393939,1 L29.6060606,1 C31.4804816,1 33,2.50171157 33,4.35416667 L33,20.6458333 C33,22.4982884 31.4804816,24 29.6060606,24 L4.39393939,24 C2.51951842,24 1,22.4982884 1,20.6458333 L1,4.35416667 C1,2.50171157 2.51951842,1 4.39393939,1 Z"/><g fill-rule="nonzero" transform="translate(5 3)"><path fill="#FFFFFF" d="M23.8400001,14.65956 C23.8400001,16.6996578 22.1787776,18.3608803 20.1386798,18.3608803 L-3.19999799e-09,18.3608803 L-3.19999799e-09,3.70132034 C-3.19999799e-09,1.66122254 1.6612225,3.44e-08 3.70132031,3.44e-08 L23.8400001,3.44e-08 L23.8400001,14.65956 Z"/><g transform="translate(15.971 1.21)"><path fill="url(#jcb-a)" d="M1.31149145,9.69046459 L2.8415648,9.69046459 C2.88528119,9.69046459 2.98728608,9.67589246 3.03100246,9.67589246 C3.322445,9.61760395 3.57017116,9.35530566 3.57017116,8.99100248 C3.57017116,8.64127143 3.322445,8.37897314 3.03100246,8.3061125 C2.98728608,8.29154038 2.89985331,8.29154038 2.8415648,8.29154038 L1.31149145,8.29154038 L1.31149145,9.69046459 Z"/><path fill="url(#jcb-b)" d="M2.66669928,0.0291442544 C1.20948656,0.0291442544 0.0145721272,1.20948656 0.0145721272,2.6812714 L0.0145721272,5.43540345 L3.75960882,5.43540345 C3.84704158,5.43540345 3.94904647,5.43540345 4.02190711,5.44997557 C4.86709048,5.49369195 5.49369195,5.93085577 5.49369195,6.68860638 C5.49369195,7.2860636 5.07110027,7.79608805 4.2842054,7.89809294 L4.2842054,7.9272372 C5.1439609,7.98552571 5.79970663,8.4664059 5.79970663,9.20958439 C5.79970663,10.0110514 5.07110027,10.535648 4.10933987,10.535648 L2.07082383e-15,10.535648 L2.07082383e-15,15.927335 L3.89075796,15.927335 C5.34797068,15.927335 6.54288511,14.7469927 6.54288511,13.2752079 L6.54288511,0.0291442544 L2.66669928,0.0291442544 Z"/><path fill="url(#jcb-c)" d="M3.38073351,6.86347191 C3.38073351,6.51374086 3.13300735,6.28058682 2.8415648,6.23687044 C2.81242055,6.23687044 2.73955991,6.22229831 2.69584353,6.22229831 L1.31149145,6.22229831 L1.31149145,7.50464551 L2.69584353,7.50464551 C2.73955991,7.50464551 2.82699268,7.50464551 2.8415648,7.49007338 C3.13300735,7.446357 3.38073351,7.21320296 3.38073351,6.86347191 L3.38073351,6.86347191 Z"/></g><path fill="url(#jcb-d)" d="M3.97819072,1.23863085 C2.520978,1.23863085 1.32606357,2.41897315 1.32606357,3.890758 L1.32606357,10.4336431 C2.06924206,10.7979463 2.8415648,11.0311003 3.61388754,11.0311003 C4.53193156,11.0311003 5.02738388,10.4773595 5.02738388,9.71960888 L5.02738388,6.63031791 L7.30063572,6.63031791 L7.30063572,9.70503675 C7.30063572,10.8999512 6.55745724,11.8762837 4.03647923,11.8762837 C2.50640588,11.8762837 1.31149144,11.5411248 1.31149144,11.5411248 L1.31149144,17.1222495 L5.20224941,17.1222495 C6.65946213,17.1222495 7.85437656,15.9419072 7.85437656,14.4701223 L7.85437656,1.23863085 L3.97819072,1.23863085 Z"/><path fill="url(#jcb-e)" d="M11.3079707,1.23863085 C9.85075798,1.23863085 8.65584355,2.41897315 8.65584355,3.890758 L8.65584355,7.35892427 C9.3261614,6.79061131 10.4919316,6.42630813 12.371736,6.51374089 C13.3772128,6.55745727 14.4555502,6.83432769 14.4555502,6.83432769 L14.4555502,7.95638149 C13.9163815,7.67951107 13.2752079,7.43178491 12.4445966,7.3734964 C11.0165282,7.27149151 10.1567727,7.97095361 10.1567727,9.1950123 C10.1567727,10.4336431 11.0165282,11.1331052 12.4445966,11.0165282 C13.2752079,10.9582397 13.9163815,10.6959414 14.4555502,10.4336431 L14.4555502,11.5556969 C14.4555502,11.5556969 13.3917849,11.8325673 12.371736,11.8762837 C10.4919316,11.9637165 9.3261614,11.5994133 8.65584355,11.0311003 L8.65584355,17.1513937 L12.5466015,17.1513937 C14.0038142,17.1513937 15.1987287,15.9710514 15.1987287,14.4992666 L15.1987287,1.23863085 L11.3079707,1.23863085 Z"/></g></g></svg>