<svg xmlns="http://www.w3.org/2000/svg" viewBox="0 0 24 24" width="currentSize" height="currentSize"><g fill="none" fill-rule="evenodd"><rect width="24" height="24" fill="#FFE812" rx="6"/><g fill-rule="nonzero" transform="translate(2 3)"><path fill="#000000" d="M10,0.375 C4.6151875,0.375 0.25,3.81684375 0.25,8.0625 C0.25,10.8074062 2.0749375,13.2159375 4.820125,14.5759687 C4.67078125,15.0910312 3.86040625,17.8894687 3.82815625,18.1093125 C3.82815625,18.1093125 3.80875,18.2745 3.91571875,18.3375 C4.0226875,18.4005 4.1485,18.3515625 4.1485,18.3515625 C4.45525,18.3087187 7.70565625,16.0255312 8.26825,15.6290625 C8.83028125,15.7086562 9.409,15.75 10,15.75 C15.3848125,15.75 19.75,12.30825 19.75,8.0625 C19.75,3.81684375 15.3848125,0.375 10,0.375 Z"/><path fill="#FFE812" d="M4.609375,10.7460938 C4.29915625,10.7460938 4.046875,10.5051563 4.046875,10.2089063 L4.046875,6.8671875 L3.1691875,6.8671875 C2.86478125,6.8671875 2.6171875,6.6200625 2.6171875,6.31640625 C2.6171875,6.01275 2.864875,5.765625 3.1691875,5.765625 L6.0495625,5.765625 C6.35396875,5.765625 6.6015625,6.01275 6.6015625,6.31640625 C6.6015625,6.6200625 6.353875,6.8671875 6.0495625,6.8671875 L5.171875,6.8671875 L5.171875,10.2089063 C5.171875,10.5051563 4.91959375,10.7460938 4.609375,10.7460938 Z M9.54175,10.7387817 C9.3071875,10.7387817 9.12775,10.6435313 9.07365625,10.4903437 L8.795125,9.76115625 L7.079875,9.7610625 L6.80115625,10.4907187 C6.74725,10.643625 6.56790625,10.7387817 6.33334375,10.7387817 C6.20996225,10.7389076 6.08800383,10.712431 5.97578125,10.6611562 C5.82071875,10.589625 5.67165625,10.3929375 5.84246875,9.86240625 L7.18796875,6.32090625 C7.28275,6.0515625 7.57065625,5.7740625 7.93703125,5.76571875 C8.3044375,5.77396875 8.59234375,6.0515625 8.6873125,6.32146875 L10.03225,9.861375 C10.2034375,10.393125 10.054375,10.5899062 9.8993125,10.66125 C9.78706319,10.7124337 9.66511804,10.7388754 9.54175,10.7387817 C9.54165625,10.7387817 9.54175,10.7387817 9.54175,10.7387817 L9.54175,10.7387817 Z M8.49934375,8.76478125 L7.9375,7.1686875 L7.37565625,8.76478125 L8.49934375,8.76478125 L8.49934375,8.76478125 Z M10.9375,10.6640625 C10.6402188,10.6640625 10.3984375,10.4326875 10.3984375,10.1484375 L10.3984375,6.328125 C10.3984375,6.01790625 10.6560625,5.765625 10.9726562,5.765625 C11.28925,5.765625 11.546875,6.01790625 11.546875,6.328125 L11.546875,9.6328125 L12.7421875,9.6328125 C13.0394687,9.6328125 13.28125,9.8641875 13.28125,10.1484375 C13.28125,10.4326875 13.0394687,10.6640625 12.7421875,10.6640625 L10.9375,10.6640625 Z M14.0625625,10.7387813 C13.7523438,10.7387813 13.5000625,10.4865 13.5000625,10.1762812 L13.5000625,6.328125 C13.5000625,6.01790625 13.7523438,5.765625 14.0625625,5.765625 C14.3727812,5.765625 14.6250625,6.01790625 14.6250625,6.328125 L14.6250625,7.537125 L16.1944375,5.96775 C16.2751563,5.88703125 16.3860625,5.84259375 16.5064375,5.84259375 C16.646875,5.84259375 16.787875,5.90315625 16.8935313,6.00871875 C16.9920625,6.10715625 17.0508437,6.2338125 17.0589062,6.36534375 C17.0670625,6.498 17.0229063,6.61959375 16.9347813,6.7078125 L15.6529375,7.98946875 L17.0375313,9.82378125 C17.1278304,9.94264565 17.1667297,10.092739 17.1455312,10.2405 C17.1252777,10.388353 17.0466816,10.5219462 16.9272813,10.6114688 C16.8300087,10.6854053 16.7111196,10.7252986 16.5889375,10.725 C16.4122017,10.7258225 16.2455217,10.6428824 16.1395937,10.5014063 L14.8204375,8.75353125 L14.62525,8.94871875 L14.62525,10.176 C14.6248885,10.486629 14.3731915,10.738368 14.0625625,10.7387813 L14.0625625,10.7387813 Z"/></g></g></svg>