<svg xmlns="http://www.w3.org/2000/svg" viewBox="0 0 24 24" width="currentSize" height="currentSize"><g fill="none" fill-rule="evenodd"><rect width="24" height="24" fill="#00B900" rx="6"/><g fill-rule="nonzero" transform="matrix(1 0 0 -1 2 21.944)"><path fill="#FFFFFF" d="M19.3264026,10.6755367 C19.3264026,14.971888 15.0193757,18.4672059 9.72486172,18.4672059 C4.43108396,18.4672059 0.123504916,14.971888 0.123504916,10.6755367 C0.123504916,6.82387666 3.53930853,3.59820804 8.1533491,2.98822996 C8.4660687,2.92086364 8.89161768,2.78208167 8.99929335,2.51482513 C9.09610942,2.2720487 9.06261032,1.89177872 9.03021559,1.6466095 C9.03021559,1.6466095 8.91757027,0.969081044 8.89327423,0.824777238 C8.85149238,0.582000809 8.70037832,-0.124609281 9.72486172,0.307197771 C10.7497132,0.739004823 15.2544216,3.56305239 17.2687849,5.88166852 L17.2684168,5.88166852 C18.6599178,7.40753402 19.3264026,8.95603902 19.3264026,10.6755367" transform="translate(.035 .01)"/><path fill="#00B900" d="M0.920304885,4.60152442 L0.24682577,4.60152442 C0.143567562,4.60152442 0.0596357565,4.51777668 0.0596357565,4.41488659 L0.0596357565,0.231180587 C0.0596357565,0.12810644 0.143567562,0.0445427564 0.24682577,0.0445427564 L0.920304885,0.0445427564 C1.02356309,0.0445427564 1.10731084,0.12810644 1.10731084,0.231180587 L1.10731084,4.41488659 C1.10731084,4.51777668 1.02356309,4.60152442 0.920304885,4.60152442" transform="translate(6.889 8.16)"/><path fill="#00B900" d="M3.86528052,4.60152442 L3.1918014,4.60152442 C3.08854319,4.60152442 3.00479545,4.51777668 3.00479545,4.41488659 L3.00479545,1.92932716 L1.08761631,4.51851292 C1.08319885,4.52513912 1.0782292,4.53139719 1.0730755,4.5374712 L1.07178707,4.53857557 C1.06810585,4.54280897 1.06442463,4.54649019 1.06055935,4.55017141 C1.05945498,4.55127578 1.05835062,4.55219608 1.05706219,4.55330045 C1.05393315,4.55624542 1.05062006,4.55900634 1.0471229,4.56158319 C1.04565041,4.56305568 1.04399386,4.56416005 1.04233731,4.56544847 C1.03902422,4.5676572 1.03589518,4.57005 1.03258208,4.57207467 C1.03074147,4.5733631 1.02890086,4.57446746 1.02687619,4.57538777 C1.02356309,4.57741244 1.02025,4.57943711 1.0169369,4.58109366 C1.01491223,4.58201396 1.01307162,4.58311833 1.01104695,4.58385457 C1.00754979,4.58551112 1.00405263,4.58716767 1.00037141,4.5884561 C0.998162678,4.58919234 0.996322068,4.58992858 0.994297398,4.59066483 C0.990616178,4.59195325 0.986934959,4.59324168 0.983069678,4.59416199 C0.981045007,4.59489823 0.978836276,4.59526635 0.976627544,4.5960026 C0.972946324,4.59673884 0.969449166,4.59765914 0.965952007,4.59839539 C0.963375154,4.59876351 0.960614239,4.59913163 0.958037385,4.59931569 C0.954724288,4.60005194 0.95141119,4.600236 0.948098092,4.60060412 C0.944969056,4.60097224 0.941840019,4.60097224 0.938526922,4.6011563 C0.936134129,4.6011563 0.934293519,4.60152442 0.931900726,4.60152442 L0.258605673,4.60152442 C0.155347465,4.60152442 0.0714156591,4.51777668 0.0714156591,4.41488659 L0.0714156591,0.231180587 C0.0714156591,0.12810644 0.155347465,0.0445427564 0.258605673,0.0445427564 L0.931900726,0.0445427564 C1.035343,0.0445427564 1.11909074,0.12810644 1.11909074,0.231180587 L1.11909074,2.71600378 L3.03866267,0.123504916 C3.05191506,0.104730696 3.06829649,0.0894536348 3.0861504,0.0773056103 C3.08670258,0.0769374884 3.08743883,0.0763853054 3.08799101,0.0758331225 C3.09185629,0.0734403298 3.09572157,0.0710475371 3.09958685,0.0688388054 C3.10142746,0.0677344395 3.10308401,0.0669981956 3.10492462,0.0660778907 C3.10768554,0.0644213419 3.11081457,0.0629488541 3.11375955,0.0616604273 C3.11688858,0.0603720005 3.1196495,0.0590835736 3.1229626,0.0577951468 C3.12480321,0.0570589029 3.12664382,0.056322659 3.12848443,0.055770476 C3.13290189,0.0541139272 3.13695123,0.0528255004 3.14118463,0.0515370736 C3.14210494,0.0515370736 3.14302524,0.0511689516 3.14394555,0.0509848906 C3.15922261,0.0469355491 3.17523591,0.0445427564 3.1918014,0.0445427564 L3.86528052,0.0445427564 C3.96872279,0.0445427564 4.05228647,0.12810644 4.05228647,0.231180587 L4.05228647,4.41488659 C4.05228647,4.51777668 3.96872279,4.60152442 3.86528052,4.60152442" transform="translate(8.58 8.16)"/><path fill="#00B900" d="M2.94497563,1.10436586 L1.1150414,1.10436586 L1.1150414,4.42685056 C1.1150414,4.53010877 1.03129365,4.61385651 0.928219507,4.61385651 L0.254556331,4.61385651 C0.151298123,4.61385651 0.0675503786,4.53010877 0.0675503786,4.42685056 L0.0675503786,0.243880795 L0.0675503786,0.243512673 C0.0675503786,0.193264026 0.087613025,0.147800965 0.119823696,0.114301867 C0.12055994,0.113381562 0.121296184,0.112461257 0.12240055,0.111540952 C0.123320855,0.110620647 0.124241159,0.109884403 0.125161464,0.108964098 C0.158844623,0.0765693664 0.204123623,0.0566907809 0.25437227,0.0566907809 L0.254556331,0.0566907809 L2.94497563,0.0566907809 C3.04823384,0.0566907809 3.13161346,0.140622586 3.13161346,0.243880795 L3.13161346,0.917359909 C3.13161346,1.02061812 3.04823384,1.10436586 2.94497563,1.10436586" transform="translate(3.24 8.148)"/><path fill="#00B900" d="M2.94497563,3.68121954 C3.04823384,3.68121954 3.13161346,3.76478322 3.13161346,3.86822549 L3.13161346,4.54170461 C3.13161346,4.64496282 3.04823384,4.72889462 2.94497563,4.72889462 L0.254556331,4.72889462 L0.254188209,4.72889462 C0.203755502,4.72889462 0.15829244,4.70864791 0.124609281,4.67606912 C0.123873038,4.67533288 0.122952733,4.67478069 0.12240055,4.67404445 C0.121296184,4.67294008 0.120375879,4.67183572 0.119455574,4.67073135 C0.0874289641,4.63723225 0.0675503786,4.59195325 0.0675503786,4.54188867 L0.0675503786,4.54170461 L0.0675503786,0.358734844 L0.0675503786,0.358550783 C0.0675503786,0.308302136 0.087613025,0.262839075 0.119823696,0.229339977 C0.12055994,0.228419672 0.121480245,0.227315307 0.12240055,0.226579063 C0.123136794,0.225658758 0.124241159,0.224738453 0.125161464,0.224002209 C0.158660562,0.191791538 0.204123623,0.171728892 0.254188209,0.171728892 L0.254556331,0.171728892 L2.94497563,0.171728892 C3.04823384,0.171728892 3.13161346,0.255660697 3.13161346,0.358734844 L3.13161346,1.03239802 C3.13161346,1.13547217 3.04823384,1.21940397 2.94497563,1.21940397 L1.11522546,1.21940397 L1.11522546,1.92656625 L2.94497563,1.92656625 C3.04823384,1.92656625 3.13161346,2.01031399 3.13161346,2.1135722 L3.13161346,2.78705131 C3.13161346,2.89030952 3.04823384,2.97424133 2.94497563,2.97424133 L1.11522546,2.97424133 L1.11522546,3.68121954 L2.94497563,3.68121954 Z" transform="translate(13.219 8.033)"/></g></g></svg>