<svg xmlns="http://www.w3.org/2000/svg" viewBox="0 0 24 24" width="currentSize" height="currentSize"><g fill="none" fill-rule="evenodd"><rect width="24" height="24" fill="#4D85FF" rx="6"/><path fill="#FFFFFF" fill-rule="nonzero" d="M12.25,0 C13.2164983,0 14,0.783501687 14,1.75 L14,12.25 C14,13.2164983 13.2164983,14 12.25,14 L1.75,14 C0.783501687,14 0,13.2164983 0,12.25 L0,1.75 C0,0.783501687 0.783501687,0 1.75,0 L12.25,0 Z M4.64423077,5.86800702 L2.80856643,5.86800702 L2.80856643,11.375 L4.64423077,11.375 L4.64423077,5.86800702 Z M9.23339159,5.74562937 C8.68269232,5.74562937 8.00961537,6.11276225 7.70367132,6.60227272 L7.70367132,6.60227272 L7.70367132,5.86800702 L5.86800702,5.86800702 L5.86800702,11.375 L7.70367132,11.375 L7.70367132,8.13199298 C7.70367132,7.64250649 8.13199298,7.21416086 8.62150351,7.21416086 C9.11101397,7.21416086 9.53933569,7.64250649 9.53933569,8.13199298 L9.53933569,8.13199298 L9.53933569,11.375 L11.375,11.375 L11.375,7.88723775 C11.375,6.72465033 10.395979,5.74562937 9.23339159,5.74562937 Z M3.7263986,2.625 C3.11451049,2.625 2.625,3.11451049 2.625,3.7263986 C2.625,4.33828671 3.11451049,4.8277972 3.7263986,4.8277972 C4.33828671,4.8277972 4.8277972,4.33828671 4.8277972,3.7263986 C4.8277972,3.11451049 4.33828671,2.625 3.7263986,2.625 Z" transform="translate(5 5)"/></g></svg>