<svg xmlns="http://www.w3.org/2000/svg" viewBox="0 0 24 24" width="currentSize" height="currentSize"><g fill="none" fill-rule="evenodd"><path fill="#000000" fill-rule="nonzero" d="M4.38688525,21.557377 L4.38688525,20.3245902 C4.38688525,19.852459 4.09836066,19.5442623 3.60655738,19.5442623 C3.35737705,19.5442623 3.09508197,19.6295082 2.90491803,19.8918033 C2.76065574,19.6688525 2.55737705,19.5442623 2.24918033,19.5442623 C2.04590164,19.5442623 1.83606557,19.6032787 1.67213115,19.8327869 L1.67213115,19.5836066 L1.24590164,19.5836066 L1.24590164,21.557377 L1.67868852,21.557377 L1.67868852,20.4688525 C1.67868852,20.1213115 1.86229508,19.957377 2.15081967,19.957377 C2.43934426,19.957377 2.58360656,20.1409836 2.58360656,20.4688525 L2.58360656,21.557377 L3.01639344,21.557377 L3.01639344,20.4688525 C3.01639344,20.1213115 3.21967213,19.957377 3.48852459,19.957377 C3.77704918,19.957377 3.92131148,20.1409836 3.92131148,20.4688525 L3.92131148,21.557377 L4.38688525,21.557377 Z M10.7803279,19.5836066 L10.0786885,19.5836066 L10.0786885,18.9868852 L9.64590164,18.9868852 L9.64590164,19.5836066 L9.25245902,19.5836066 L9.25245902,19.9770492 L9.64590164,19.9770492 L9.64590164,20.8819672 C9.64590164,21.3344262 9.8295082,21.6032787 10.3213115,21.6032787 C10.504918,21.6032787 10.7147541,21.5442623 10.852459,21.4590164 L10.7278689,21.0918033 C10.6032787,21.1770492 10.4590164,21.1967213 10.3606557,21.1967213 C10.157377,21.1967213 10.0721311,21.0721311 10.0721311,20.8688525 L10.0721311,19.9836066 L10.7737705,19.9836066 L10.7737705,19.5836066 L10.7803279,19.5836066 Z M14.4327869,19.5442623 C14.1836066,19.5442623 14.0196721,19.6688525 13.9213115,19.8327869 L13.9213115,19.5836066 L13.4885246,19.5836066 L13.4885246,21.557377 L13.9213115,21.557377 L13.9213115,20.4491803 C13.9213115,20.1213115 14.0655738,19.9377049 14.3344262,19.9377049 C14.4196721,19.9377049 14.5180328,19.957377 14.6032787,19.9770492 L14.7278689,19.5639344 C14.642623,19.5442623 14.5180328,19.5442623 14.4327869,19.5442623 Z M8.90491803,19.747541 C8.70163934,19.6032787 8.41311475,19.5442623 8.10491803,19.5442623 C7.61311475,19.5442623 7.2852459,19.7934426 7.2852459,20.1803279 C7.2852459,20.5081967 7.53442623,20.6918033 7.96065574,20.757377 L8.16393443,20.7770492 C8.38688525,20.8163934 8.51147541,20.8819672 8.51147541,20.9803279 C8.51147541,21.1245902 8.34754098,21.2295082 8.05901639,21.2295082 C7.7704918,21.2295082 7.54754098,21.1245902 7.40327869,21.0262295 L7.2,21.3540984 C7.42295082,21.5180328 7.73114754,21.6032787 8.03934426,21.6032787 C8.61639344,21.6032787 8.9442623,21.3344262 8.9442623,20.9672131 C8.9442623,20.6196721 8.67540984,20.4360656 8.26885246,20.3704918 L8.06557377,20.3508197 C7.88196721,20.3311475 7.73770492,20.2918033 7.73770492,20.1672131 C7.73770492,20.0229508 7.88196721,19.9442623 8.10491803,19.9442623 C8.35409836,19.9442623 8.59672131,20.0491803 8.72131148,20.1081967 L8.90491803,19.747541 Z M20.3737705,19.5442623 C20.1245902,19.5442623 19.9606557,19.6688525 19.8622951,19.8327869 L19.8622951,19.5836066 L19.4295082,19.5836066 L19.4295082,21.557377 L19.8622951,21.557377 L19.8622951,20.4491803 C19.8622951,20.1213115 20.0065574,19.9377049 20.2754098,19.9377049 C20.3606557,19.9377049 20.4590164,19.957377 20.5442623,19.9770492 L20.6688525,19.5639344 C20.5770492,19.5442623 20.452459,19.5442623 20.3737705,19.5442623 Z M14.8655738,20.5672131 C14.8655738,21.1639344 15.2786885,21.5967213 15.9147541,21.5967213 C16.2032787,21.5967213 16.4065574,21.5377049 16.6163934,21.3737705 L16.4131148,21.0262295 C16.2491803,21.1508197 16.0852459,21.2098361 15.9016393,21.2098361 C15.5540984,21.2098361 15.304918,20.9606557 15.304918,20.5737705 C15.304918,20.2065574 15.5540984,19.957377 15.9016393,19.9377049 C16.0852459,19.9377049 16.2491803,19.9967213 16.4131148,20.1213115 L16.6163934,19.7737705 C16.4131148,19.6098361 16.2032787,19.5508197 15.9147541,19.5508197 C15.2786885,19.5442623 14.8655738,19.9770492 14.8655738,20.5672131 Z M18.852459,20.5672131 L18.852459,19.5836066 L18.4196721,19.5836066 L18.4196721,19.8327869 C18.2754098,19.6491803 18.0721311,19.5442623 17.8032787,19.5442623 C17.2459016,19.5442623 16.8196721,19.9770492 16.8196721,20.5737705 C16.8196721,21.1704918 17.252459,21.6032787 17.8032787,21.6032787 C18.0918033,21.6032787 18.295082,21.4983607 18.4196721,21.3147541 L18.4196721,21.5639344 L18.852459,21.5639344 L18.852459,20.5672131 Z M17.2721311,20.5672131 C17.2721311,20.2196721 17.495082,19.9311475 17.8688525,19.9311475 C18.2163934,19.9311475 18.4655738,20.2 18.4655738,20.5672131 C18.4655738,20.9147541 18.2163934,21.2032787 17.8688525,21.2032787 C17.495082,21.1836066 17.2721311,20.9213115 17.2721311,20.5672131 Z M12.1114754,19.5442623 C11.5344262,19.5442623 11.1278689,19.957377 11.1278689,20.5737705 C11.1278689,21.1901639 11.5409836,21.6032787 12.1377049,21.6032787 C12.4262295,21.6032787 12.7147541,21.5180328 12.9377049,21.3344262 L12.7344262,21.0262295 C12.5704918,21.1508197 12.3672131,21.2295082 12.157377,21.2295082 C11.8885246,21.2295082 11.6262295,21.104918 11.5606557,20.757377 L13.0163934,20.757377 L13.0163934,20.5934426 C13.0360656,19.9508197 12.6688525,19.5442623 12.1114754,19.5442623 Z M12.1114754,19.9114754 C12.3803279,19.9114754 12.5639344,20.0754098 12.6032787,20.3836066 L11.5737705,20.3836066 C11.6196721,20.1213115 11.8032787,19.9114754 12.1114754,19.9114754 Z M22.8196721,20.5672131 L22.8196721,18.8032787 L22.3868852,18.8032787 L22.3868852,19.8327869 C22.242623,19.6491803 22.0393443,19.5442623 21.7704918,19.5442623 C21.2131148,19.5442623 20.7868852,19.9770492 20.7868852,20.5737705 C20.7868852,21.1704918 21.2196721,21.6032787 21.7704918,21.6032787 C22.0590164,21.6032787 22.2622951,21.4983607 22.3868852,21.3147541 L22.3868852,21.5639344 L22.8196721,21.5639344 L22.8196721,20.5672131 Z M21.2327869,20.5672131 C21.2327869,20.2196721 21.4557377,19.9311475 21.8295082,19.9311475 C22.1770492,19.9311475 22.4262295,20.2 22.4262295,20.5672131 C22.4262295,20.9147541 22.1770492,21.2032787 21.8295082,21.2032787 C21.4622951,21.1836066 21.2327869,20.9213115 21.2327869,20.5672131 Z M6.81311475,20.5672131 L6.81311475,19.5836066 L6.38032787,19.5836066 L6.38032787,19.8327869 C6.23606557,19.6491803 6.03278689,19.5442623 5.76393443,19.5442623 C5.20655738,19.5442623 4.78032787,19.9770492 4.78032787,20.5737705 C4.78032787,21.1704918 5.21311475,21.6032787 5.76393443,21.6032787 C6.05245902,21.6032787 6.2557377,21.4983607 6.38032787,21.3147541 L6.38032787,21.5639344 L6.81311475,21.5639344 L6.81311475,20.5672131 Z M5.21311475,20.5672131 C5.21311475,20.2196721 5.43606557,19.9311475 5.80983607,19.9311475 C6.15737705,19.9311475 6.40655738,20.2 6.40655738,20.5672131 C6.40655738,20.9147541 6.15737705,21.2032787 5.80983607,21.2032787 C5.43606557,21.1836066 5.21311475,20.9213115 5.21311475,20.5672131 Z"/><rect width="6.472" height="11.626" x="8.767" y="4.607" fill="#FF5F00" fill-rule="nonzero"/><path fill="#EB001B" fill-rule="nonzero" d="M9.17377049,10.4229508 C9.17377049,8.06229508 10.2819672,5.96393443 11.9868852,4.60655738 C10.7344262,3.62295082 9.15409836,3.02622951 7.42295082,3.02622951 C3.33770492,3.02622951 0.0262295082,6.33114754 0.0262295082,10.4229508 C0.0262295082,14.5081967 3.33114754,17.8196721 7.42295082,17.8196721 C9.14754098,17.8196721 10.7278689,17.2229508 11.9868852,16.2393443 C10.2819672,14.9016393 9.17377049,12.7836066 9.17377049,10.4229508 Z"/><path fill="#F79E1B" fill-rule="nonzero" d="M23.9672131,10.4229508 C23.9672131,14.5081967 20.6622951,17.8196721 16.5704918,17.8196721 C14.8459016,17.8196721 13.2655738,17.2229508 12.0065574,16.2393443 C13.7311475,14.8819672 14.8196721,12.7901639 14.8196721,10.4229508 C14.8196721,8.06229508 13.7114754,5.96393443 12.0065574,4.60655738 C13.2590164,3.62295082 14.8393443,3.02622951 16.5704918,3.02622951 C20.6622951,3.02622951 23.9672131,6.35081967 23.9672131,10.4229508 Z"/><path fill="#FF5F00" fill-rule="nonzero" d="M12.0065574,4.60655738 C13.7114754,5.96393443 14.8196721,8.06229508 14.8196721,10.4229508 C14.8196721,12.7901639 13.7311475,14.8819672 12.0065574,16.2393443 L12.0147705,16.2315574 L11.9797705,16.2325574 L11.7769154,16.0681058 C10.1915414,14.7247154 9.17377049,12.6852459 9.17377049,10.4229508 C9.17377049,8.06229508 10.2819672,5.96393443 11.9868852,4.60655738 Z"/></g></svg>