<svg xmlns="http://www.w3.org/2000/svg" viewBox="0 0 34 25" width="currentSize" height="currentSize"><g fill="none" fill-rule="evenodd"><path fill="#FFFFFF" fill-rule="nonzero" d="M4.39393939,1 L29.6060606,1 C31.4804816,1 33,2.50171157 33,4.35416667 L33,20.6458333 C33,22.4982884 31.4804816,24 29.6060606,24 L4.39393939,24 C2.51951842,24 1,22.4982884 1,20.6458333 L1,4.35416667 C1,2.50171157 2.51951842,1 4.39393939,1 Z"/><path fill="#D9D9D9" fill-rule="nonzero" d="M29.6285714,0 L4.37142857,0 C1.95715524,0 0,1.93722945 0,4.32692308 L0,20.6730769 C0,23.0627706 1.95715524,25 4.37142857,25 L29.6285714,25 C32.0428448,25 34,23.0627706 34,20.6730769 L34,4.32692308 C34,1.93722945 32.0428448,0 29.6285714,0 Z M4.39393939,1 L29.6060606,1 C31.4804816,1 33,2.50171157 33,4.35416667 L33,20.6458333 C33,22.4982884 31.4804816,24 29.6060606,24 L4.39393939,24 C2.51951842,24 1,22.4982884 1,20.6458333 L1,4.35416667 C1,2.50171157 2.51951842,1 4.39393939,1 Z"/><g fill-rule="nonzero" transform="translate(7 5)"><path fill="#000000" d="M3.6557377,15.4644809 L3.6557377,14.4371585 C3.6557377,14.0437158 3.41530055,13.7868852 3.00546448,13.7868852 C2.79781421,13.7868852 2.57923497,13.8579235 2.42076503,14.0765027 C2.30054645,13.8907104 2.13114754,13.7868852 1.87431694,13.7868852 C1.70491803,13.7868852 1.53005464,13.8360656 1.39344262,14.0273224 L1.39344262,13.8196721 L1.03825137,13.8196721 L1.03825137,15.4644809 L1.3989071,15.4644809 L1.3989071,14.557377 C1.3989071,14.2677596 1.55191257,14.1311475 1.79234973,14.1311475 C2.03278689,14.1311475 2.15300546,14.284153 2.15300546,14.557377 L2.15300546,15.4644809 L2.5136612,15.4644809 L2.5136612,14.557377 C2.5136612,14.2677596 2.68306011,14.1311475 2.90710383,14.1311475 C3.14754098,14.1311475 3.26775956,14.284153 3.26775956,14.557377 L3.26775956,15.4644809 L3.6557377,15.4644809 Z M8.98360656,13.8196721 L8.3989071,13.8196721 L8.3989071,13.3224044 L8.03825137,13.3224044 L8.03825137,13.8196721 L7.71038251,13.8196721 L7.71038251,14.147541 L8.03825137,14.147541 L8.03825137,14.9016393 C8.03825137,15.2786885 8.19125683,15.5027322 8.6010929,15.5027322 C8.75409836,15.5027322 8.92896175,15.4535519 9.04371585,15.3825137 L8.93989071,15.0765027 C8.83606557,15.147541 8.71584699,15.1639344 8.63387978,15.1639344 C8.46448087,15.1639344 8.39344262,15.0601093 8.39344262,14.8907104 L8.39344262,14.1530055 L8.97814208,14.1530055 L8.97814208,13.8196721 L8.98360656,13.8196721 Z M12.0273224,13.7868852 C11.8196721,13.7868852 11.6830601,13.8907104 11.6010929,14.0273224 L11.6010929,13.8196721 L11.2404372,13.8196721 L11.2404372,15.4644809 L11.6010929,15.4644809 L11.6010929,14.5409836 C11.6010929,14.2677596 11.7213115,14.1147541 11.9453552,14.1147541 C12.0163934,14.1147541 12.0983607,14.1311475 12.1693989,14.147541 L12.273224,13.8032787 C12.2021858,13.7868852 12.0983607,13.7868852 12.0273224,13.7868852 Z M7.42076503,13.9562842 C7.25136612,13.8360656 7.01092896,13.7868852 6.75409836,13.7868852 C6.3442623,13.7868852 6.07103825,13.9945355 6.07103825,14.3169399 C6.07103825,14.5901639 6.27868852,14.7431694 6.63387978,14.7978142 L6.80327869,14.8142077 C6.98907104,14.8469945 7.09289617,14.9016393 7.09289617,14.9836066 C7.09289617,15.1038251 6.95628415,15.1912568 6.71584699,15.1912568 C6.47540984,15.1912568 6.28961749,15.1038251 6.16939891,15.0218579 L6,15.295082 C6.18579235,15.431694 6.44262295,15.5027322 6.69945355,15.5027322 C7.18032787,15.5027322 7.45355191,15.2786885 7.45355191,14.9726776 C7.45355191,14.6830601 7.2295082,14.5300546 6.89071038,14.4754098 L6.72131148,14.4590164 C6.56830601,14.442623 6.44808743,14.4098361 6.44808743,14.3060109 C6.44808743,14.1857923 6.56830601,14.1202186 6.75409836,14.1202186 C6.96174863,14.1202186 7.16393443,14.2076503 7.26775956,14.2568306 L7.42076503,13.9562842 Z M16.9781421,13.7868852 C16.7704918,13.7868852 16.6338798,13.8907104 16.5519126,14.0273224 L16.5519126,13.8196721 L16.1912568,13.8196721 L16.1912568,15.4644809 L16.5519126,15.4644809 L16.5519126,14.5409836 C16.5519126,14.2677596 16.6721311,14.1147541 16.8961749,14.1147541 C16.9672131,14.1147541 17.0491803,14.1311475 17.1202186,14.147541 L17.2240437,13.8032787 C17.147541,13.7868852 17.0437158,13.7868852 16.9781421,13.7868852 Z M12.3879781,14.6393443 C12.3879781,15.136612 12.7322404,15.4972678 13.2622951,15.4972678 C13.5027322,15.4972678 13.6721311,15.4480874 13.8469945,15.3114754 L13.6775956,15.0218579 C13.5409836,15.1256831 13.4043716,15.1748634 13.2513661,15.1748634 C12.9617486,15.1748634 12.7540984,14.9672131 12.7540984,14.6448087 C12.7540984,14.3387978 12.9617486,14.1311475 13.2513661,14.1147541 C13.4043716,14.1147541 13.5409836,14.1639344 13.6775956,14.2677596 L13.8469945,13.9781421 C13.6775956,13.8415301 13.5027322,13.7923497 13.2622951,13.7923497 C12.7322404,13.7868852 12.3879781,14.147541 12.3879781,14.6393443 Z M15.7103825,14.6393443 L15.7103825,13.8196721 L15.3497268,13.8196721 L15.3497268,14.0273224 C15.2295082,13.8743169 15.0601093,13.7868852 14.8360656,13.7868852 C14.3715847,13.7868852 14.0163934,14.147541 14.0163934,14.6448087 C14.0163934,15.1420765 14.3770492,15.5027322 14.8360656,15.5027322 C15.0765027,15.5027322 15.2459016,15.4153005 15.3497268,15.2622951 L15.3497268,15.4699454 L15.7103825,15.4699454 L15.7103825,14.6393443 Z M14.3934426,14.6393443 C14.3934426,14.3497268 14.579235,14.1092896 14.8907104,14.1092896 C15.1803279,14.1092896 15.3879781,14.3333333 15.3879781,14.6393443 C15.3879781,14.9289617 15.1803279,15.1693989 14.8907104,15.1693989 C14.579235,15.1530055 14.3934426,14.9344262 14.3934426,14.6393443 Z M10.0928962,13.7868852 C9.61202186,13.7868852 9.27322404,14.1311475 9.27322404,14.6448087 C9.27322404,15.1584699 9.61748634,15.5027322 10.1147541,15.5027322 C10.3551913,15.5027322 10.5956284,15.431694 10.7814208,15.2786885 L10.6120219,15.0218579 C10.4754098,15.1256831 10.3060109,15.1912568 10.1311475,15.1912568 C9.90710383,15.1912568 9.68852459,15.0874317 9.63387978,14.7978142 L10.8469945,14.7978142 L10.8469945,14.6612022 C10.863388,14.1256831 10.557377,13.7868852 10.0928962,13.7868852 Z M10.0928962,14.0928962 C10.3169399,14.0928962 10.4699454,14.2295082 10.5027322,14.4863388 L9.64480874,14.4863388 C9.68306011,14.2677596 9.83606557,14.0928962 10.0928962,14.0928962 Z M19.0163934,14.6393443 L19.0163934,13.1693989 L18.6557377,13.1693989 L18.6557377,14.0273224 C18.5355191,13.8743169 18.3661202,13.7868852 18.1420765,13.7868852 C17.6775956,13.7868852 17.3224044,14.147541 17.3224044,14.6448087 C17.3224044,15.1420765 17.6830601,15.5027322 18.1420765,15.5027322 C18.3825137,15.5027322 18.5519126,15.4153005 18.6557377,15.2622951 L18.6557377,15.4699454 L19.0163934,15.4699454 L19.0163934,14.6393443 Z M17.6939891,14.6393443 C17.6939891,14.3497268 17.8797814,14.1092896 18.1912568,14.1092896 C18.4808743,14.1092896 18.6885246,14.3333333 18.6885246,14.6393443 C18.6885246,14.9289617 18.4808743,15.1693989 18.1912568,15.1693989 C17.8852459,15.1530055 17.6939891,14.9344262 17.6939891,14.6393443 Z M5.67759563,14.6393443 L5.67759563,13.8196721 L5.31693989,13.8196721 L5.31693989,14.0273224 C5.19672131,13.8743169 5.0273224,13.7868852 4.80327869,13.7868852 C4.33879781,13.7868852 3.98360656,14.147541 3.98360656,14.6448087 C3.98360656,15.1420765 4.3442623,15.5027322 4.80327869,15.5027322 C5.04371585,15.5027322 5.21311475,15.4153005 5.31693989,15.2622951 L5.31693989,15.4699454 L5.67759563,15.4699454 L5.67759563,14.6393443 Z M4.3442623,14.6393443 C4.3442623,14.3497268 4.53005464,14.1092896 4.84153005,14.1092896 C5.13114754,14.1092896 5.33879781,14.3333333 5.33879781,14.6393443 C5.33879781,14.9289617 5.13114754,15.1693989 4.84153005,15.1693989 C4.53005464,15.1530055 4.3442623,14.9344262 4.3442623,14.6393443 Z"/><rect width="5.393" height="9.689" x="7.306" y="1.339" fill="#FF5F00"/><path fill="#EB001B" d="M7.64480874,6.18579235 C7.64480874,4.21857923 8.56830601,2.46994536 9.98907104,1.33879781 C8.94535519,0.519125683 7.6284153,0.0218579235 6.18579235,0.0218579235 C2.78142077,0.0218579235 0.0218579235,2.77595628 0.0218579235,6.18579235 C0.0218579235,9.59016393 2.77595628,12.3497268 6.18579235,12.3497268 C7.62295082,12.3497268 8.93989071,11.852459 9.98907104,11.0327869 C8.56830601,9.91803279 7.64480874,8.15300546 7.64480874,6.18579235 Z"/><path fill="#F79E1B" d="M19.9726776,6.18579235 C19.9726776,9.59016393 17.2185792,12.3497268 13.8087432,12.3497268 C12.3715847,12.3497268 11.0546448,11.852459 10.0054645,11.0327869 C11.442623,9.90163934 12.3497268,8.15846995 12.3497268,6.18579235 C12.3497268,4.21857923 11.4262295,2.46994536 10.0054645,1.33879781 C11.0491803,0.519125683 12.3661202,0.0218579235 13.8087432,0.0218579235 C17.2185792,0.0218579235 19.9726776,2.79234973 19.9726776,6.18579235 Z"/></g></g></svg>