<svg xmlns="http://www.w3.org/2000/svg" viewBox="0 0 24 24" width="currentSize" height="currentSize"><g fill="none" fill-rule="evenodd"><rect width="24" height="24" fill="#FFFFFF" rx="6"/><path fill="#D9D9D9" fill-rule="nonzero" d="M18,0 C21.3137085,0 24,2.6862915 24,6 L24,18 C24,21.3137085 21.3137085,24 18,24 L6,24 C2.6862915,24 0,21.3137085 0,18 L0,6 C0,2.6862915 2.6862915,0 6,0 L18,0 Z M18,0.5 L6,0.5 C3.03652085,0.5 0.620460863,2.84378001 0.504367204,5.77879286 L0.5,6 L0.5,18 C0.5,20.9634791 2.84378001,23.3795391 5.77879286,23.4956328 L6,23.5 L18,23.5 C20.9634791,23.5 23.3795391,21.15622 23.4956328,18.2212071 L23.5,18 L23.5,6 C23.5,3.03652085 21.15622,0.620460863 18.2212071,0.504367204 L18,0.5 Z"/><g fill="#0F0F0F" transform="translate(6 10)"><circle cx="1.5" cy="1.5" r="1.5"/><circle cx="6" cy="1.5" r="1.5"/><circle cx="10.5" cy="1.5" r="1.5"/></g></g></svg>