<svg xmlns="http://www.w3.org/2000/svg" viewBox="0 0 62 53" width="currentSize" height="currentSize"><g fill="none"><path fill="#CBCBCB" d="M16.8 36.5L11 30.7C14.3 27.4 18.3 25.1 22.5 23.8L22.8 32.5C20.5 33.4 18.5 34.7 16.8 36.5zM5.8 25.5C10.5 20.8 16.2 17.8 22.2 16.3L22 7.9C13.9 9.5 6.3 13.5-9.05941988e-14 19.7L5.8 25.5zM39.2 7.9L38.9 16.3C44.9 17.8 50.6 20.8 55.3 25.5L61.1 19.7C55 13.5 47.3 9.5 39.2 7.9zM38.7 23.7L38.4 32.4C40.6 33.4 42.6 34.7 44.4 36.5L50.2 30.7C46.9 27.3 43 25 38.7 23.7z"/><path fill="#FF3C78" d="M28.6 35.6L32.6 35.6C33.6 35.6 34.5 34.8 34.5 33.7L35.5 2C35.5.9 34.7 1.77635684e-14 33.6 1.77635684e-14L27.7 1.77635684e-14C26.6 1.77635684e-14 25.8.9 25.8 2L26.7 33.7C26.7 34.8 27.6 35.6 28.6 35.6zM38 44.6314832L38 45.2547164C37.9902 45.2965441 37.979 45.3397661 37.972 45.3829881 37.8838898 46.0647847 37.6612153 46.7224866 37.3168 47.3182178 37.0262998 47.792472 36.6926286 48.2391204 36.32 48.6525224 35.8420629 49.1982609 35.3275516 49.7111276 34.78 50.1876002 34.2774 50.6226086 33.7664 51.0492514 33.24 51.4424321 32.54 51.966673 31.812 52.458846 31.098 52.96775 31.0492528 53.01075 30.9759472 53.01075 30.9272 52.96775 30.2986 52.5271646 29.6532 52.1060988 29.0414 51.641811 28.3974 51.1524265 27.7814 50.6351569 27.1598 50.1081275 26.3777497 49.4455802 25.6732905 48.6972391 25.0598 47.8773152 24.5941688 47.2577288 24.2710697 46.5437337 24.1134 45.7859286 24.0644 45.6074636 24.0322 45.4443355 24 45.274236L24 44.6314832C24.0084 44.5952325 24.0154 44.5603761 24.0238 44.5241254 24.0854 44.2452738 24.1246 43.9664223 24.2128 43.6875707 24.5081604 42.7649138 25.1461476 41.9894027 25.9964 41.5195 26.7878059 41.0592996 27.7188634 40.8975029 28.62 41.0635777 29.4989332 41.2081495 30.3004028 41.6515841 30.888 42.3184097 30.9167988 42.3577173 30.9416514 42.3997468 30.9622 42.4438929 31.1148 42.2919188 31.2282 42.1748011 31.3472 42.0646548 32.8559287 40.6606029 35.1965454 40.6526991 36.7148 42.0465294 37.2837497 42.561184 37.6858501 43.2329711 37.8698 43.9761821 37.9314 44.1895035 37.9594 44.4097962 38 44.6314832z"/></g></svg>