<svg xmlns="http://www.w3.org/2000/svg" viewBox="0 0 106 89" width="currentSize" height="currentSize"><g fill="none" fill-rule="evenodd" transform="translate(15 -4)"><path fill="#FFCBDA" d="M0 37.4421769L74.8843537 37.4421769 74.8843537 73.1562533C74.8843537 78.2464055 70.7579701 82.3727891 65.6678179 82.3727891L9.21653585 82.3727891C4.12638365 82.3727891 6.23363859e-16 78.2464055 0 73.1562533L0 37.4421769 0 37.4421769zM45.5885206 8.14634374L74.8843537 37.4421769 74.8843537 37.4421769 0 37.4421769 29.2958331 8.14634374C33.7949345 3.64724233 41.0894192 3.64724233 45.5885206 8.14634374z"/><path fill="#F5F8FF" d="M18.4330717,17.2810047 L56.4512821,17.2810047 C60.2688962,17.2810047 63.3636839,20.3757924 63.3636839,24.1934066 L63.3636839,73.7322868 L63.3636839,73.7322868 L11.5206698,73.7322868 L11.5206698,24.1934066 C11.5206698,20.3757924 14.6154575,17.2810047 18.4330717,17.2810047 Z"/><path fill="#FFEAF0" d="M0,37.4421769 L43.2025118,70.576625 L9.08815087,81.8894869 C5.46458137,83.0911199 1.55298189,81.1277524 0.351348907,77.5041829 C0.118623739,76.8023914 -2.57398819e-15,76.0678069 0,75.3284339 L0,37.4421769 L0,37.4421769 Z"/><path fill="#FFEAF0" d="M38.0182104,37.4421769 L74.8843537,70.576625 L47.5731982,81.8758735 C44.0455709,83.3353334 40.0027379,81.6587525 38.543278,78.1311252 C38.1966212,77.2932291 38.0182104,76.3953141 38.0182104,75.4885392 L38.0182104,37.4421769 L38.0182104,37.4421769 Z" transform="matrix(-1 0 0 1 112.903 0)"/><path fill="#FFCBDA" d="M46.2764988,58.6062634 L69.9775138,78.2963375 C70.9563378,79.1095144 71.0906214,80.5622181 70.2774445,81.5410421 C69.8396892,82.0679698 69.1901688,82.3727891 68.5051268,82.3727891 L6.3792269,82.3727891 C5.10668885,82.3727891 4.07509293,81.3411932 4.07509293,80.0686552 C4.07509293,79.3836132 4.37991222,78.7340928 4.90683992,78.2963375 L28.607855,58.6062634 C33.729049,54.351733 41.1553048,54.351733 46.2764988,58.6062634 Z"/><path fill="#FF3C78" fill-rule="nonzero" d="M36.6140351,49 L37.1754386,46.5903285 C34.754386,46.6018856 32.9385965,46.0500304 31.7280702,44.9347628 C30.5175439,43.8194951 29.9122807,42.267944 29.9122807,40.2801095 C29.9122807,38.8007908 30.2309942,37.468826 30.8684211,36.2842153 C31.505848,35.0996046 32.4444444,34.1605839 33.6842105,33.4671533 C34.9239766,32.7737226 36.4152047,32.4270073 38.1578947,32.4270073 C39.6081871,32.4270073 40.8421053,32.6639294 41.8596491,33.1377737 C42.877193,33.611618 43.6461988,34.2819343 44.1666667,35.1487226 C44.6871345,36.0155109 44.9473684,37.026764 44.9473684,38.1824818 C44.9473684,38.9568127 44.8421053,39.6155718 44.6315789,40.1587591 C44.4210526,40.7019465 44.1491228,41.109337 43.8157895,41.3809307 C43.4824561,41.6525243 43.128655,41.7883212 42.754386,41.7883212 C42.4736842,41.7883212 42.2660819,41.7218674 42.1315789,41.5889599 C41.997076,41.4560523 41.9298246,41.2277981 41.9298246,40.9041971 C41.9298246,40.834854 41.9415205,40.6961679 41.9649123,40.4881387 L41.9649123,40.4881387 L42.1929825,38.8759124 C42.2280702,38.6332117 42.245614,38.4020681 42.245614,38.1824818 C42.245614,37.0152068 41.8567251,36.1050791 41.0789474,35.4520985 C40.3011696,34.799118 39.2748538,34.4726277 38,34.4726277 C36.994152,34.4726277 36.0730994,34.6922141 35.2368421,35.1313869 C34.4005848,35.5705596 33.7222222,36.1802007 33.2017544,36.9603102 C32.6812865,37.7404197 32.380117,38.6274331 32.2982456,39.6213504 C32.2748538,39.921837 32.2631579,40.1472019 32.2631579,40.2974453 C32.2631579,41.1064477 32.4181287,41.8201034 32.7280702,42.4384124 C33.0380117,43.0567214 33.4707602,43.5363443 34.0263158,43.877281 C34.5818713,44.2182178 35.2163743,44.3886861 35.9298246,44.3886861 C36.7719298,44.3886861 37.4824561,44.1979927 38.0614035,43.8166058 C38.6403509,43.435219 39.122807,42.886253 39.5087719,42.169708 C39.625731,42.9209246 39.9532164,43.4785584 40.4912281,43.8426095 C41.0292398,44.2066606 41.7134503,44.3886861 42.5438596,44.3886861 C43.4912281,44.3886861 44.3859649,44.1084246 45.2280702,43.5479015 C46.0701754,42.9873783 46.7426901,42.2246046 47.245614,41.2595803 C47.748538,40.294556 48,39.2341849 48,38.0784672 C48,36.3680049 47.6169591,34.9089112 46.8508772,33.7011861 C46.0847953,32.4934611 45,31.5746655 43.5964912,30.9447993 C42.1929825,30.3149331 40.5380117,30 38.6315789,30 C36.5146199,30 34.5701754,30.4131691 32.7982456,31.2395073 C31.0263158,32.0658455 29.6169591,33.2562348 28.5701754,34.8106752 C27.5233918,36.3651156 27,38.1882603 27,40.2801095 C27,42.071472 27.3684211,43.6143552 28.1052632,44.9087591 C28.8421053,46.203163 29.9269006,47.2028589 31.3596491,47.9078467 C32.7923977,48.6128345 34.5438596,48.9768856 36.6140351,49 L36.6140351,49 Z M36.7478992,42 C36.254902,42 35.8403361,41.8290598 35.5042017,41.4871795 C35.1680672,41.1452991 35,40.6385836 35,39.967033 C35,39.3076923 35.1064426,38.7551893 35.3193277,38.3095238 C35.5322129,37.8638584 35.8067227,37.534188 36.1428571,37.3205128 C36.4789916,37.1068376 36.837535,37 37.2184874,37 C37.7338936,37 38.1596639,37.1648352 38.4957983,37.4945055 C38.8319328,37.8241758 39,38.3247863 39,38.996337 C39,39.6678877 38.8907563,40.2295482 38.6722689,40.6813187 C38.4537815,41.1330891 38.1736695,41.465812 37.8319328,41.6794872 C37.4901961,41.8931624 37.1288515,42 36.7478992,42 Z"/><g transform="rotate(45 -19.217 119.846)"><path fill="#9645D3" d="M15.6351947 28.6047452L17.9798435 28.6047452C19.5625159 28.6047452 20.8455254 29.8877547 20.8455254 31.4704271 20.8455254 33.0530994 19.5625159 34.3361089 17.9798435 34.3361089L15.6351947 34.3361089 15.6351947 34.3361089 15.6351947 28.6047452zM15.6243493 37.1590292L17.9689981 37.1590292C19.5516704 37.1590292 20.8346799 38.4420387 20.8346799 40.024711 20.8346799 41.6073834 19.5516704 42.8903929 17.9689981 42.8903929L15.6243493 42.8903929 15.6243493 42.8903929 15.6243493 37.1590292z"/><g transform="translate(8.026 17.403)"><path fill="#CDA8EA" d="M0,-4.7241137e-13 L9.11807858,-4.7241137e-13 L9.11807858,25.1398452 C9.11807858,27.6577331 7.07692716,29.6988845 4.55903929,29.6988845 C2.04115142,29.6988845 -1.00802767e-15,27.6577331 0,25.1398452 L0,-4.7241137e-13 L0,-4.7241137e-13 Z"/><path fill="#AD6EDD" d="M9.11775107,5.54485712 L9.11807858,25.1398452 C9.11807858,27.1810868 7.7765768,28.9090038 5.9271124,29.4900571 L5.92675107,5.54485712 L9.11775107,5.54485712 Z"/></g><circle cx="12.158" cy="12.322" r="12" fill="#CDA8EA"/><circle cx="12.158" cy="12.322" r="3" fill="#FFFFFF"/></g></g></svg>