<svg xmlns="http://www.w3.org/2000/svg" viewBox="0 0 34 25" width="currentSize" height="currentSize"><g fill="none" fill-rule="evenodd"><path fill="#FFFFFF" fill-rule="nonzero" d="M4.39393939,1 L29.6060606,1 C31.4804816,1 33,2.50171157 33,4.35416667 L33,20.6458333 C33,22.4982884 31.4804816,24 29.6060606,24 L4.39393939,24 C2.51951842,24 1,22.4982884 1,20.6458333 L1,4.35416667 C1,2.50171157 2.51951842,1 4.39393939,1 Z"/><path fill="#D9D9D9" fill-rule="nonzero" d="M29.6285714,0 L4.37142857,0 C1.95715524,0 0,1.93722945 0,4.32692308 L0,20.6730769 C0,23.0627706 1.95715524,25 4.37142857,25 L29.6285714,25 C32.0428448,25 34,23.0627706 34,20.6730769 L34,4.32692308 C34,1.93722945 32.0428448,0 29.6285714,0 Z M4.39393939,1 L29.6060606,1 C31.4804816,1 33,2.50171157 33,4.35416667 L33,20.6458333 C33,22.4982884 31.4804816,24 29.6060606,24 L4.39393939,24 C2.51951842,24 1,22.4982884 1,20.6458333 L1,4.35416667 C1,2.50171157 2.51951842,1 4.39393939,1 Z"/><g fill-rule="nonzero" transform="translate(5 4.5)"><path fill="#01798A" d="M22.7868852,0.0983606557 L16.8918033,0.0983606557 L16.8918033,0.0983606557 L16.8786885,0.0983606557 C16.0721311,0.124590164 15.0622951,0.773770492 14.8786885,1.57377049 L12.0852459,13.9016393 C11.9016393,14.7081967 12.4,15.3704918 13.2065574,15.3770492 L19.3967213,15.3770492 C20.1901639,15.3377049 20.957377,14.695082 21.1409836,13.9016393 L23.9278689,1.57377049 C24.1180328,0.760655738 23.6065574,0.0983606557 22.7868852,0.0983606557"/><path fill="#024381" d="M12.0852459,13.9016393 L14.8786885,1.57377049 C15.0622951,0.773770492 16.0721311,0.124590164 16.8786885,0.0983606557 L14.5377049,0.0983606557 L10.3147541,0.0983606557 C9.50163934,0.118032787 8.47868852,0.767213115 8.29508197,1.57377049 L5.50819672,13.9016393 C5.32459016,14.7081967 5.82295082,15.3704918 6.6295082,15.3770492 L13.2131148,15.3770492 C12.4065574,15.3704918 11.9016393,14.7147541 12.0852459,13.9016393"/><path fill="#DD0228" d="M5.50819672,13.9016393 L8.29508197,1.57377049 C8.47868852,0.767213115 9.50163934,0.11147541 10.3147541,0.0983606557 L4.90491803,0.0983606557 C4.0852459,0.0983606557 3.04262295,0.760655738 2.85245902,1.58032787 L0.0655737705,13.9016393 C0.0459016393,13.9737705 0.0393442623,14.052459 0.0327868852,14.1245902 L0.0327868852,14.3540984 C0.0852459016,14.9442623 0.537704918,15.3704918 1.18688525,15.3836066 L6.6295082,15.3836066 C5.82295082,15.3704918 5.32459016,14.7147541 5.50819672,13.9016393"/><path fill="#FFFFFF" d="M10.4262295 9.08196721L10.5311475 9.08196721C10.6229508 9.08196721 10.6885246 9.04918033 10.7213115 8.99016393L10.9901639 8.59016393 11.704918 8.59016393 11.5540984 8.85245902 12.4065574 8.85245902 12.295082 9.25245902 11.2786885 9.25245902C11.1606557 9.4295082 11.0163934 9.50819672 10.8459016 9.50163934L10.3147541 9.50163934 10.4262295 9.08196721M10.3081967 9.65901639L12.1770492 9.65901639 12.0590164 10.0918033 11.304918 10.0918033 11.1868852 10.5114754 11.9213115 10.5114754 11.8032787 10.9508197 11.0688525 10.9508197 10.8983607 11.5737705C10.8590164 11.6786885 10.9114754 11.7245902 11.0622951 11.7114754L11.6590164 11.7114754 11.547541 12.1180328 10.4 12.1180328C10.1836066 12.1180328 10.1114754 11.9934426 10.1770492 11.7442623L10.3934426 10.9508197 9.92786885 10.9508197 10.0459016 10.5180328 10.5114754 10.5180328 10.6229508 10.0983607 10.1770492 10.0983607 10.3081967 9.65901639zM13.2983607 8.58360656L13.2721311 8.83934426C13.2721311 8.83934426 13.6262295 8.57704918 13.947541 8.57704918L15.1344262 8.57704918 14.6819672 10.2163934C14.642623 10.4065574 14.4852459 10.4983607 14.1967213 10.4983607L12.852459 10.4983607 12.5377049 11.652459C12.5180328 11.7114754 12.5442623 11.7442623 12.6098361 11.7442623L12.8721311 11.7442623 12.7737705 12.104918 12.104918 12.104918C11.8491803 12.104918 11.7377049 12.0262295 11.7836066 11.8688525L12.6754098 8.59016393 13.2983607 8.59016393 13.2983607 8.58360656zM14.3016393 9.04918033L13.2459016 9.04918033 13.1213115 9.48852459C13.1213115 9.48852459 13.2983607 9.36393443 13.5934426 9.35737705 13.8885246 9.35081967 14.2229508 9.35737705 14.2229508 9.35737705L14.3016393 9.04918033zM13.9147541 10.0786885C13.9934426 10.0918033 14.0393443 10.0590164 14.0393443 9.98688525L14.104918 9.75081967 13.0491803 9.75081967 12.957377 10.0786885 13.9147541 10.0786885zM13.2 10.6032787L13.8098361 10.6032787 13.7967213 10.8655738 13.9606557 10.8655738C14.0459016 10.8655738 14.0852459 10.8393443 14.0852459 10.7868852L14.1311475 10.6163934 14.6360656 10.6163934 14.5704918 10.8655738C14.5114754 11.0754098 14.3606557 11.1803279 14.1114754 11.1934426L13.7836066 11.1934426 13.7836066 11.6459016C13.7770492 11.7180328 13.842623 11.757377 13.9803279 11.757377L14.2885246 11.757377 14.1901639 12.1180328 13.4557377 12.1180328C13.252459 12.1245902 13.147541 12.0327869 13.1540984 11.8229508L13.2 10.6032787M5.80327869 6.4C5.71803279 6.80655738 5.52786885 7.1147541 5.23278689 7.33770492 4.93770492 7.55409836 4.55737705 7.66557377 4.09180328 7.66557377 3.65245902 7.66557377 3.33114754 7.55409836 3.12786885 7.33114754 2.98360656 7.17377049 2.91803279 6.9704918 2.91803279 6.72786885 2.91803279 6.6295082 2.93114754 6.51803279 2.95737705 6.4L3.4557377 4.00655738 4.19672131 4.00655738 3.70491803 6.37377049C3.69180328 6.43934426 3.6852459 6.49836066 3.6852459 6.55737705 3.6852459 6.67540984 3.71147541 6.78032787 3.77704918 6.85245902 3.86885246 6.9704918 4.01311475 7.02295082 4.20983607 7.02295082 4.43934426 7.02295082 4.6295082 6.96393443 4.78032787 6.85245902 4.92459016 6.74098361 5.02295082 6.57704918 5.06885246 6.37377049L5.56065574 4.00655738 6.30819672 4.00655738 5.80327869 6.4M8.95081967 5.46229508L9.54098361 5.46229508 9.08196721 7.6 8.49836066 7.6 8.95081967 5.46229508M9.14098361 4.68196721L9.73114754 4.68196721 9.61967213 5.2 9.0295082 5.2 9.14098361 4.68196721M10.0590164 7.43606557C9.90819672 7.29180328 9.8295082 7.08852459 9.8295082 6.83934426 9.8295082 6.79344262 9.8295082 6.74754098 9.83606557 6.69508197 9.84262295 6.64262295 9.84918033 6.59016393 9.8557377 6.53770492 9.92786885 6.19016393 10.0721311 5.9147541 10.3016393 5.71147541 10.5311475 5.50819672 10.8065574 5.40327869 11.1278689 5.40327869 11.3901639 5.40327869 11.6 5.47540984 11.7508197 5.62622951 11.9016393 5.77704918 11.9803279 5.97377049 11.9803279 6.2295082 11.9803279 6.27540984 11.9737705 6.32131148 11.9737705 6.38032787 11.9672131 6.43278689 11.9606557 6.4852459 11.947541 6.53770492 11.8819672 6.87868852 11.7311475 7.15409836 11.5016393 7.35081967 11.2721311 7.55409836 10.9967213 7.65245902 10.6819672 7.65245902 10.4196721 7.65245902 10.2098361 7.58032787 10.0590164 7.43606557M11.1803279 7.00983607C11.2852459 6.89836066 11.357377 6.72786885 11.4032787 6.49836066 11.4098361 6.46557377 11.4163934 6.42622951 11.4229508 6.38688525 11.4295082 6.34754098 11.4295082 6.3147541 11.4295082 6.28852459 11.4295082 6.15737705 11.3967213 6.05245902 11.3311475 5.98032787 11.2655738 5.90819672 11.1672131 5.86885246 11.0491803 5.86885246 10.8852459 5.86885246 10.7540984 5.92786885 10.6491803 6.03934426 10.5442623 6.15081967 10.4721311 6.32786885 10.4262295 6.55737705 10.4196721 6.59016393 10.4131148 6.6295082 10.4065574 6.66229508 10.4 6.69508197 10.4 6.72786885 10.4 6.76065574 10.4 6.89180328 10.4327869 6.99016393 10.4983607 7.06229508 10.5639344 7.13442623 10.6622951 7.16721311 10.7868852 7.16721311 10.9442623 7.18032787 11.0754098 7.12131148 11.1803279 7.00983607"/><polyline fill="#E02F41" points="16.892 .117 14.531 .107 16.879 .117 16.892 .117"/><path fill="#2E4F7D" d="M14.5311475,0.109016393 L10.3409836,0.109016393 C10.3278689,0.109016393 10.3213115,0.109016393 10.3081967,0.109016393 L14.5311475,0.109016393"/><path fill="#FFFFFF" d="M15.7967213 9.10163934L15.9409836 8.60327869 16.6557377 8.60327869 16.6229508 8.78688525C16.6229508 8.78688525 16.9901639 8.60327869 17.252459 8.60327869 17.5147541 8.60327869 18.1377049 8.60327869 18.1377049 8.60327869L18 9.10163934 17.8622951 9.10163934 17.1934426 11.4491803 17.3311475 11.4491803 17.2 11.9147541 17.0622951 11.9147541 17.0032787 12.1180328 16.3081967 12.1180328 16.3672131 11.9147541 14.9967213 11.9147541 15.1278689 11.4491803 15.2655738 11.4491803 15.9344262 9.10163934 15.7967213 9.10163934M16.5704918 9.10163934L16.3868852 9.73770492C16.3868852 9.73770492 16.7016393 9.61967213 16.9639344 9.58688525 17.0229508 9.36393443 17.1016393 9.10163934 17.1016393 9.10163934L16.5704918 9.10163934zM16.3016393 10.0327869L16.1180328 10.7016393C16.1180328 10.7016393 16.4655738 10.5311475 16.7016393 10.5180328 16.7672131 10.2622951 16.8393443 10.0393443 16.8393443 10.0393443L16.3016393 10.0393443 16.3016393 10.0327869zM16.4327869 11.4491803L16.5704918 10.9639344 16.0393443 10.9639344 15.9016393 11.4491803 16.4327869 11.4491803zM18.1639344 8.5704918L18.8393443 8.5704918 18.8655738 8.81967213C18.8590164 8.8852459 18.8983607 8.91147541 18.9770492 8.91147541L19.095082 8.91147541 18.9770492 9.33114754 18.4852459 9.33114754C18.295082 9.33770492 18.1967213 9.26557377 18.1901639 9.1147541L18.1639344 8.5704918zM17.9672131 9.47540984L20.1442623 9.47540984 20.0131148 9.92786885 19.3180328 9.92786885 19.2 10.347541 19.895082 10.347541 19.7639344 10.8 18.9901639 10.8 18.8131148 11.0622951 19.1934426 11.0622951 19.2786885 11.5934426C19.2918033 11.6459016 19.3377049 11.6721311 19.4163934 11.6721311L19.5344262 11.6721311 19.4098361 12.104918 18.9967213 12.104918C18.7803279 12.1180328 18.6688525 12.0459016 18.6622951 11.8885246L18.5639344 11.4032787 18.2229508 11.9147541C18.1442623 12.0590164 18.0196721 12.1245902 17.8491803 12.1180328L17.2131148 12.1180328 17.3377049 11.6852459 17.5344262 11.6852459C17.6131148 11.6852459 17.6852459 11.6459016 17.7442623 11.5737705L18.2819672 10.7934426 17.5868852 10.7934426 17.7180328 10.3409836 18.4721311 10.3409836 18.5901639 9.92131148 17.8360656 9.92131148 17.9672131 9.47540984M6.49836066 5.4557377L7.0295082 5.4557377 6.9704918 5.76393443 7.04918033 5.67868852C7.21967213 5.49508197 7.4295082 5.40327869 7.67213115 5.40327869 7.89508197 5.40327869 8.05245902 5.46885246 8.15737705 5.6 8.2557377 5.73114754 8.28196721 5.90819672 8.23606557 6.1442623L7.94754098 7.6 7.40327869 7.6 7.66557377 6.28196721C7.69180328 6.1442623 7.6852459 6.04590164 7.64590164 5.98032787 7.60655738 5.9147541 7.52786885 5.88196721 7.40983607 5.88196721 7.27213115 5.88196721 7.15409836 5.92786885 7.0557377 6.01311475 6.95737705 6.09836066 6.89836066 6.22295082 6.86557377 6.37377049L6.62295082 7.6 6.07868852 7.6 6.49836066 5.4557377M12.5639344 5.4557377L13.095082 5.4557377 13.0360656 5.76393443 13.1081967 5.67868852C13.2786885 5.49508197 13.4885246 5.40327869 13.7377049 5.40327869 13.9606557 5.40327869 14.1245902 5.46885246 14.2229508 5.6 14.3213115 5.73114754 14.347541 5.90819672 14.3016393 6.1442623L14.0131148 7.6 13.4688525 7.6 13.7311475 6.28196721C13.757377 6.1442623 13.7508197 6.04590164 13.7114754 5.98032787 13.6655738 5.9147541 13.5934426 5.88196721 13.4754098 5.88196721 13.3377049 5.88196721 13.2196721 5.92786885 13.1213115 6.01311475 13.0229508 6.09836066 12.9639344 6.22295082 12.9311475 6.37377049L12.6885246 7.6 12.1442623 7.6 12.5639344 5.4557377M15.1868852 4.13770492L16.7213115 4.13770492C17.0163934 4.13770492 17.2459016 4.20327869 17.4032787 4.33442623 17.5606557 4.46557377 17.6393443 4.6557377 17.6393443 4.90491803L17.6393443 4.91147541C17.6393443 4.95737705 17.6393443 5.00983607 17.6327869 5.06885246 17.6262295 5.12786885 17.6131148 5.18688525 17.6 5.24590164 17.5344262 5.57377049 17.3770492 5.84262295 17.1344262 6.03934426 16.8918033 6.24262295 16.6032787 6.34098361 16.2688525 6.34098361L15.442623 6.34098361 15.1868852 7.59344262 14.4721311 7.59344262 15.1868852 4.13770492M15.5672131 5.7442623L16.2491803 5.7442623C16.4262295 5.7442623 16.5704918 5.70491803 16.6688525 5.61967213 16.7737705 5.53442623 16.8393443 5.40983607 16.8786885 5.23934426 16.8852459 5.20655738 16.8852459 5.18032787 16.8918033 5.15409836 16.8918033 5.12786885 16.8983607 5.10163934 16.8983607 5.08196721 16.8983607 4.95737705 16.852459 4.87213115 16.7672131 4.81311475 16.6819672 4.75409836 16.5442623 4.72786885 16.3540984 4.72786885L15.7704918 4.72786885 15.5672131 5.7442623M20.8393443 8.00655738C20.6163934 8.4852459 20.4 8.76721311 20.2688525 8.89836066 20.1442623 9.0295082 19.8885246 9.32459016 19.2852459 9.30491803L19.3377049 8.93770492C19.842623 8.78032787 20.1180328 8.07868852 20.2754098 7.76393443L20.0918033 5.46229508 20.4852459 5.4557377 20.8131148 5.4557377 20.8459016 6.89836066 21.4622951 5.4557377 22.0852459 5.4557377 20.8393443 8.00655738M19.0885246 5.63278689L18.8393443 5.80327869C18.5770492 5.6 18.3409836 5.47540984 17.8885246 5.6852459 17.2655738 5.97377049 16.747541 8.19016393 18.4590164 7.46229508L18.557377 7.58032787 19.2327869 7.6 19.6786885 5.58688525 19.0885246 5.63278689M18.7016393 6.73442623C18.5901639 7.0557377 18.3540984 7.26557377 18.1639344 7.20655738 17.9737705 7.14754098 17.9081967 6.83934426 18.0196721 6.51803279 18.1311475 6.19672131 18.3737705 5.98688525 18.557377 6.04590164 18.747541 6.10491803 18.8131148 6.41311475 18.7016393 6.73442623"/></g></g></svg>