<svg xmlns="http://www.w3.org/2000/svg" viewBox="0 0 34 25" width="currentSize" height="currentSize"><g fill="none" fill-rule="evenodd"><path fill="#FFFFFF" fill-rule="nonzero" d="M4.39393939,1 L29.6060606,1 C31.4804816,1 33,2.50171157 33,4.35416667 L33,20.6458333 C33,22.4982884 31.4804816,24 29.6060606,24 L4.39393939,24 C2.51951842,24 1,22.4982884 1,20.6458333 L1,4.35416667 C1,2.50171157 2.51951842,1 4.39393939,1 Z"/><path fill="#D9D9D9" fill-rule="nonzero" d="M29.6285714,0 L4.37142857,0 C1.95715524,0 0,1.93722945 0,4.32692308 L0,20.6730769 C0,23.0627706 1.95715524,25 4.37142857,25 L29.6285714,25 C32.0428448,25 34,23.0627706 34,20.6730769 L34,4.32692308 C34,1.93722945 32.0428448,0 29.6285714,0 Z M4.39393939,1 L29.6060606,1 C31.4804816,1 33,2.50171157 33,4.35416667 L33,20.6458333 C33,22.4982884 31.4804816,24 29.6060606,24 L4.39393939,24 C2.51951842,24 1,22.4982884 1,20.6458333 L1,4.35416667 C1,2.50171157 2.51951842,1 4.39393939,1 Z"/><path fill="#1A1F71" d="M12.4122,2.5026 C12.39852,3.58218 13.37436,4.18464 14.10942,4.54284 C14.8647,4.9104 15.11838,5.14608 15.1155,5.4747 C15.10974,5.97774 14.51298,6.19968 13.9545,6.20832 C12.9801,6.22344 12.41364,5.94528 11.96322,5.73486 L11.61228,7.37724 C12.06414,7.58556 12.90084,7.76718 13.76856,7.7751 C15.8052,7.7751 17.13768,6.76974 17.14494,5.21094 C17.15286,3.23268 14.40852,3.12312 14.42724,2.23884 C14.43372,1.97076 14.68956,1.68462 15.25026,1.61184 C15.5277,1.57512 16.29378,1.54698 17.16222,1.94694 L17.50308,0.3579 C17.0361,0.1878 16.43574,0.0249 15.68844,0.0249 C13.77144,0.0249 12.42306,1.04394 12.4122,2.5026 M20.7786,0.16182 C20.40672,0.16182 20.09322,0.37878 19.95342,0.71172 L17.04402,7.65834 L19.07922,7.65834 L19.48422,6.5391 L21.97128,6.5391 L22.20624,7.65834 L24,7.65834 L22.43466,0.16182 L20.7786,0.16182 Z M21.06324,2.18694 L21.65058,5.0019 L20.04204,5.0019 L21.06324,2.18694 Z M9.94464,0.16182 L8.34042,7.65834 L10.27974,7.65834 L11.88324,0.16182 L9.94464,0.16182 Z M7.07562,0.16182 L5.05698,5.26422 L4.24044,0.92574 C4.14462,0.44148 3.76626,0.16182 3.34608,0.16182 L0.04614,0.16182 L-3.41060513e-15,0.3795 C0.67746,0.5265 1.44714,0.76362 1.9134,1.0173 C2.19876,1.17222 2.28024,1.3077 2.3739,1.67598 L3.92046,7.65834 L5.97012,7.65834 L9.11226,0.16182 L7.07562,0.16182 Z" transform="translate(5 9)"/></g></svg>