<svg xmlns="http://www.w3.org/2000/svg" viewBox="0 0 24 24" width="currentSize" height="currentSize"><path fill="#00C800" d="M7.34557231,20.458431 C7.26747466,20.5010024 7.18937701,20.5496554 7.11728687,20.5922268 C6.89500894,20.7260226 6.6667235,20.8537367 6.44444557,20.9875325 C6.34832539,21.0483488 6.24619769,21.1030834 6.1500775,21.1638997 C6.02391976,21.2368792 5.89175451,21.3098587 5.76559676,21.3889199 C5.53130381,21.5227157 5.30301837,21.6686747 5.06872542,21.7903073 C4.9005151,21.826797 4.70827473,21.7598991 4.63017708,21.5956952 C4.55808694,21.4618994 4.60013952,21.3098587 4.6421921,21.176063 C4.70226721,20.9449611 4.76234233,20.7199409 4.82241745,20.4888391 C4.88249256,20.2577373 4.94256768,20.0327171 5.00264279,19.8016153 C5.03868786,19.6799828 5.06872542,19.5522686 5.09876298,19.4245544 C5.12880054,19.3090035 5.16484561,19.1995342 5.18286814,19.0779017 C5.20089068,18.9197794 5.16484561,18.7616571 5.09275547,18.6217797 C5.03268035,18.5244737 4.96059021,18.4454125 4.87047754,18.3785146 C4.70827473,18.2568821 4.55207943,18.1413312 4.39588412,18.013617 C4.27573389,17.916311 4.16159117,17.8129233 4.04144094,17.7095357 C3.93330573,17.6122297 3.82517053,17.5149236 3.72304283,17.4176176 C3.58487006,17.2838218 3.45270481,17.1439444 3.32654707,17.004067 C3.22441937,16.8945977 3.12229167,16.7790468 3.02617149,16.6634959 C2.93605881,16.5540266 2.84594614,16.4384757 2.76184098,16.3290064 C2.62366821,16.1465576 2.49150296,15.9519455 2.3593377,15.7573335 C2.33530766,15.7208437 2.31127761,15.6782723 2.28124005,15.6357009 C2.14306729,15.4167624 2.01690954,15.1856606 1.89675931,14.9545587 C1.81265415,14.7903548 1.7345565,14.6200693 1.66246636,14.4558654 C1.63843631,14.3889675 1.60839876,14.3281512 1.58436871,14.2612533 C1.48824852,14.0301515 1.41015087,13.792968 1.33806074,13.549703 C1.27197811,13.3246828 1.2179105,13.1057442 1.16985041,12.8746424 C1.12179032,12.6435406 1.08574525,12.4063571 1.05570769,12.1752553 C0.971602529,11.4819499 0.983617552,10.7825628 1.08574525,10.0892573 C1.12179032,9.86423712 1.15783539,9.63921693 1.21190299,9.42027837 C1.2659706,9.18917655 1.32604571,8.95807473 1.40414336,8.73305454 C1.4762335,8.4958711 1.57235369,8.26476928 1.66246636,8.03974909 L1.66847387,8.02150421 C1.77060157,7.79040239 1.87873678,7.5653822 1.99888701,7.34036201 C2.26321752,6.85383186 2.56960061,6.39162823 2.91803628,5.95983272 C2.96008886,5.91117971 2.99613393,5.8625267 3.03818651,5.81387368 C3.19438181,5.63142488 3.35658462,5.44897607 3.51878744,5.27869052 C3.57886255,5.21787426 3.63893767,5.15705799 3.70502029,5.09016009 C3.87923813,4.91987454 4.05946348,4.75567062 4.23968882,4.59754832 C4.29375643,4.54889531 4.34782403,4.50632392 4.40189164,4.46375253 C4.82842496,4.11709981 5.27898833,3.80085521 5.75358174,3.52110038 C5.9398146,3.4116311 6.12604746,3.30824344 6.31828783,3.20485579 C6.36034041,3.18052928 6.4084005,3.1622844 6.45045308,3.13795789 C6.67273101,3.02848861 6.90101645,2.91901933 7.12930189,2.8217133 C7.57385775,2.63318287 8.03042863,2.46897895 8.49300702,2.32910153 C8.73931499,2.25612201 8.98562297,2.18922411 9.23193094,2.13448947 C9.43618633,2.08583646 9.64644924,2.04326507 9.85070463,2.00677531 C10.1030201,1.9581223 10.3553356,1.92163254 10.6076511,1.8912244 C11.0221694,1.84257139 11.4366877,1.81216325 11.851206,1.8 L12.5060247,1.8 C12.9926332,1.81216325 13.4732341,1.84865301 13.9598425,1.91555091 C14.188128,1.94595904 14.4164134,1.9824488 14.6386914,2.02502019 C14.8669768,2.06759158 15.0952622,2.11624459 15.3175402,2.17097923 C15.5458256,2.22571388 15.774111,2.28653014 16.0023965,2.35950966 C16.4709824,2.49938708 16.9275533,2.67575426 17.3781166,2.87036632 C17.6064021,2.96767234 17.82868,3.08322325 18.0509579,3.19269254 L18.0689805,3.19877416 C18.2912584,3.3204067 18.5195438,3.44203923 18.7358142,3.57583502 C19.2164152,3.86775311 19.6729861,4.19616096 20.1055269,4.56105856 C20.1175419,4.56714019 20.1295569,4.58538507 20.141572,4.5914667 C20.3578424,4.77999713 20.5681053,4.96852756 20.7723607,5.17530287 C20.8084057,5.21179263 20.8384433,5.24220076 20.8744884,5.27869052 C21.0366912,5.44289445 21.186879,5.61926162 21.3370668,5.7956288 C21.2469541,5.83211856 21.1568414,5.87468995 21.0727362,5.91726134 C20.9706085,5.95983272 20.8684809,6.00848574 20.7663532,6.05105713 C20.5440752,6.14836316 20.3217973,6.25175081 20.0995194,6.35513847 C19.9012715,6.44636287 19.7030236,6.53150564 19.5047757,6.62273004 C19.4747382,6.6348933 19.4447006,6.64705655 19.4206706,6.65921981 C19.1923851,6.76260746 18.9640997,6.86599512 18.7358142,6.96938277 C18.2792434,7.17615808 17.8226725,7.38293339 17.3661016,7.5897087 C16.9155382,7.79040239 16.4589674,7.9971777 16.008404,8.20395301 C15.7801186,8.30734067 15.5518331,8.41072832 15.3235477,8.51411598 C15.1793674,8.57493224 15.0411946,8.64183014 14.8970144,8.70872803 C14.8069017,8.74521779 14.7227965,8.78778918 14.6326838,8.82427894 C14.4043984,8.9276666 14.1701055,9.03105425 13.94182,9.13444191 C13.7555872,9.21958468 13.5693543,9.30472746 13.3831214,9.38987023 C13.3470764,9.40811511 13.3050238,9.42636 13.2689787,9.43852325 C13.0406933,9.5419109 12.8124078,9.64529856 12.5841224,9.74868622 C12.1275515,9.95546153 11.6709806,10.1622368 11.2144098,10.3690121 C10.8659741,10.5271344 10.5175384,10.6852567 10.1691027,10.843379 C10.066975,10.8920321 9.95883984,10.9346034 9.85070463,10.9589299 C9.62241919,10.9954197 9.38812624,10.9710932 9.17786334,10.8737872 C9.12980324,10.8494607 9.07573564,10.8190525 9.02767555,10.7886444 C8.85345771,10.6609302 8.67323236,10.5332161 8.49901453,10.4055019 C8.35483425,10.3021143 8.21065397,10.1987266 8.06647369,10.0953389 C7.98236853,10.0345227 7.89225586,9.96762478 7.8081507,9.90680851 C7.58587277,9.74868622 7.36359484,9.58448229 7.14732442,9.42636 C7.14131691,9.42636 7.1353094,9.42027837 7.12930189,9.41419674 C6.96709908,9.29864583 6.81090378,9.18309492 6.64870096,9.06754401 C6.58862585,9.02497263 6.51653571,8.99456449 6.44444557,8.97631961 C6.20414511,8.96415636 5.9938822,9.19525818 6.04794981,9.43852325 C6.24019018,9.89464526 6.45646059,10.3446856 6.65470848,10.8008076 C6.76284368,11.0379911 6.86497138,11.2751745 6.97310659,11.512358 C7.01515917,11.6035824 7.05721175,11.7008884 7.09926433,11.7921128 C7.15933945,11.9259086 7.21941456,12.0597044 7.27948968,12.1935002 C7.38161738,12.4185204 7.48374507,12.6496222 7.58587277,12.8746424 C7.6519554,13.0206014 7.71803802,13.1665605 7.78412065,13.3125195 C7.82016572,13.3976623 7.8622183,13.4828051 7.89826337,13.5679478 C8.0184136,13.8051313 8.09651125,14.0727229 8.25871407,14.2916614 C8.32479669,14.3524777 8.39688683,14.4072123 8.47498448,14.4558654 C8.70326992,14.5714163 8.97961545,14.5531714 9.20189338,14.4254572 C9.27999103,14.3768042 9.35808868,14.3281512 9.43618633,14.2855798 C9.58036661,14.2065187 9.72454689,14.1213759 9.86872717,14.0362331 C10.325298,13.7686415 10.7818689,13.5010499 11.2384398,13.2334584 C11.4366877,13.1179075 11.6289281,13.0023565 11.8271759,12.8868056 C11.8572135,12.8685608 11.8932586,12.8503159 11.9232961,12.832071 C12.1515816,12.6982752 12.379867,12.5644794 12.6021449,12.4367653 C12.7343102,12.3637857 12.8604679,12.2847246 12.9866257,12.2117451 C13.0887534,12.1509288 13.1848736,12.0961942 13.2870012,12.0353779 C13.5152867,11.9015821 13.7375646,11.7677863 13.9658501,11.6400721 C14.0379402,11.5975008 14.1040228,11.561011 14.1701055,11.5184396 C14.3323083,11.4272152 14.4885036,11.3299092 14.6507064,11.2386848 C15.1072773,10.9710932 15.5638481,10.7095832 16.020419,10.4419917 C16.1946369,10.338604 16.3688547,10.241298 16.5430725,10.1379103 C16.5971401,10.1075022 16.6452002,10.0770941 16.6992678,10.0466859 C16.9275533,9.91289014 17.1558387,9.77909435 17.3841241,9.64529856 C17.5042744,9.57840067 17.6184171,9.50542114 17.7385673,9.43852325 C17.8467025,9.37770698 17.9548377,9.31689071 18.0629729,9.24999282 C18.5255513,8.98240124 18.9821222,8.70872803 19.4447006,8.44113646 C19.660971,8.31342229 19.8772414,8.19178976 20.0935119,8.06407559 C20.1115344,8.05191234 20.1295569,8.04583071 20.1475795,8.03366746 C20.3698574,7.9059533 20.5981428,7.77215751 20.8204208,7.63836172 C20.9826236,7.54713732 21.1388189,7.44983129 21.3010217,7.35860689 C21.3671043,7.32211713 21.4271794,7.28562737 21.4932621,7.2491376 C21.7095325,7.12750507 21.9197954,6.99370928 22.1420733,6.88424 C22.220171,7.04844392 22.3222987,7.19440296 22.4003963,7.35860689 C22.5205465,7.5897087 22.6406968,7.82689215 22.7428245,8.06407559 C22.772862,8.13097349 22.7968921,8.20395301 22.8269296,8.27085091 C22.8930123,8.4289732 22.9470799,8.59317713 23.0011475,8.75738105 C23.0732376,8.97631961 23.1333127,9.2013398 23.1873803,9.42636 C23.2414479,9.65746181 23.2835005,9.88856363 23.3195456,10.1196654 C23.3495831,10.3507673 23.3736132,10.5757875 23.3856282,10.8068893 C23.3976432,11.0379911 23.4036507,11.2690929 23.3976432,11.5001947 C23.3916357,11.7312965 23.3736132,11.9623984 23.3495831,12.1935002 C23.3255531,12.424602 23.2835005,12.6496222 23.2414479,12.880724 C23.1933878,13.1118258 23.1393202,13.336846 23.0732376,13.5618662 C22.9290573,14.0423147 22.7428245,14.5106 22.514539,14.9606404 C22.268231,15.4471705 21.9798705,15.9093742 21.6494574,16.3411697 C21.5893822,16.4202308 21.5293071,16.4932103 21.469232,16.5661898 C21.3430743,16.7182305 21.2169165,16.8702712 21.0847513,17.0162302 C20.9886311,17.1196179 20.8985184,17.2169239 20.8023982,17.3142299 C20.6582179,17.4541074 20.5140377,17.5939848 20.3638499,17.7277806 C20.2857522,17.8007601 20.2076546,17.867658 20.1295569,17.9345559 C19.931309,18.0987598 19.7330612,18.2568821 19.5227983,18.4089228 C19.4927607,18.4332493 19.4627231,18.4514942 19.4326856,18.4758207 C19.2104077,18.633943 18.9821222,18.7859836 18.7418218,18.9319427 C18.6517091,18.9866773 18.5555889,19.041412 18.4654762,19.0961466 C18.333311,19.1691261 18.2011457,19.2421056 18.0689805,19.3150852 C17.8467025,19.4306361 17.6184171,19.5401053 17.3841241,19.643493 C17.2759889,19.692146 17.1678537,19.7347174 17.0597185,19.7833704 C16.9395683,19.8320234 16.8134105,19.8806764 16.6872528,19.9232478 C16.4649749,20.0083906 16.2426969,20.0813701 16.020419,20.148268 C15.7861261,20.2212475 15.5518331,20.2820638 15.3115326,20.3428801 C15.1072773,20.3915331 14.9030219,20.4341045 14.704774,20.4766759 C14.692759,20.4766759 14.6687289,20.4827575 14.6567139,20.4827575 C14.4284284,20.5253289 14.200143,20.5618186 13.9718576,20.5922268 C13.7435721,20.6226349 13.5152867,20.6469614 13.2870012,20.6652063 C13.0587158,20.6834512 12.8304304,20.6956144 12.6021449,20.7016961 C12.3738595,20.7077777 12.1455741,20.7077777 11.9172886,20.7016961 C11.6890032,20.6956144 11.4607177,20.6834512 11.2324323,20.6712879 C11.0041469,20.6530431 10.7758614,20.6347982 10.547576,20.60439 C10.3433206,20.5800635 10.1390652,20.5435738 9.93480979,20.5131656 C9.86271965,20.5010024 9.79062952,20.4827575 9.71253187,20.4766759 C9.53831403,20.4401861 9.35808868,20.4036964 9.18387085,20.361125 C8.9495779,20.3063903 8.72129246,20.2455741 8.49300702,20.1786762 C8.27072909,20.1178599 8.02442111,20.1361048 7.8081507,20.2212475"/></svg>