<svg xmlns="http://www.w3.org/2000/svg" xmlns:xlink="http://www.w3.org/1999/xlink" viewBox="0 0 24 24" width="currentSize" height="currentSize"><defs><linearGradient id="app-icon-a" x1="50%" x2="50%" y1="0%" y2="100%"><stop offset="0%" stop-color="#25CF43"/><stop offset="100%" stop-color="#61FD7D"/></linearGradient><path id="app-icon-b" d="M5.46761048,23.9538051 C4.93325152,23.9348103 4.2445541,23.8930051 3.93152847,23.8298256 L3.93152847,23.8298256 C3.45370284,23.7333333 3.00246182,23.5870359 2.62720029,23.3957744 L2.62720029,23.3957744 C2.18629774,23.1710769 1.79113878,22.8843898 1.44992853,22.5437129 L1.44992853,22.5437129 C1.10793879,22.2023795 0.820102902,21.8068513 0.594502908,21.3652924 L0.594502908,21.3652924 C0.403774707,20.9920411 0.257559326,20.5435488 0.160656765,20.0684309 L0.160656765,20.0684309 C0.0962054843,19.7522463 0.0535798443,19.0584206 0.0342567679,18.5206155 L0.0342567679,18.5206155 C0.0264208706,18.3008001 0.0224003579,18.0163284 0.0224003579,17.8851284 L0.0224003579,17.8851284 L0.0205131785,6.08713891 C0.0205131785,5.95647225 0.0244926655,5.67191841 0.0322875371,5.45185687 L0.0322875371,5.45185687 C0.0512824085,4.91753894 0.0930875356,4.22884152 0.156308047,3.91581589 L0.156308047,3.91581589 C0.252759327,3.43803128 0.399097784,2.98674924 0.590318292,2.61148771 L0.590318292,2.61148771 C0.815056748,2.17054414 1.1017029,1.77546722 1.44237981,1.43421595 L1.44237981,1.43421595 C1.78371313,1.09226724 2.17928236,0.804431349 2.62080029,0.578790329 L2.62080029,0.578790329 C2.99409259,0.388103154 3.44258489,0.241846748 3.9176618,0.144944186 L3.9176618,0.144944186 C4.23384641,0.0804929057 4.92771306,0.0378672657 5.46551817,0.0185852149 L5.46551817,0.0185852149 C5.6852515,0.010708292 5.96976431,0.00668777932 6.10096431,0.00668777932 L6.10096431,0.00668777932 L17.8989538,0.00480059988 C18.0296614,0.00480059988 18.3142153,0.00873906132 18.5341948,0.0165749586 L18.5341948,0.0165749586 C19.0685537,0.0356108555 19.7572922,0.077374957 20.0702768,0.140595468 L20.0702768,0.140595468 C20.5481024,0.237087774 20.9993844,0.383426231 21.374605,0.574605714 L21.374605,0.574605714 C21.8155075,0.79934417 22.2106665,1.08603134 22.5518767,1.42666723 L22.5518767,1.42666723 C22.8938254,1.76804158 23.1816613,2.16352875 23.4073023,2.60508771 L23.4073023,2.60508771 C23.5979895,2.97838001 23.7442869,3.42683128 23.8411485,3.90194922 L23.8411485,3.90194922 C23.9056408,4.21813383 23.9482254,4.9120415 23.9675485,5.44980559 L23.9675485,5.44980559 C23.9754254,5.66957995 23.9794049,5.95405173 23.9794049,6.08525173 L23.9794049,6.08525173 L23.9813331,17.8832412 C23.9813331,18.0139489 23.9773536,18.2985027 23.9695177,18.5185232 L23.9695177,18.5185232 C23.9504818,19.0528411 23.9087177,19.7415386 23.8454972,20.0545642 L23.8454972,20.0545642 C23.7490459,20.5323898 23.6027075,20.9836308 23.411487,21.3588924 L23.411487,21.3588924 C23.1867895,21.799836 22.9000613,22.1949539 22.5594665,22.5362052 L22.5594665,22.5362052 C22.2180921,22.8781128 21.8225229,23.1659898 21.381005,23.3915898 L21.381005,23.3915898 C21.0077127,23.582318 20.5592614,23.7285744 20.0841434,23.8254359 L20.0841434,23.8254359 C19.7679588,23.8898872 19.0740922,23.9325128 18.5363281,23.9517949 L18.5363281,23.9517949 C18.3165127,23.9597128 18.0320409,23.9636923 17.9008409,23.9636923 L17.9008409,23.9636923 L6.10285149,23.9655795 C5.9721438,23.9655795 5.68758996,23.961641 5.46761048,23.9538051"/></defs><g fill="none" fill-rule="evenodd"><rect width="24" height="24" fill="url(#app-icon-a)" fill-rule="nonzero" rx="6"/><mask id="app-icon-c" fill="white"><use xlink:href="#app-icon-b"/></mask><path fill="#FFFFFF" d="M16.1544697,10.1416291 C15.9410543,10.2484188 14.8918236,10.7645624 14.6961723,10.8357419 C14.500562,10.9069214 14.3583262,10.9425316 14.2160492,10.7289521 C14.0737723,10.5153726 13.6647877,10.0348393 13.5402749,9.89243933 C13.4158031,9.75008036 13.2913313,9.7322342 13.0779159,9.83906497 C12.8645005,9.94581368 12.1768698,10.1711265 11.3617314,10.8979778 C10.7273109,11.4636393 10.2990032,12.162347 10.1744904,12.3759264 C10.0500186,12.5895059 10.1612391,12.7049521 10.2681109,12.8113316 C10.3640698,12.9068803 10.4814852,13.0604803 10.5881929,13.1850751 C10.6949006,13.30967 10.7304698,13.3986546 10.8016083,13.5410136 C10.8727468,13.6834136 10.8371775,13.8080085 10.7838032,13.9147982 C10.7304698,14.0215879 10.3036801,15.0716802 10.125834,15.4988392 C9.9526237,15.9148392 9.77666473,15.858552 9.64566986,15.8650751 C9.52132115,15.8712699 9.37892115,15.8725828 9.23664423,15.8725828 C9.09436731,15.8725828 8.86318783,15.8191674 8.66753655,15.6056289 C8.4719263,15.3920494 7.92062375,14.8758648 7.92062375,13.8258136 C7.92062375,12.7757213 8.68534168,11.7612393 8.79204937,11.6188393 C8.89875706,11.4764393 10.2969109,9.32152652 12.4377108,8.39742398 C12.94688,8.1776086 13.3444185,8.04636758 13.6543262,7.94798809 C14.1655877,7.78564964 14.6308185,7.80854194 14.9985313,7.86347528 C15.4085415,7.92472656 16.2611774,8.37961885 16.4390235,8.8779573 C16.6168287,9.37629575 16.6168287,9.80345471 16.5634953,9.89243933 C16.510162,9.98142394 16.3678851,10.0348393 16.1544697,10.1416291 M12.2605211,4.8265933 L12.2576493,4.8265933 C10.9838032,4.82708561 9.73440832,5.16915739 8.64448014,5.81576251 L8.38523912,5.96960866 L5.69842893,5.26499329 L6.41559815,7.88378297 L6.24677764,8.15225476 C5.53617253,9.28218293 5.16086997,10.5881521 5.16140274,11.9290752 C5.16296228,15.8419366 8.34757759,19.0253212 12.2633518,19.0253212 C14.1594749,19.0245827 15.9418748,18.2854237 17.2821825,16.9440494 C18.6224901,15.6026341 19.3602132,13.8195777 19.3594753,11.9233316 C19.3578747,8.01018296 16.1733005,4.8265933 12.2605211,4.8265933 M18.302285,17.9633314 C16.6897312,19.5772391 14.545239,20.4664698 12.260439,20.4673724 C7.55274684,20.4673724 3.72123924,16.6373417 3.71935206,11.9296085 C3.71873668,10.424747 4.11200846,8.95578294 4.85941357,7.66101374 L3.64772129,3.23648052 L8.17547503,4.42376254 C9.42298269,3.74355743 10.8275365,3.38511641 12.2570339,3.38450103 L12.2605211,3.38450103 L12.2605621,3.38450103 C16.967803,3.38450103 20.7996388,7.21502401 20.8015676,11.9227983 C20.8024286,14.2042341 19.9148799,16.3494648 18.302285,17.9633314" mask="url(#app-icon-c)" transform="matrix(1 0 0 -1 0 23.704)"/></g></svg>