<svg xmlns="http://www.w3.org/2000/svg" viewBox="0 0 24 24" width="currentSize" height="currentSize"><g fill="none" transform="translate(0 4)"><path fill="#FF0000" d="M23.3137253,2.60784312 C23.0392155,1.58823528 22.235294,0.78431372 21.2156861,0.509803918 C19.352941,0 11.9019607,0 11.9019607,0 C11.9019607,0 4.45098036,0 2.58823528,0.490196075 C1.58823528,0.764705877 0.764705877,1.58823528 0.490196075,2.60784312 C0,4.4705882 0,8.33333327 0,8.33333327 C0,8.33333327 0,12.2156862 0.490196075,14.0588234 C0.764705877,15.0784313 1.56862744,15.8823528 2.58823528,16.1568626 C4.4705882,16.6666665 11.9019607,16.6666665 11.9019607,16.6666665 C11.9019607,16.6666665 19.352941,16.6666665 21.2156861,16.1764705 C22.235294,15.9019607 23.0392155,15.0980391 23.3137253,14.0784313 C23.8040214,12.2156862 23.8040214,8.35294112 23.8040214,8.35294112 C23.8040214,8.35294112 23.8235292,4.4705882 23.3137253,2.60784312 Z"/><polygon fill="#FFFFFF" points="15.725 8.333 9.529 4.765 9.529 11.902"/></g></svg>