<svg xmlns="http://www.w3.org/2000/svg" xmlns:xlink="http://www.w3.org/1999/xlink" viewBox="0 0 24 24" width="currentSize" height="currentSize"><defs><path id="account-a" d="M12,1.05 C18.047518,1.05 22.95,5.95248199 22.95,12 C22.95,18.047518 18.047518,22.95 12,22.95 C5.95248199,22.95 1.05,18.047518 1.05,12 C1.05,5.95248199 5.95248199,1.05 12,1.05 Z M12.0221546,13.9500331 L12,13.95 C11.992648,13.95 11.9853008,13.9499799 11.9779583,13.9499398 L12,13.95 C8.73639469,13.95 6.12145014,16.1022339 5.95809779,18.7381834 C7.56105352,20.1758496 9.67844238,21.05 12,21.05 C14.3215576,21.05 16.4389465,20.1758496 18.0409729,18.7387426 C17.8789197,16.1082012 15.2754322,13.959747 12.0221546,13.9500331 Z M12,2.95 C7.00182301,2.95 2.95,7.00182301 2.95,12 C2.95,13.8176749 3.48587025,15.5101907 4.40824845,16.9281849 C5.11591816,14.9342954 6.81931908,13.3389337 8.99605535,12.5629645 C8.40596299,11.8743212 8.05,10.9787304 8.05,10 C8.05,7.81847524 9.81847524,6.05 12,6.05 C14.1815248,6.05 15.95,7.81847524 15.95,10 C15.95,10.9787304 15.594037,11.8743212 15.0045119,12.5643715 C17.1806809,13.3389337 18.8840818,14.9342954 19.5924815,16.9270383 C20.5141298,15.5101907 21.05,13.8176749 21.05,12 C21.05,7.00182301 16.998177,2.95 12,2.95 Z M12,7.95 C10.8678163,7.95 9.95,8.86781626 9.95,10 C9.95,11.1321837 10.8678163,12.05 12,12.05 C13.1321837,12.05 14.05,11.1321837 14.05,10 C14.05,8.86781626 13.1321837,7.95 12,7.95 Z"/></defs><g fill="none" fill-rule="evenodd"><mask id="account-b" fill="currentColor"><use xlink:href="#account-a"/></mask><use fill="currentColor" fill-rule="nonzero" xlink:href="#account-a"/><rect width="24" height="24" fill="currentColor" mask="url(#account-b)"/></g></svg>