<svg xmlns="http://www.w3.org/2000/svg" viewBox="0 0 56 24" width="currentSize" height="currentSize"><g fill="currentColor" transform="translate(3 3)"><path d="M2.50853723,0.970350658 L0.00955634787,6.78059768 L1.63652184,6.78059768 L2.09761486,5.61712227 L4.77816601,5.61712227 L5.23687011,6.78059768 L6.89967187,6.78059768 L4.40307976,0.970350658 L2.50853723,0.970350658 Z M3.43311211,2.32257074 L4.25017889,4.35568475 L2.61365661,4.35568475 L3.43311211,2.32257074 L3.43311211,2.32257074 Z"/><polygon points="7.072 6.78 7.072 .969 9.384 .978 10.728 4.724 12.041 .969 14.334 .969 14.334 6.78 12.882 6.78 12.882 2.498 11.342 6.78 10.068 6.78 8.524 2.498 8.524 6.78"/><polygon points="15.328 6.78 15.328 .969 20.068 .969 20.068 2.269 16.796 2.269 16.796 3.263 19.992 3.263 19.992 4.486 16.796 4.486 16.796 5.518 20.068 5.518 20.068 6.78"/><path d="M20.9092544,0.970350658 L20.9092544,6.78059768 L22.3618169,6.78059768 L22.3618169,4.71643169 L22.9734218,4.71643169 L24.7150635,6.78059768 L26.4901523,6.78059768 L24.5788857,4.63998348 C25.3632813,4.57379179 26.1724039,3.90055804 26.1724039,2.85533977 C26.1724039,1.63265899 25.2127374,0.970350658 24.1416836,0.970350658 L20.9092544,0.970350658 L20.9092544,0.970350658 Z M22.3618169,2.27000981 L24.0222294,2.27000981 C24.4205395,2.27000981 24.7102855,2.58157997 24.7102855,2.88161528 C24.7102855,3.26762199 24.3348708,3.49322075 24.0437314,3.49322075 L22.3618169,3.49322075 L22.3618169,2.27000981 L22.3618169,2.27000981 Z"/><polygon points="28.249 6.78 26.765 6.78 26.765 .969 28.249 .969"/><path d="M31.7652475 6.77962157L31.4451104 6.77962157C29.8961426 6.77962157 28.955686 5.55928444 28.955686 3.89838782 28.955686 2.19646018 29.8856131.9693696 31.8416982.9693696L33.4471621.9693696 33.4471621 2.34548191 31.7830017 2.34548191C30.9889392 2.34548191 30.4273608 2.96516872 30.4273608 3.91272217 30.4273608 5.03794622 31.0695014 5.51053874 31.9945996 5.51053874L32.3768525 5.51053874 31.7652475 6.77962157zM34.926004.970350658L32.4270237 6.78059768 34.0539891 6.78059768 34.5150819 5.61712227 37.1956333 5.61712227 37.6543369 6.78059768 39.3171387 6.78059768 36.8205471.970350658 34.926004.970350658zM35.8505794 2.32257074L36.6676457 4.35568475 35.0311239 4.35568475 35.8505794 2.32257074z"/><polygon points="39.487 6.78 39.487 .969 41.334 .969 43.692 4.62 43.692 .969 45.144 .969 45.144 6.78 43.357 6.78 40.939 3.034 40.939 6.78"/><polygon points="10.588 16.948 10.588 11.137 15.328 11.137 15.328 12.437 12.056 12.437 12.056 13.431 15.252 13.431 15.252 14.654 12.056 14.654 12.056 15.686 15.328 15.686 15.328 16.948"/><polygon points="33.814 16.948 33.814 11.137 38.554 11.137 38.554 12.437 35.282 12.437 35.282 13.431 38.462 13.431 38.462 14.654 35.282 14.654 35.282 15.686 38.554 15.686 38.554 16.948"/><polygon points="15.512 16.948 17.82 14.078 15.457 11.137 17.287 11.137 18.695 12.955 20.107 11.137 21.865 11.137 19.533 14.042 21.845 16.948 20.015 16.948 18.649 15.158 17.316 16.948"/><path d="M22.017789 11.1382891L22.017789 16.9485362 23.5085766 16.9485362 23.5085766 15.1137197 25.0375898 15.1137197C26.3313512 15.1137197 27.3119965 14.4273557 27.3119965 13.0925568 27.3119965 11.9868152 26.5428713 11.1382891 25.2263275 11.1382891L22.017789 11.1382891 22.017789 11.1382891zM23.5085766 12.4522826L25.1188184 12.4522826C25.5367819 12.4522826 25.8355433 12.7084527 25.8355433 13.1212255 25.8355433 13.5090011 25.5382901 13.7901684 25.1140405 13.7901684L23.5085766 13.7901684 23.5085766 12.4522826zM27.9427148 11.1373081L27.9427148 16.9475601 29.3952773 16.9475601 29.3952773 14.8833891 30.0068823 14.8833891 31.7485239 16.9475601 33.5236127 16.9475601 31.6123461 14.8069409C32.3967412 14.7407393 33.2058644 14.0675155 33.2058644 13.0222922 33.2058644 11.7996164 32.2461978 11.1373081 31.1751441 11.1373081L27.9427148 11.1373081 27.9427148 11.1373081zM29.3952773 12.4369722L31.0556898 12.4369722C31.4539999 12.4369722 31.7437455 12.7485374 31.7437455 13.0485727 31.7437455 13.4345844 31.3683307 13.6601782 31.0771913 13.6601782L29.3952773 13.6601782 29.3952773 12.4369722 29.3952773 12.4369722zM39.2268313 16.9475601L39.2268313 15.6861225 42.1338679 15.6861225C42.5640048 15.6861225 42.7502513 15.4536811 42.7502513 15.1987497 42.7502513 14.954496 42.564592 14.7075567 42.1338679 14.7075567L40.8202113 14.7075567C39.6783335 14.7075567 39.0423943 14.0118528 39.0423943 12.967348 39.0423943 12.0357244 39.6247603 11.1373081 41.3215795 11.1373081L44.1502538 11.1373081 43.5386484 12.4446125 41.0922275 12.4446125C40.6245794 12.4446125 40.480622 12.6900059 40.480622 12.924345 40.480622 13.1652096 40.6585185 13.4308286 41.0157768 13.4308286L42.3918886 13.4308286C43.664801 13.4308286 44.2171481 14.1528675 44.2171481 15.0984093 44.2171481 16.1149589 43.6016521 16.9475601 42.3225932 16.9475601L39.2268313 16.9475601zM44.5580708 16.9475601L44.5580708 15.6861225 47.4651053 15.6861225C47.8952448 15.6861225 48.0814922 15.4536811 48.0814922 15.1987497 48.0814922 14.954496 47.8958295 14.7075567 47.4651053 14.7075567L46.1514508 14.7075567C45.009573 14.7075567 44.3736333 14.0118528 44.3736333 12.967348 44.3736333 12.0357244 44.9559993 11.1373081 46.6528185 11.1373081L49.4814918 11.1373081 48.8698863 12.4446125 46.4234664 12.4446125C45.9558189 12.4446125 45.8118615 12.6900059 45.8118615 12.924345 45.8118615 13.1652096 45.9897575 13.4308286 46.3470158 13.4308286L47.7231286 13.4308286C48.9960415 13.4308286 49.5483871 14.1528675 49.5483871 15.0984093 49.5483871 16.1149589 48.9328921 16.9475601 47.6538302 16.9475601L44.5580708 16.9475601z"/></g></svg>