<svg xmlns="http://www.w3.org/2000/svg" viewBox="0 0 24 24" width="currentSize" height="currentSize"><path fill="currentColor" d="M15.2417315,4.60563634 C14.4565131,5.55028645 13.2001636,6.29536259 11.9438141,6.18892314 C11.7867704,4.91164975 12.4018582,3.55454678 13.1216417,2.71633612 C13.9068602,1.74507614 15.2809924,1.05321972 16.3933852,1 C16.5242549,2.33049311 16.013863,3.63437636 15.2417315,4.60563634 M16.3802982,6.44171683 C14.5612089,6.33527738 13.003859,7.49280639 12.1401187,7.49280639 C11.2632915,7.49280639 9.94150709,6.49493656 8.50193997,6.52154642 C6.63050271,6.54815628 4.88993518,7.6258557 3.93458609,9.34219182 C1.97154002,12.7748641 3.42419411,17.8573477 5.32180532,20.6513833 C6.25098047,22.0350961 7.36337324,23.5518583 8.82911432,23.4986385 C10.2163335,23.4454188 10.7659864,22.5805983 12.4411191,22.5805983 C14.1293387,22.5805983 14.6135568,23.4986385 16.0792978,23.4720287 C17.5973868,23.4454188 18.5527359,22.0883158 19.481911,20.704603 C20.5419559,19.1346211 20.9738261,17.6045541 21,17.5247245 C20.9738261,17.4981146 18.0685179,16.3671955 18.0423439,12.9611331 C18.01617,10.1138778 20.3325643,8.75677485 20.4372601,8.67694526 C19.1285627,6.70781546 17.0869948,6.49493656 16.3802982,6.44171683"/></svg>