<svg xmlns="http://www.w3.org/2000/svg" xmlns:xlink="http://www.w3.org/1999/xlink" viewBox="0 0 24 24" width="currentSize" height="currentSize"><defs><path id="calendar-a" d="M15.5643564,2 C16.069615,2 16.4855856,2.38412712 16.5388028,2.87759923 L16.5445545,2.98491676 L16.544,3.913 L18.2376238,3.91334676 C19.7067377,3.91334676 20.9079921,5.06571052 20.9949586,6.51993492 L21,6.68902127 L21,19.2243255 C21,20.7572882 19.763242,22 18.2376238,22 L18.2376238,22 L5.76237624,22 C4.23675797,22 3,20.7572882 3,19.2243255 L3,19.2243255 L3,6.68902127 C3,5.15605857 4.23675797,3.91334676 5.76237624,3.91334676 L5.76237624,3.91334676 L7.618,3.913 L7.61819074,2.98491676 C7.61819074,2.44096225 8.05704034,2 8.59838876,2 C9.10364729,2 9.51961795,2.38412712 9.57283511,2.87759923 L9.57858678,2.98491676 L9.578,3.913 L14.584,3.913 L14.5841584,2.98491676 C14.5841584,2.44096225 15.023008,2 15.5643564,2 Z M19.039,11.905 L4.96,11.905 L4.96039604,19.2243255 C4.96039604,19.6351443 5.2663396,19.9741621 5.66177755,20.0238878 L5.76237624,20.0301665 L18.2376238,20.0301665 C18.6805452,20.0301665 19.039604,19.6693792 19.039604,19.2243255 L19.039604,19.2243255 L19.039,11.905 Z M15.5,15 C16.3284271,15 17,15.6715729 17,16.5 C17,17.3284271 16.3284271,18 15.5,18 C14.6715729,18 14,17.3284271 14,16.5 C14,15.6715729 14.6715729,15 15.5,15 Z M7.618,5.883 L5.76237624,5.88318028 C5.3194548,5.88318028 4.96039604,6.24396758 4.96039604,6.68902127 L4.96039604,6.68902127 L4.96,9.935 L19.039,9.935 L19.039604,6.68902127 C19.039604,6.27820248 18.7336604,5.93918464 18.3382225,5.88945893 L18.2376238,5.88318028 L16.544,5.883 L16.5445545,6.56643225 C16.5445545,7.11038676 16.1057049,7.55134901 15.5643564,7.55134901 C15.0590979,7.55134901 14.6431272,7.16722189 14.5899101,6.67374979 L14.5841584,6.56643225 L14.584,5.883 L9.578,5.883 L9.57858678,6.56643225 C9.57858678,7.11038676 9.13973718,7.55134901 8.59838876,7.55134901 C8.09313024,7.55134901 7.67715957,7.16722189 7.62394241,6.67374979 L7.61819074,6.56643225 L7.618,5.883 Z"/></defs><g fill="none" fill-rule="evenodd"><mask id="calendar-b" fill="currentColor"><use xlink:href="#calendar-a"/></mask><use fill="currentColor" fill-rule="nonzero" xlink:href="#calendar-a"/><rect width="24" height="24" fill="currentColor" mask="url(#calendar-b)"/></g></svg>