<svg xmlns="http://www.w3.org/2000/svg" xmlns:xlink="http://www.w3.org/1999/xlink" width="currentSize" height="currentSize" viewBox="0 0 24 24"><defs><path id="a" d="M6.7,12.8 C9.29573832,12.8 11.4,14.9042617 11.4,17.5 C11.4,20.0957383 9.29573832,22.2 6.7,22.2 C4.10426168,22.2 2,20.0957383 2,17.5 C2,14.9042617 4.10426168,12.8 6.7,12.8 Z M17.5,12.8 C20.0957383,12.8 22.2,14.9042617 22.2,17.5 C22.2,20.0957383 20.0957383,22.2 17.5,22.2 C14.9042617,22.2 12.8,20.0957383 12.8,17.5 C12.8,14.9042617 14.9042617,12.8 17.5,12.8 Z M6.7,15 C5.31928813,15 4.2,16.1192881 4.2,17.5 C4.2,18.8807119 5.31928813,20 6.7,20 C8.08071187,20 9.2,18.8807119 9.2,17.5 C9.2,16.1192881 8.08071187,15 6.7,15 Z M17.5,15 C16.1192881,15 15,16.1192881 15,17.5 C15,18.8807119 16.1192881,20 17.5,20 C18.8807119,20 20,18.8807119 20,17.5 C20,16.1192881 18.8807119,15 17.5,15 Z M6.7,2 C9.29573832,2 11.4,4.10426168 11.4,6.7 C11.4,9.29573832 9.29573832,11.4 6.7,11.4 C4.10426168,11.4 2,9.29573832 2,6.7 C2,4.10426168 4.10426168,2 6.7,2 Z M17.5,2 C20.0957383,2 22.2,4.10426168 22.2,6.7 C22.2,9.29573832 20.0957383,11.4 17.5,11.4 C14.9042617,11.4 12.8,9.29573832 12.8,6.7 C12.8,4.10426168 14.9042617,2 17.5,2 Z M6.7,4.2 C5.31928813,4.2 4.2,5.31928813 4.2,6.7 C4.2,8.08071187 5.31928813,9.2 6.7,9.2 C8.08071187,9.2 9.2,8.08071187 9.2,6.7 C9.2,5.31928813 8.08071187,4.2 6.7,4.2 Z M17.5,4.2 C16.1192881,4.2 15,5.31928813 15,6.7 C15,8.08071187 16.1192881,9.2 17.5,9.2 C18.8807119,9.2 20,8.08071187 20,6.7 C20,5.31928813 18.8807119,4.2 17.5,4.2 Z"/></defs><g fill="none" fill-rule="evenodd"><mask id="b" fill="currentColor"><use xlink:href="#a"/></mask><use xlink:href="#a" fill="currentColor" fill-rule="nonzero"/><rect width="24" height="24" fill="currentColor" mask="url(#b)"/></g></svg>
