<svg xmlns="http://www.w3.org/2000/svg" xmlns:xlink="http://www.w3.org/1999/xlink" viewBox="0 0 24 24" width="currentSize" height="currentSize"><defs><path id="clock-a" d="M12,1.4 C14.9173814,1.4 17.7152744,2.55892524 19.7781746,4.62182541 C21.8410748,6.68472557 23,9.48261861 23,12.4 C23,18.4751322 18.0751322,23.4 12,23.4 C5.92486775,23.4 1,18.4751322 1,12.4 C1,6.32486775 5.92486775,1.4 12,1.4 Z M12,3.6 C7.1398942,3.6 3.2,7.5398942 3.2,12.4 C3.2,17.2601058 7.1398942,21.2 12,21.2 C14.3339051,21.2 16.5722195,20.2728598 18.2225397,18.6225397 C19.8728598,16.9722195 20.8,14.7339051 20.8,12.4 C20.8,7.5398942 16.8601058,3.6 12,3.6 Z M12,4.7 C12.6075132,4.7 13.1,5.19248678 13.1,5.8 L13.1,5.8 L13.1,11.3 L17.5,11.3 C18.1075132,11.3 18.6,11.7924868 18.6,12.4 C18.6,13.0075132 18.1075132,13.5 17.5,13.5 L17.5,13.5 L12,13.5 C11.3924868,13.5 10.9,13.0075132 10.9,12.4 L10.9,12.4 L10.9,5.8 C10.9,5.19248678 11.3924868,4.7 12,4.7 Z"/></defs><g fill="none" fill-rule="evenodd"><mask id="clock-b" fill="currentColor"><use xlink:href="#clock-a"/></mask><use fill="currentColor" fill-rule="nonzero" xlink:href="#clock-a"/><rect width="24" height="24" fill="currentColor" mask="url(#clock-b)"/></g></svg>