<svg xmlns="http://www.w3.org/2000/svg" xmlns:xlink="http://www.w3.org/1999/xlink" viewBox="0 0 24 24" width="currentSize" height="currentSize"><defs><path id="copy-a" d="M19.2222222,6.44444444 C20.7544444,6.44444444 22,7.69111111 22,9.22222222 L22,19.2222222 C22,20.7544444 20.7544444,22 19.2222222,22 L9.22222222,22 C7.69111111,22 6.44444444,20.7544444 6.44444444,19.2222222 L6.44444444,9.22222222 C6.44444444,7.69111111 7.69111111,6.44444444 9.22222222,6.44444444 L19.2222222,6.44444444 Z M19.2222222,8.66666667 L9.22222222,8.66666667 C8.91555556,8.66666667 8.66666667,8.91555556 8.66666667,9.22222222 L8.66666667,9.22222222 L8.66666667,19.2222222 C8.66666667,19.5277778 8.91666667,19.7777778 9.22222222,19.7777778 L9.22222222,19.7777778 L19.2222222,19.7777778 C19.5277778,19.7777778 19.7777778,19.5277778 19.7777778,19.2222222 L19.7777778,19.2222222 L19.7777778,9.22222222 C19.7777778,8.91555556 19.5288889,8.66666667 19.2222222,8.66666667 L19.2222222,8.66666667 Z M16.4444444,2 C17.0577778,2 17.5555556,2.49777778 17.5555556,3.11111111 C17.5555556,3.72444444 17.0577778,4.22222222 16.4444444,4.22222222 L4.22222222,4.22222222 L4.22222222,16.4444444 C4.22222222,17.0577778 3.72444444,17.5555556 3.11111111,17.5555556 C2.49777778,17.5555556 2,17.0577778 2,16.4444444 L2,4.77777778 C2,3.24333333 3.24333333,2 4.77777778,2 L16.4444444,2 Z"/></defs><g fill="none" fill-rule="evenodd"><mask id="copy-b" fill="currentColor"><use xlink:href="#copy-a"/></mask><use fill="currentColor" fill-rule="nonzero" xlink:href="#copy-a"/><rect width="24" height="24" fill="currentColor" mask="url(#copy-b)"/><rect width="24" height="24" fill="currentColor" mask="url(#copy-b)" opacity="0"/></g></svg>