<svg xmlns="http://www.w3.org/2000/svg" xmlns:xlink="http://www.w3.org/1999/xlink" viewBox="0 0 24 24" width="currentSize" height="currentSize"><defs><path id="delivery-a" d="M13.0045662,4 C14.037263,4 14.883317,4.81125525 14.9580973,5.84025189 L14.9634703,5.98866856 L14.963,7.059 L18.8511333,7.05949008 C19.4623022,7.05949008 20.0350047,7.34877208 20.4038025,7.8356134 L20.4992039,7.97321755 L22.6891665,11.4336177 C22.8921071,11.7542877 23,12.1274089 23,12.5085588 L23,12.5085588 L23,18.2266289 C23,19.3249402 22.1229688,20.2152975 21.0410959,20.2152975 L21.0410959,20.2152975 L20.567038,20.2153923 C20.1808577,21.258091 19.1894718,22 18.0273973,22 C16.8653228,22 15.8739369,21.258091 15.4877565,20.2153923 L8.51224346,20.2153923 L8.45628137,20.354729 C8.45407817,20.3598104 8.45186028,20.3648836 8.44962776,20.3699488 L8.51224346,20.2153923 C8.48506781,20.2887674 8.45489518,20.3606529 8.421877,20.4308953 C8.40617151,20.4642917 8.39004796,20.4968832 8.37331371,20.5290971 C8.36412288,20.5467985 8.35448193,20.5648712 8.34464903,20.5828206 C8.32566427,20.6174693 8.30608549,20.6514582 8.2858198,20.6849729 C8.27646613,20.7004411 8.26699363,20.7157647 8.25737758,20.7309859 C8.23585887,20.7650451 8.21367932,20.7985081 8.19080621,20.8314391 C8.18083289,20.8458066 8.17028002,20.8606914 8.1595854,20.875464 C7.98902202,21.1108962 7.78322929,21.3172027 7.5498236,21.4868521 C7.53820585,21.4952961 7.52654356,21.5036326 7.51481413,21.5118777 C7.48258066,21.5345331 7.44996801,21.5564159 7.41687287,21.5775926 C7.40030645,21.588197 7.38322307,21.5988657 7.36601575,21.6093462 C7.33527459,21.6280666 7.30431913,21.6460856 7.27298815,21.6634949 C7.18375881,21.7130842 7.09130727,21.7578025 6.99615776,21.7971933 C6.96515597,21.8100207 6.9343529,21.8221027 6.90328413,21.8336243 C6.88949352,21.8387391 6.8755578,21.8437761 6.8615701,21.8487001 C6.81899596,21.8636909 6.77575002,21.8776915 6.73204836,21.8906058 C6.71426281,21.8958571 6.69701085,21.9007621 6.67969032,21.9054974 C6.64858731,21.9140063 6.61681973,21.9220718 6.5848358,21.9295631 C6.55398394,21.9367891 6.52294683,21.9434776 6.49171858,21.9496222 C6.46401436,21.9550712 6.43636686,21.9600582 6.40857796,21.9646165 C6.38197304,21.9689808 6.35522009,21.9729547 6.32834331,21.9765292 C6.29622901,21.9808034 6.26367231,21.9845329 6.23094634,21.9876721 C6.20097963,21.9905456 6.17096237,21.9929184 6.14081199,21.9947912 C6.08520278,21.9982461 6.02910452,22 5.97260274,22 C5.91610096,22 5.8600027,21.9982461 5.8043579,21.994789 L5.97260274,22 C5.88606528,22 5.80047437,21.9958857 5.71600945,21.9878394 C5.68245481,21.984646 5.64883757,21.9807999 5.61541206,21.9763359 C5.5885165,21.9727398 5.56214884,21.9688102 5.53590734,21.9644983 C5.50947138,21.9601549 5.48311945,21.955415 5.45690188,21.9502919 C5.42404157,21.9438746 5.39109478,21.9367854 5.35837477,21.9290951 C5.3269393,21.9217043 5.29590007,21.9138099 5.26507804,21.9053778 C5.24816727,21.9007546 5.23088817,21.8958416 5.2136797,21.8907602 C5.16822557,21.8773281 5.12377576,21.862902 5.07984057,21.847361 C5.06714226,21.8428693 5.05449684,21.838288 5.04189514,21.8336146 C5.01211137,21.8225709 4.98244194,21.8109588 4.95302943,21.7988379 C4.85622184,21.7589254 4.76256983,21.7137084 4.67205266,21.6634034 C4.64151732,21.6464362 4.61117787,21.6287922 4.58121352,21.6105777 C4.55884266,21.5969784 4.53673105,21.5830936 4.51483358,21.5688984 C4.49020718,21.5529334 4.46590482,21.5366127 4.44188064,21.5199097 C4.42508165,21.5082335 4.40812661,21.4961573 4.39131546,21.4838907 C4.35564425,21.4578554 4.32089445,21.4311831 4.28681101,21.403696 C4.27558717,21.3946459 4.26425522,21.3853573 4.25299897,21.3759785 C4.12383498,21.2683342 4.0048307,21.1490445 3.8973709,21.0195563 C3.84370937,20.9548987 3.79287709,20.8876263 3.74513036,20.8180099 C3.72568612,20.7896694 3.70651471,20.7605628 3.68788218,20.7310718 C3.67821185,20.7157647 3.66873935,20.7004411 3.65941233,20.685017 C3.63911999,20.6514582 3.61954121,20.6174693 3.60066922,20.5830265 C3.59072355,20.5648712 3.5810826,20.5467985 3.57163642,20.5286054 C3.55515752,20.4968832 3.53903397,20.4642917 3.52353675,20.4313383 C3.51378582,20.4105944 3.50448086,20.3901563 3.49541723,20.3695846 C3.4933452,20.3648836 3.49112731,20.3598104 3.48892411,20.354729 L3.43296202,20.2153923 L3.43296202,20.2153923 L2.95890411,20.2152975 C1.92620728,20.2152975 1.08015334,19.4040422 1.00537302,18.3750456 L1,18.2266289 L1,5.98866856 C1,4.94028048 1.79911318,4.08137122 2.8127088,4.00545466 L2.95890411,4 L13.0045662,4 Z M6.28620608,18.2773058 L5.6589994,18.2773058 C5.2577671,18.4110338 4.96803653,18.7943972 4.96803653,19.2464589 C4.96803653,19.6985207 5.2577671,20.0818841 5.6589994,20.2156121 L6.28620608,20.2156121 C6.68743838,20.0818841 6.97716895,19.6985207 6.97716895,19.2464589 C6.97716895,18.7943972 6.68743838,18.4110338 6.28620608,18.2773058 Z M18.0273973,18.2266289 C17.953423,18.2266289 17.8813163,18.2347461 17.8118942,18.250151 L17.7137939,18.2773058 L17.7137939,18.2773058 L17.6124988,18.3173994 C17.5994392,18.3234197 17.586529,18.3297154 17.5737753,18.3362793 C17.5528508,18.3470578 17.5326495,18.3583749 17.5128878,18.3703616 L17.5737753,18.3362793 C17.539854,18.3537374 17.5070401,18.3730924 17.4754691,18.3942069 L17.5128878,18.3703616 C17.4827279,18.3886554 17.4535918,18.4085087 17.4255876,18.4298118 L17.4754691,18.3942069 C17.44491,18.4146445 17.4155154,18.4367306 17.3874081,18.4603405 L17.4255876,18.4298118 C17.3975717,18.4511239 17.3706885,18.4738871 17.3450464,18.4979914 L17.3874081,18.4603405 C17.3576004,18.4853786 17.3292404,18.5121305 17.3024747,18.5404474 L17.3450464,18.4979914 C17.317644,18.5237505 17.2916588,18.5510412 17.2672228,18.5797297 L17.3024747,18.5404474 C17.2801813,18.5640327 17.2589939,18.5887037 17.2389971,18.6143745 L17.2672228,18.5797297 C17.2433067,18.6078078 17.2208747,18.6372247 17.2000504,18.6678548 L17.2389971,18.6143745 C17.2164476,18.6433223 17.1954121,18.6735414 17.176012,18.7049086 L17.2000504,18.6678548 C17.1774274,18.7011307 17.156702,18.7358383 17.1380328,18.7718166 L17.176012,18.7049086 C17.1563138,18.7367577 17.1383016,18.7697904 17.1221024,18.8038778 L17.1380328,18.7718166 C17.1258802,18.7952365 17.1145989,18.8191947 17.1042327,18.843647 L17.1221024,18.8038778 C17.089343,18.8728123 17.0639982,18.9460601 17.0471187,19.0225545 C17.0442673,19.0354682 17.0416325,19.0486112 17.0392492,19.0618434 L17.0471187,19.0225545 C17.0392683,19.0581312 17.0332489,19.0944103 17.0291664,19.1312843 L17.0228311,19.2464589 C17.0228311,19.6970482 17.3106772,20.0793858 17.7098766,20.2142973 L17.713,20.215 L18.34,20.215 C18.7108507,20.0906285 18.9832158,19.7590529 19.0260688,19.3575806 L19.0319635,19.2464589 C19.0319635,19.227177 19.0314364,19.20802 19.030396,19.189002 C19.0272438,19.1316118 19.0194673,19.0757076 19.0074295,19.0214413 C19.0029836,19.0013907 18.9979311,18.9814768 18.9923108,18.9618079 L19.0074295,19.0214413 C18.998948,18.9832068 18.9883512,18.9457854 18.9757703,18.9093104 L18.9923108,18.9618079 C18.9830419,18.9293699 18.9722289,18.8975983 18.9599579,18.8665807 L18.9757703,18.9093104 C18.9634374,18.8735544 18.9491979,18.838708 18.9331756,18.8048966 L18.9599579,18.8665807 C18.9442215,18.8268034 18.9260873,18.7882659 18.9057369,18.7511525 L18.9331756,18.8048966 C18.9181915,18.7732761 18.9016481,18.7425608 18.8836466,18.7128537 L18.9057369,18.7511525 C18.8894196,18.7213943 18.8716775,18.6925517 18.8526042,18.6647197 L18.8836466,18.7128537 C18.8630089,18.678796 18.8404548,18.6460634 18.8161368,18.6148105 L18.8526042,18.6647197 C18.8328353,18.6358728 18.8116364,18.6081116 18.7891116,18.5815419 L18.8161368,18.6148105 C18.7902362,18.5815236 18.7623346,18.5499153 18.7326163,18.5201729 L18.7891116,18.5815419 C18.7660264,18.554311 18.7415485,18.5283317 18.7157903,18.503718 L18.7326163,18.5201729 C18.7118449,18.4993845 18.690186,18.4795076 18.6677025,18.4606061 L18.7157903,18.503718 C18.6882637,18.4774145 18.6592749,18.4526704 18.6289608,18.4296247 L18.6677025,18.4606061 C18.6395769,18.4369613 18.610161,18.4148429 18.5795779,18.3943758 L18.6289608,18.4296247 C18.6009587,18.4083366 18.5718257,18.3884978 18.5416698,18.3702179 L18.5795779,18.3943758 C18.5480268,18.3732609 18.5152336,18.3539035 18.4813333,18.336441 L18.5416698,18.3702179 C18.3912345,18.2790267 18.2153434,18.2266289 18.0273973,18.2266289 Z M21.091,13.586 L14.963,13.586 L14.9634703,18.2776204 L15.4877565,18.2775256 C15.8739369,17.2348268 16.8653228,16.4929178 18.0273973,16.4929178 C19.1894718,16.4929178 20.1808577,17.2348268 20.567038,18.2775256 L21.0410959,18.2776204 C21.0688362,18.2776204 21.0913242,18.2547907 21.0913242,18.2266289 L21.0913242,18.2266289 L21.091,13.586 Z M13.0045662,5.93767705 L2.95890411,5.93767705 C2.94041056,5.93767705 2.92425138,5.94782358 2.91553344,5.96293217 L2.9086758,5.98866856 L2.9086758,18.2266289 C2.9086758,18.2454034 2.91867046,18.2618082 2.93355292,18.2706586 L2.95890411,18.2776204 L3.43296202,18.2775256 L3.48892411,18.1381888 C3.49112731,18.1331075 3.4933452,18.1280342 3.49557772,18.1229691 L3.43296202,18.2775256 C3.46013767,18.2041505 3.4903103,18.1322649 3.52332847,18.0620225 C3.53903397,18.0286262 3.55515752,17.9960346 3.57189177,17.9638207 C3.5810826,17.9461193 3.59072355,17.9280466 3.60055644,17.9100972 C3.61954121,17.8754485 3.63911999,17.8414596 3.65938568,17.8079449 C3.66873935,17.7924768 3.67821185,17.7771532 3.6878279,17.7619319 C3.70651471,17.732355 3.72568612,17.7032485 3.74538229,17.6745407 C3.75505658,17.6604352 3.76511616,17.6460637 3.77530729,17.6317953 L3.80201354,17.5950475 C3.80955635,17.5848461 3.81716731,17.5746996 3.82484573,17.5646088 C3.84453813,17.5387245 3.86482951,17.5130165 3.88555963,17.4876919 L3.89817969,17.4723874 C4.00542772,17.343275 4.12415837,17.2243142 4.25277326,17.1171275 C4.26425522,17.1075606 4.27558717,17.0982719 4.28699373,17.0890745 C4.32089445,17.0617347 4.35564425,17.0350625 4.39103183,17.0092342 C4.40812661,16.9967606 4.42508165,16.9846844 4.44217752,16.9728018 C4.46590482,16.9563052 4.49020718,16.9399845 4.51477922,16.9240546 C4.53673105,16.9098242 4.55884266,16.8959395 4.58116242,16.8823712 C4.61117787,16.8641257 4.64151732,16.8464817 4.67221733,16.8294229 C4.68788871,16.8207135 4.7038207,16.8120684 4.71984665,16.803581 L4.73997725,16.7930284 C4.75440344,16.7855437 4.76890435,16.7781862 4.78347855,16.7709575 C4.83850435,16.7436513 4.89507779,16.7179726 4.95263543,16.6942424 C4.98244194,16.6819591 5.01211137,16.6703469 5.04202713,16.6592543 C5.05779065,16.6534083 5.07375571,16.64766 5.08978873,16.64206 C5.12564254,16.6295378 5.16178987,16.6177712 5.19825848,16.6067621 C5.23114343,16.5968374 5.26411077,16.5875753 5.29732374,16.5789356 C5.31484446,16.5743773 5.33252198,16.5699711 5.35026665,16.5657418 C5.3856978,16.5572982 5.42132476,16.5495738 5.45720327,16.5425671 C5.48311945,16.5375028 5.50947138,16.532763 5.53595177,16.5284123 C5.56214884,16.5241077 5.5885165,16.520178 5.61500462,16.5166364 C5.65869473,16.5108015 5.70229891,16.5060572 5.74619963,16.5023742 C5.760618,16.5011647 5.77504481,16.5000713 5.78950263,16.499093 C5.84986776,16.495003 5.91099538,16.4929178 5.97260274,16.4929178 C6.0342101,16.4929178 6.09533772,16.495003 6.15592086,16.4991077 L5.97260274,16.4929178 C6.04911793,16.4929178 6.12489313,16.4961343 6.19980428,16.5024413 C6.24316718,16.5060954 6.28604189,16.5107586 6.32860599,16.5164236 C6.35522009,16.5199631 6.38197304,16.523937 6.4085962,16.5283043 C6.43636686,16.5328597 6.46401436,16.5378466 6.49151365,16.5432553 C6.52600177,16.5500414 6.56005458,16.5574426 6.59386386,16.5654859 C6.61192957,16.5697833 6.62998555,16.5742796 6.6479695,16.5789584 C6.6813794,16.5876493 6.71462718,16.5969962 6.74761199,16.606963 C6.78252976,16.6175187 6.81683126,16.6286572 6.85082836,16.6404621 C6.86832182,16.6465352 6.88589108,16.6528427 6.90337617,16.6593276 C6.9343529,16.6708152 6.96515597,16.6828972 6.99568147,16.6955275 C7.05247898,16.7190409 7.1078549,16.7442238 7.16221095,16.7711977 C7.17630113,16.7781862 7.19080204,16.7855437 7.20522823,16.7930284 L7.22535883,16.803581 C7.24138478,16.8120684 7.25731677,16.8207135 7.27315282,16.8295144 C7.30431913,16.8468323 7.33527459,16.8648512 7.36583905,16.883464 C7.38322307,16.8940521 7.40030645,16.9047209 7.41726311,16.915575 C7.44996801,16.9365019 7.48258066,16.9583848 7.51469028,16.9809531 C7.52654356,16.9892852 7.53820585,16.9976217 7.5498,17.0060486 C7.78322929,17.1757151 7.98902202,17.3820216 8.15903614,17.6166955 C8.17028002,17.6322264 8.18083289,17.6471113 8.191242,17.6621064 C8.21367932,17.6944097 8.23585887,17.7278728 8.2573233,17.761846 C8.26699363,17.7771532 8.27646613,17.7924768 8.28579315,17.8079008 C8.30608549,17.8414596 8.32566427,17.8754485 8.34453626,17.9098914 C8.35448193,17.9280466 8.36412288,17.9461193 8.37356906,17.9643124 C8.39004796,17.9960346 8.40617151,18.0286262 8.42166873,18.0615795 C8.43141965,18.0823234 8.44072462,18.1027616 8.44978825,18.1233333 C8.45186028,18.1280342 8.45407817,18.1331075 8.45628137,18.1381888 L8.51224346,18.2775256 L8.51224346,18.2775256 L13.0547945,18.2776204 L13.0547945,5.98866856 L13.0479369,5.96293217 L13.0479369,5.96293217 L13.0299174,5.94463889 L13.0045662,5.93767705 Z M18.8511333,8.99716714 L14.9634703,8.99716714 L14.963,11.648 L20.556,11.648 L18.8933915,9.02059605 C18.8887711,9.0132953 18.8824805,9.00743808 18.875208,9.00340604 L18.8511333,8.99716714 Z"/></defs><g fill="none" fill-rule="evenodd"><mask id="delivery-b" fill="currentColor"><use xlink:href="#delivery-a"/></mask><use fill="currentColor" fill-rule="nonzero" xlink:href="#delivery-a"/><rect width="24" height="24" fill="currentColor" mask="url(#delivery-b)"/></g></svg>