<svg xmlns="http://www.w3.org/2000/svg" viewBox="0 0 56 24" width="currentSize" height="currentSize"><g fill="none" transform="translate(4 8)"><path fill="currentColor" d="M6.85080374,3.45853888 C6.85108009,4.67860176 6.2003509,5.80610465 5.14380422,6.4162159 C4.08725755,7.02632716 2.78545856,7.02632716 1.72891189,6.4162159 C0.672365218,5.80610465 0.0216360255,4.67860176 0.0219123717,3.45853888 C0.0216360255,2.23847599 0.672365218,1.11097311 1.72891189,0.500861853 C2.78545856,-0.109249404 4.08725755,-0.109249404 5.14380422,0.500861853 C6.2003509,1.11097311 6.85108009,2.23847599 6.85080374,3.45853888 Z" transform="translate(23.373 2.5)"/><path fill="currentColor" d="M2.78295947 8.47571138C3.37130082 8.47571138 3.88031524 8.43274263 4.31000274 8.34680513 4.73969024 8.26086763 5.13467221 8.10882437 5.49494865 7.89067533 5.97421548 7.59980994 6.37085009 7.18251727 6.6848525 6.63879732 6.9988549 6.09507737 7.1558561 5.47946739 7.1558561 4.79196739 7.1558561 4.07802509 7.00959709 3.45745718 6.71707906 2.93026367 6.42456103 2.40307016 6.02379481 1.98412485 5.51478038 1.67342773 5.21730442 1.48833158 4.8504174 1.34537785 4.41411932 1.24456655 3.97782125 1.14375525 3.45889096 1.09334961 2.85732846 1.09334961L2.85732846 1.09334961.180044805 1.09334961.180044805 8.47571138 2.78295947 8.47571138zM2.56481043 7.09244816L2.08389096 7.09244816 2.08389096 2.47165489 2.56481043 2.47165489C2.9746662 2.47165489 3.2812317 2.48900766 3.48450694 2.52371319 3.68778219 2.55841872 3.88692582 2.62369816 4.08193783 2.71955153 4.4653513 2.91456355 4.74547449 3.18477088 4.92230743 3.53017352 5.09914036 3.87557617 5.18755682 4.29121619 5.18755682 4.7770936 5.18755682 5.26627629 5.10657726 5.67695838 4.94461812 6.00913987 4.78265899 6.34132136 4.52815178 6.60657076 4.18109649 6.80488807 3.97947389 6.91396259 3.77289336 6.9891579 3.5613549 7.030474 3.34981644 7.07179011 3.01763495 7.09244816 2.56481043 7.09244816L2.56481043 7.09244816zM10.3438068 2.11468374L10.3438068.761168115 8.4597924.761168115 8.4597924 2.11468374 10.3438068 2.11468374zM10.2942275 8.47571138L10.2942275 2.90795297 8.50937173 2.90795297 8.50937173 8.47571138 10.2942275 8.47571138zM13.9283922 8.6294073C14.8241253 8.6294073 15.5298044 8.45340069 16.0454294 8.10138747 16.5610544 7.74937425 16.8188669 7.28580754 16.8188669 6.71068735 16.8188669 6.31735802 16.7064871 5.98930814 16.4817275 5.72653771 16.2569679 5.46376727 15.9099126 5.27123422 15.4405616 5.14893855 15.2290232 5.09605393 15.018311 5.05225886 14.8084252 5.01755333 14.5985394 4.9828478 14.4027011 4.94731595 14.2209102 4.91095778 13.8903813 4.84154672 13.6804955 4.77213566 13.5912527 4.70272461 13.5020099 4.63331355 13.4573886 4.53250225 13.4573886 4.40029071 13.4573886 4.25485802 13.5557209 4.14247821 13.7523856 4.06315129 13.9490502 3.98382437 14.1911626 3.9441609 14.4787227 3.9441609 14.825778 3.9441609 15.1687017 4.00117713 15.5074937 4.11520958 15.8462858 4.22924203 16.1478934 4.37715369 16.4123164 4.55894456L16.4123164 4.55894456 16.5660124 4.55894456 16.5660124 3.15089167C16.3511686 3.05503831 16.0528663 2.9649692 15.6711055 2.88068434 15.2893447 2.79639949 14.8902311 2.75425706 14.4737648 2.75425706 13.594558 2.75425706 12.9012738 2.93191631 12.393912 3.28723482 11.8865502 3.64255333 11.6328693 4.08794095 11.6328693 4.62339768 11.6328693 5.03986403 11.755165 5.38774564 11.9997563 5.66704251 12.2443477 5.94633939 12.6194979 6.1520936 13.1252071 6.28430513 13.3103032 6.33388446 13.5160574 6.37602689 13.7424697 6.41073242 13.9688819 6.44543795 14.1481938 6.47766451 14.2804054 6.50741211 14.5580496 6.56360201 14.7464511 6.62227088 14.8456097 6.68341872 14.9447684 6.74456655 14.9943477 6.84289888 14.9943477 6.97841571 14.9943477 7.13045898 14.9100628 7.24531775 14.7414931 7.32299203 14.5729234 7.40066631 14.3134583 7.43950345 13.9630977 7.43950345 13.6953693 7.43950345 13.4441674 7.41223482 13.2094919 7.35769756 12.9748164 7.3031603 12.7649306 7.23788086 12.5798345 7.16185922 12.3649907 7.07592172 12.1989 6.99576848 12.0815622 6.92139949 11.9642245 6.8470305 11.8609342 6.77844576 11.7716914 6.71564528L11.7716914 6.71564528 11.6080797 6.71564528 11.6080797 8.18319336C11.852671 8.29557316 12.1765893 8.39803711 12.5798345 8.49058518 12.9830797 8.58313326 13.4325989 8.6294073 13.9283922 8.6294073zM20.9042035 8.62444937C21.2743958 8.62444937 21.6123615 8.58561223 21.9181007 8.50793795 22.2238399 8.43026367 22.5171842 8.32532076 22.7981337 8.19310922L22.7981337 8.19310922 22.7981337 6.67102388 22.5452792 6.67102388C22.4725628 6.74043494 22.3932359 6.81149864 22.3072984 6.88421499 22.2213609 6.95693134 22.1222023 7.02634239 22.0098224 7.09244816 21.8908321 7.16185922 21.7412678 7.22218074 21.5611295 7.27341271 21.3809913 7.32464468 21.1785424 7.35026066 20.9537828 7.35026066 20.4712107 7.35026066 20.0985394 7.21143855 19.835769 6.93379432 19.5729985 6.65615009 19.4416133 6.24959961 19.4416133 5.71414287 19.4416133 5.19521259 19.5696932 4.7845305 19.8258531 4.4820966 20.082013 4.17966271 20.4480737 4.02844576 20.9240352 4.02844576 21.1388789 4.02844576 21.3272804 4.0524091 21.4892395 4.10033578 21.6511987 4.14826247 21.7999366 4.20858398 21.9354535 4.28130033 22.0775809 4.35732196 22.1973976 4.43499624 22.2949036 4.51432316 22.3924096 4.59365009 22.4758681 4.66306114 22.5452792 4.72255634L22.5452792 4.72255634 22.7981337 4.72255634 22.7981337 3.200471C22.5204895 3.06825946 22.2213609 2.96083759 21.9007479 2.87820537 21.5801349 2.79557316 21.2297744 2.75425706 20.8496662 2.75425706 20.4265893 2.75425706 20.0183862 2.80879432 19.6250568 2.91786884 19.2317275 3.02694336 18.8846722 3.19881836 18.583891 3.43349384 18.2731938 3.68139047 18.0310815 3.99374023 17.8575538 4.37054312 17.6840262 4.747346 17.5972624 5.19521259 17.5972624 5.71414287 17.5972624 6.20663086 17.6782419 6.63631836 17.8402011 7.00320537 18.0021602 7.37009239 18.2302251 7.67417893 18.5243958 7.91546499 18.8218717 8.15675105 19.171406 8.33523662 19.5729985 8.45092172 19.9745911 8.56660682 20.4183261 8.62444937 20.9042035 8.62444937zM34.2501803 8.48066969L36.3969652 2.91291128 34.5476563 2.91291128 33.2734676 6.74043532 31.9844051 2.91291128 30.0954328 2.91291128 32.2273438 8.48066969 34.2501803 8.48066969zM40.4426383 8.62940767C40.8756311 8.62940767 41.270613 8.5930495 41.6275842 8.52033315 41.9845553 8.44761681 42.3646635 8.33027907 42.7679087 8.16831993L42.7679087 8.16831993 42.7679087 6.73547738 42.5695914 6.73547738C42.3646635 6.89082594 42.0853666 7.03625863 41.7317008 7.17177546 41.3780349 7.30729229 41.0128005 7.3750507 40.6359977 7.3750507 40.0410457 7.3750507 39.5907002 7.25936561 39.284961 7.02799541 38.9792218 6.79662522 38.8131311 6.46279109 38.7866888 6.02649301L38.7866888 6.02649301 42.8720253 6.02649301 42.8720253 5.40179349C42.8720253 4.54241849 42.6439604 3.88383976 42.1878306 3.42605731 41.7317008 2.96827486 41.0508114 2.73938363 40.1451623 2.73938363 39.1634916 2.73938363 38.3908805 3.00793832 37.8273288 3.5450477 37.2637771 4.08215707 36.9820013 4.81014686 36.9820013 5.72901705 36.9820013 6.65780311 37.2794772 7.37339806 37.8744291 7.8758019 38.4693811 8.37820575 39.3254508 8.62940767 40.4426383 8.62940767zM41.0970854 4.98036921L38.7817308 4.98036921C38.8081731 4.58703988 38.9321215 4.30113243 39.1535758 4.12264686 39.3750301 3.94416128 39.6576323 3.85491849 40.0013823 3.85491849 40.3715746 3.85491849 40.6442609 3.94911921 40.8194412 4.13752065 40.9946215 4.3259221 41.0871695 4.60687162 41.0970854 4.98036921L41.0970854 4.98036921zM45.916196 8.48066969L45.916196 4.75230431C46.1409556 4.67297738 46.3508414 4.61678748 46.5458534 4.5837346 46.7408654 4.55068171 46.9656251 4.53415527 47.2201323 4.53415527 47.3325121 4.53415527 47.4729868 4.54076585 47.6415565 4.553987 47.8101263 4.56720815 47.9324219 4.58703988 48.0084436 4.61348219L48.0084436 4.61348219 48.1670974 4.61348219 48.1670974 2.91291128C48.1076022 2.9063007 48.0381912 2.90134277 47.9588642 2.89803748 47.8795373 2.89473219 47.8084736 2.89307955 47.7456731 2.89307955 47.5010818 2.89307955 47.2333534 2.94844313 46.942488 3.05917029 46.6516227 3.16989746 46.3095253 3.39383075 45.916196 3.73097017L45.916196 3.73097017 45.916196 2.91291128 44.1313402 2.91291128 44.1313402 8.48066969 45.916196 8.48066969z"/></g></svg>