<svg xmlns="http://www.w3.org/2000/svg" xmlns:xlink="http://www.w3.org/1999/xlink" viewBox="0 0 24 24" width="currentSize" height="currentSize"><defs><path id="more-vertical-a" d="M12.5,15.5 C13.3284271,15.5 14,16.1715729 14,17 C14,17.8284271 13.3284271,18.5 12.5,18.5 C11.6715729,18.5 11,17.8284271 11,17 C11,16.1715729 11.6715729,15.5 12.5,15.5 Z M12.5,10.5 C13.3284271,10.5 14,11.1715729 14,12 C14,12.8284271 13.3284271,13.5 12.5,13.5 C11.6715729,13.5 11,12.8284271 11,12 C11,11.1715729 11.6715729,10.5 12.5,10.5 Z M12.5,5.5 C13.3284271,5.5 14,6.17157288 14,7 C14,7.82842712 13.3284271,8.5 12.5,8.5 C11.6715729,8.5 11,7.82842712 11,7 C11,6.17157288 11.6715729,5.5 12.5,5.5 Z"/></defs><g fill="none" fill-rule="evenodd"><mask id="more-vertical-b" fill="currentColor"><use xlink:href="#more-vertical-a"/></mask><use fill="currentColor" xlink:href="#more-vertical-a"/><rect width="24" height="24" fill="currentColor" mask="url(#more-vertical-b)"/></g></svg>