<svg xmlns="http://www.w3.org/2000/svg" xmlns:xlink="http://www.w3.org/1999/xlink" viewBox="0 0 24 24" width="currentSize" height="currentSize"><defs><path id="email-a" d="M19.145,5 C20.6610216,5 21.89,6.22897836 21.89,7.745 L21.89,17.645 C21.89,19.1610216 20.6610216,20.39 19.145,20.39 L4.745,20.39 C3.22897836,20.39 2,19.1610216 2,17.645 L2,7.745 C2,6.22897836 3.22897836,5 4.745,5 L19.145,5 Z M14.506,14.407 L13.539824,15.0725873 C12.6358963,15.6948778 11.4588029,15.7314831 10.5227381,15.1824033 L10.350176,15.0725873 L9.383,14.407 L5.29,18.5 L18.599,18.5 L14.506,14.407 Z M20,10.624 L16.165,13.264 L20,17.099 L20,10.624 Z M3.89,10.625 L3.89,17.098 L7.724,13.264 L3.89,10.625 Z M19.145,6.89 L4.745,6.89 C4.27279654,6.89 3.89,7.27279654 3.89,7.745 L3.89,8.166 L11.4984493,13.4046265 C11.733753,13.5666165 12.0351653,13.5868652 12.2869961,13.4653727 L12.3915507,13.4046265 L20,8.165 L20,7.745 C20,7.27279654 19.6172035,6.89 19.145,6.89 Z"/></defs><g fill="none" fill-rule="evenodd"><mask id="email-b" fill="currentColor"><use xlink:href="#email-a"/></mask><use fill="currentColor" fill-rule="nonzero" xlink:href="#email-a"/><rect width="24" height="24" fill="currentColor" mask="url(#email-b)"/></g></svg>
