<svg xmlns="http://www.w3.org/2000/svg" xmlns:xlink="http://www.w3.org/1999/xlink" viewBox="0 0 24 24" width="currentSize" height="currentSize"><defs><path id="expand-a" d="M10.71,13.29 C10.8993127,13.4777666 11.0057983,13.7333625 11.0057983,14 C11.0057983,14.2666375 10.8993127,14.5222334 10.71,14.71 L5.41,20 L8,20 C8.55228475,20 9,20.4477153 9,21 C9,21.5522847 8.55228475,22 8,22 L3,22 C2.44771525,22 2,21.5522847 2,21 L2,16 C2,15.4477153 2.44771525,15 3,15 C3.55228475,15 4,15.4477153 4,16 L4,18.59 L9.29,13.29 C9.4777666,13.1006873 9.73336246,12.9942017 10,12.9942017 C10.2666375,12.9942017 10.5222334,13.1006873 10.71,13.29 Z M21,2 L16,2 C15.4477153,2 15,2.44771525 15,3 C15,3.55228475 15.4477153,4 16,4 L18.59,4 L13.29,9.29 C13.1006873,9.4777666 12.9942017,9.73336246 12.9942017,10 C12.9942017,10.2666375 13.1006873,10.5222334 13.29,10.71 C13.4777666,10.8993127 13.7333625,11.0057983 14,11.0057983 C14.2666375,11.0057983 14.5222334,10.8993127 14.71,10.71 L20,5.41 L20,8 C20,8.55228475 20.4477153,9 21,9 C21.5522847,9 22,8.55228475 22,8 L22,3 C22,2.44771525 21.5522847,2 21,2 Z"/></defs><g fill="none" fill-rule="evenodd"><mask id="expand-b" fill="currentColor"><use xlink:href="#expand-a"/></mask><use fill="currentColor" fill-rule="nonzero" xlink:href="#expand-a"/><rect width="24" height="24" fill="currentColor" mask="url(#expand-b)" transform="rotate(90 12 12)"/><rect width="24" height="24" fill="currentColor" mask="url(#expand-b)" opacity="0" transform="rotate(90 12 12)"/></g></svg>