<svg xmlns="http://www.w3.org/2000/svg" viewBox="0 0 24 24" width="currentSize" height="currentSize"><path fill="currentColor" d="M23.7448904,11.8724452 C23.7448904,5.31597041 18.42892,-3.37507799e-14 11.8724452,-3.37507799e-14 C5.31597041,-3.37507799e-14 -7.10542736e-15,5.31597041 -7.10542736e-15,11.8724452 C-7.10542736e-15,17.7978155 4.34093061,22.7097454 10.0175322,23.6013058 L10.0175322,15.3051196 L7.00225499,15.3051196 L7.00225499,11.8724452 L10.0175322,11.8724452 L10.0175322,9.25619973 C10.0175322,6.28099267 11.7906354,4.63644781 14.5020474,4.63644781 C15.8009874,4.63644781 17.1600326,4.86852064 17.1600326,4.86852064 L17.1600326,7.79030086 L15.6624116,7.79030086 C14.1881647,7.79030086 13.7273583,8.70523546 13.7273583,9.6452139 L13.7273583,11.8724452 L17.0197872,11.8724452 L16.4938667,15.3051196 L13.7273583,15.3051196 L13.7273583,23.6013058 C19.4039598,22.711415 23.7448904,17.7994851 23.7448904,11.8724452 Z"/></svg>