<svg xmlns="http://www.w3.org/2000/svg" viewBox="0 0 24 24" width="currentSize" height="currentSize"><path fill="currentColor" d="M11.928,-2.38031816e-12 C18.648,-2.38031816e-12 23.856,4.9224 23.856,11.5704 C23.856,18.2184 18.648,23.1408 11.928,23.1408 C10.7208,23.1408 9.5616,22.9824 8.4744,22.6824 C8.2632,22.6248 8.04,22.6416 7.8384,22.7304 L7.8384,22.7304 L5.472,23.7744 C4.8528,24.0456 4.1544,23.6064 4.1328,22.9296 L4.1328,22.9296 L4.068,20.808 C4.0584,20.5464 3.9408,20.304 3.7464,20.1288 C1.4256,18.0528 -5.86197757e-13,15.048 -5.86197757e-13,11.5704 C-5.86197757e-13,4.9224 5.208,-2.38031816e-12 11.928,-2.38031816e-12 Z M19.0896,8.904 C19.428,8.3712 18.7704,7.7688 18.2688,8.1504 L18.2688,8.1504 L14.5056,11.0064 C14.2512,11.1984 13.9008,11.2008 13.644,11.0088 L13.644,11.0088 L10.8576,8.9184 C10.0224,8.292 8.8272,8.5128 8.2704,9.396 L8.2704,9.396 L4.7664,14.9544 C4.428,15.4872 5.0856,16.0896 5.5872,15.708 L5.5872,15.708 L9.3528,12.8496 C9.6072,12.6576 9.9576,12.6552 10.2144,12.8472 L10.2144,12.8472 L13.0008,14.9376 C13.836,15.564 15.0312,15.3432 15.588,14.46 L15.588,14.46 Z"/></svg>