<svg xmlns="http://www.w3.org/2000/svg" xmlns:xlink="http://www.w3.org/1999/xlink" width="currentSize" height="currentSize" viewBox="0 0 24 24"><defs><path id="a" d="M12.2539528,2 L12.3079929,2.05020011 C17.6883431,2.21259454 22,6.61531304 22,12.022779 C22,17.533046 17.5228475,22 12,22 C6.4771525,22 2,17.533046 2,12.022779 C2,6.51251206 6.4771525,2.04555809 12,2.04555809 C12.0701218,2.04555809 12.140075,2.04627818 12.2098527,2.04771137 L12.2539528,2 Z M18.9196454,16.5337323 L15.6815567,16.5339073 C15.1864664,17.8037873 14.4853299,19.0151182 13.5757669,20.1180222 C15.8069097,19.689357 17.7183283,18.3643958 18.9196454,16.5337323 Z M7.88657251,16.533532 L5.08035461,16.5337323 C6.16036726,18.1795424 7.81431513,19.4166217 9.75850819,19.9619263 C8.94903252,18.8961695 8.32615566,17.7393394 7.88657251,16.533532 Z M13.7974461,16.5334135 L9.75267629,16.5339912 C10.2237666,17.6304734 10.8756962,18.6708853 11.7105615,19.611307 L11.8586183,19.4531326 C12.6721027,18.560338 13.3177652,17.5742435 13.7974461,16.5334135 Z M7.22549801,10.1548355 L3.9482495,10.1542576 C3.80884627,10.7546259 3.73515982,11.3801169 3.73515982,12.022779 C3.73515982,12.9978682 3.90479298,13.9334276 4.21622217,14.8016836 L7.38729809,14.8018772 C7.05790308,13.2711359 7.00521576,11.6960149 7.22549801,10.1548355 Z M14.730677,10.1542903 L8.98108652,10.1541353 C8.72690085,11.6934083 8.78774305,13.277436 9.16859198,14.8019003 L14.4306504,14.801724 C14.8497686,13.2835747 14.9481142,11.6995808 14.730677,10.1542903 Z M20.0517505,10.1542576 L16.4806058,10.154094 C16.6691768,11.70007 16.5841695,13.2754629 16.2218376,14.801783 L19.7837778,14.8016836 C20.095207,13.9334276 20.2648402,12.9978682 20.2648402,12.022779 C20.2648402,11.3801169 20.1911537,10.7546259 20.0517505,10.1542576 Z M9.75381863,4.08536574 L9.57106694,4.13861726 C7.36705478,4.81372512 5.55547074,6.38355139 4.56200324,8.42337733 L7.59284397,8.42331013 C8.02961676,6.88255912 8.7512806,5.40852378 9.75381863,4.08536574 Z M11.9598968,4.16227125 L11.9020282,4.22288466 C10.7455858,5.45989319 9.91223609,6.89750223 9.40732751,8.42365231 L14.3489253,8.42388242 C13.8814329,6.88326494 13.0832918,5.42505179 11.9598968,4.16227125 Z M14.0836712,4.04105524 L14.2265229,4.2413844 C15.1243087,5.53096388 15.7670236,6.94924518 16.1511993,8.42355937 L19.4379968,8.42337733 C18.393118,6.27799189 16.443258,4.65250905 14.0836712,4.04105524 Z"/></defs><g fill="none" fill-rule="evenodd"><mask id="b" fill="currentColor"><use xlink:href="#a"/></mask><use xlink:href="#a" fill="currentColor" fill-rule="nonzero"/><rect width="24" height="24" fill="currentColor" mask="url(#b)"/></g></svg>
