<svg xmlns="http://www.w3.org/2000/svg" viewBox="0 0 24 24" width="currentSize" height="currentSize"><path fill="currentColor" d="M13.5257329,14.8656882 L13.5257329,14.8656882 C13.5250941,15.4326589 13.0363456,15.8930969 12.4345141,15.8930969 C11.8326826,15.8930969 11.3432952,15.4326589 11.3432952,14.8656882 L11.3432952,14.8656882 C11.3375453,14.5695634 11.3343508,14.391407 11.3343508,14.3258021 C11.3343508,13.6619288 11.4512671,13.1166258 11.6863775,12.6862818 C11.9189323,12.2589472 12.3846809,11.7762396 13.0855399,11.2387611 C13.7870377,10.7042919 14.2061475,10.353396 14.3428693,10.1860734 C14.5549798,9.92305199 14.6603961,9.63234409 14.6603961,9.31695912 C14.6603961,8.8811982 14.4738411,8.50562526 14.0981756,8.19565721 C13.7257046,7.88267975 13.2222617,7.72679291 12.5884858,7.72679291 C11.9770711,7.72679291 11.4678782,7.89110607 11.0551572,8.21732488 C10.6449918,8.54655308 10.3626038,9.04551137 10.2086321,9.71720913 L10.2086321,9.71720913 C10.1396323,10.2318163 9.67324484,10.6296588 9.1084688,10.6296588 C8.49641513,10.6296588 8,10.1626001 8,9.58599935 C8,9.54085837 8.00255555,9.49752303 8.00830553,9.45418769 L8.00830553,9.45418769 C8.07219422,8.49178203 8.50599844,7.67804065 9.31227373,7.00634289 C10.118549,6.33404324 11.1778235,6 12.4869028,6 C13.8662597,6 14.9632285,6.34006204 15.7778093,7.01717672 C16.5923901,7.6942914 17,8.48094819 17,9.38316589 C17,9.87911477 16.8517782,10.353396 16.5521403,10.7975832 C16.2525023,11.2411686 15.6148932,11.8478633 14.6342017,12.61526 C14.1282033,13.0100931 13.8138709,13.3308949 13.6912047,13.5716468 C13.5691773,13.8130006 13.514233,14.2433446 13.5257329,14.8656882 L13.5257329,14.8656882 Z M12.4345141,16.6622992 C13.1200398,16.6622992 13.6752325,17.1859345 13.6752325,17.8311496 C13.6752325,18.4769665 13.1200398,19 12.4345141,19 C11.7489884,19 11.1937957,18.4769665 11.1937957,17.8311496 C11.1937957,17.1859345 11.7489884,16.6622992 12.4345141,16.6622992 Z"/></svg>