<svg xmlns="http://www.w3.org/2000/svg" xmlns:xlink="http://www.w3.org/1999/xlink" viewBox="0 0 24 24" width="currentSize" height="currentSize"><defs><path id="home-a" d="M13.1485083,3.16409905 L13.2886646,3.26708535 L23.187747,11.2204425 C23.6182847,11.5663554 23.6868867,12.195793 23.3409738,12.6263307 C23.0216696,13.0237501 22.4607822,13.1127746 22.0377516,12.8520492 L21.9350856,12.7795575 L21.0382256,12.0592003 L21.0389018,19.1193639 C21.0389018,20.7170448 19.7899818,22.0230248 18.2151746,22.1142712 L18.0389018,22.1193639 L6.0389018,22.1193639 C4.44122091,22.1193639 3.13524092,20.870444 3.04399449,19.2956367 L3.0389018,19.1193639 L3.03822564,11.9872003 L2.04105895,12.7823851 C1.60895958,13.1263453 0.979839042,13.0548943 0.635878901,12.6227949 C0.318377232,12.223934 0.354835321,11.657197 0.702180823,11.3018328 L0.795469094,11.2176149 L10.7904134,3.26143007 C11.4763444,2.71541466 12.4311472,2.68335303 13.1485083,3.16409905 Z M12.0360032,4.82620029 L5.03822564,10.3952003 L5.0389018,19.1193639 C5.0389018,19.6321998 5.42494199,20.0548711 5.92228067,20.1126362 L6.0389018,20.1193639 L8.44422564,20.1192003 L8.44508018,15.2805809 C8.44508018,14.2262191 9.26095797,13.3624158 10.2958178,13.2860667 L10.4450802,13.2805809 L13.5871073,13.2805809 C14.6414691,13.2805809 15.5052724,14.0964587 15.5816215,15.1313186 L15.5871073,15.2805809 L15.5862256,20.1192003 L18.0389018,20.1193639 C18.5517376,20.1193639 18.974409,19.7333237 19.0321741,19.2359851 L19.0389018,19.1193639 L19.0382256,10.4522003 L12.0360032,4.82620029 Z M13.5871073,15.2805809 L10.4450802,15.2805809 L10.4442256,20.1192003 L13.5862256,20.1192003 L13.5871073,15.2805809 Z"/></defs><g fill="none" fill-rule="evenodd"><mask id="home-b" fill="currentColor"><use xlink:href="#home-a"/></mask><use fill="currentColor" fill-rule="nonzero" xlink:href="#home-a"/><rect width="24" height="24" fill="currentColor" mask="url(#home-b)"/></g></svg>