<svg xmlns="http://www.w3.org/2000/svg" viewBox="0 0 24 24" width="currentSize" height="currentSize"><path fill="currentColor" d="M22,11 C22,13.2102804 22,14.7009346 21.9485981,15.5233645 C21.8457944,17.5280374 21.2803738,19.0700935 20.1495327,20.1495327 C19.0186916,21.228972 17.5280374,21.8457944 15.5233645,21.9485981 C14.7009346,22 13.1588785,22 11,22 C8.78971963,22 7.29906542,22 6.47663551,21.9485981 C4.47196262,21.8457944 2.92990654,21.2803738 1.85046729,20.1495327 C0.771028037,19.0700935 0.154205607,17.5280374 0.0514018692,15.5233645 C0,14.7009346 0,13.1588785 0,11 C0,8.8411215 0,7.29906542 0.0514018692,6.47663551 C0.154205607,4.47196262 0.719626168,2.92990654 1.85046729,1.85046729 C2.92990654,0.771028037 4.47196262,0.154205607 6.47663551,0.0514018692 C7.29906542,0 8.8411215,0 11,0 C13.2102804,0 14.7009346,0 15.5233645,0.0514018692 C17.5280374,0.154205607 19.0700935,0.719626168 20.1495327,1.85046729 C21.228972,2.98130841 21.8457944,4.47196262 21.9485981,6.47663551 C21.9485981,7.29906542 22,8.78971963 22,11 Z M12.0794393,1.95327103 C11.411215,1.95327103 11.0514019,1.95327103 11,1.95327103 C10.9485981,1.95327103 10.588785,1.95327103 9.92056075,1.95327103 C9.25233645,1.95327103 8.73831776,1.95327103 8.42990654,1.95327103 C8.07009346,1.95327103 7.60747664,1.95327103 7.04205607,2.0046729 C6.47663551,2.0046729 5.96261682,2.05607477 5.55140187,2.1588785 C5.14018692,2.21028037 4.78037383,2.31308411 4.52336449,2.41588785 C4.06074766,2.62149533 3.64953271,2.87850467 3.23831776,3.23831776 C2.87850467,3.59813084 2.62149533,4.00934579 2.41588785,4.52336449 C2.31308411,4.78037383 2.21028037,5.14018692 2.1588785,5.55140187 C2.10747664,5.96261682 2.05607477,6.42523364 2.0046729,7.04205607 C2.0046729,7.60747664 1.95327103,8.07009346 1.95327103,8.42990654 C1.95327103,8.78971963 1.95327103,9.30373832 1.95327103,9.92056075 C1.95327103,10.588785 1.95327103,10.9485981 1.95327103,11 C1.95327103,11.0514019 1.95327103,11.411215 1.95327103,12.0794393 C1.95327103,12.7476636 1.95327103,13.2616822 1.95327103,13.5700935 C1.95327103,13.9299065 1.95327103,14.3925234 2.0046729,14.9579439 C2.0046729,15.5233645 2.05607477,16.0373832 2.1588785,16.4485981 C2.26168224,16.8598131 2.31308411,17.2196262 2.41588785,17.4766355 C2.62149533,17.9392523 2.87850467,18.3504673 3.23831776,18.7616822 C3.59813084,19.1214953 4.00934579,19.3785047 4.52336449,19.5841121 C4.78037383,19.6869159 5.14018692,19.7897196 5.55140187,19.8411215 C5.96261682,19.8925234 6.42523364,19.9439252 7.04205607,19.9953271 C7.6588785,20.046729 8.07009346,20.046729 8.42990654,20.046729 C8.78971963,20.046729 9.30373832,20.046729 9.92056075,20.046729 C10.588785,20.046729 10.9485981,20.046729 11,20.046729 C11.0514019,20.046729 11.411215,20.046729 12.0794393,20.046729 C12.7476636,20.046729 13.2616822,20.046729 13.5700935,20.046729 C13.9299065,20.046729 14.3925234,20.046729 14.9579439,19.9953271 C15.5233645,19.9953271 16.0373832,19.9439252 16.4485981,19.8411215 C16.8598131,19.7897196 17.2196262,19.6869159 17.4766355,19.5841121 C17.9392523,19.3785047 18.3504673,19.1214953 18.7616822,18.7616822 C19.1214953,18.4018692 19.3785047,17.9906542 19.5841121,17.4766355 C19.6869159,17.2196262 19.7897196,16.8598131 19.8411215,16.4485981 C19.8925234,16.0373832 19.9439252,15.5747664 19.9953271,14.9579439 C19.9953271,14.3925234 20.046729,13.9299065 20.046729,13.5700935 C20.046729,13.2102804 20.046729,12.6962617 20.046729,12.0794393 C20.046729,11.411215 20.046729,11.0514019 20.046729,11 C20.046729,10.9485981 20.046729,10.588785 20.046729,9.92056075 C20.046729,9.25233645 20.046729,8.73831776 20.046729,8.42990654 C20.046729,8.07009346 20.046729,7.60747664 19.9953271,7.04205607 C19.9953271,6.47663551 19.9439252,5.96261682 19.8411215,5.55140187 C19.7897196,5.14018692 19.6869159,4.78037383 19.5841121,4.52336449 C19.3785047,4.06074766 19.1214953,3.64953271 18.7616822,3.23831776 C18.4018692,2.87850467 17.9906542,2.62149533 17.4766355,2.41588785 C17.2196262,2.31308411 16.8598131,2.21028037 16.4485981,2.1588785 C16.0373832,2.10747664 15.5747664,2.05607477 14.9579439,2.0046729 C14.3925234,2.0046729 13.9299065,1.95327103 13.5700935,1.95327103 C13.2616822,1.95327103 12.7476636,1.95327103 12.0794393,1.95327103 Z M14.9579439,6.99065421 C16.0373832,8.07009346 16.6028037,9.40654206 16.6028037,11 C16.6028037,12.5934579 16.0373832,13.8785047 14.9579439,15.0093458 C13.8785047,16.088785 12.5420561,16.6542056 10.9485981,16.6542056 C9.35514019,16.6542056 8.07009346,16.088785 6.93925234,15.0093458 C5.85981308,13.9299065 5.29439252,12.5934579 5.29439252,11 C5.29439252,9.40654206 5.85981308,8.12149533 6.93925234,6.99065421 C8.01869159,5.91121495 9.35514019,5.34579439 10.9485981,5.34579439 C12.5420561,5.34579439 13.8785047,5.85981308 14.9579439,6.99065421 Z M13.5700935,13.5700935 C14.2897196,12.8504673 14.6495327,11.9766355 14.6495327,11 C14.6495327,10.0233645 14.2897196,9.09813084 13.5700935,8.37850467 C12.8504673,7.6588785 11.9766355,7.29906542 10.9485981,7.29906542 C9.92056075,7.29906542 9.04672897,7.6588785 8.3271028,8.37850467 C7.60747664,9.09813084 7.24766355,9.97196262 7.24766355,11 C7.24766355,12.0280374 7.60747664,12.9018692 8.3271028,13.5700935 C9.04672897,14.2897196 9.92056075,14.6495327 10.9485981,14.6495327 C11.9766355,14.6495327 12.8504673,14.2897196 13.5700935,13.5700935 Z M17.7850467,4.1635514 C18.0420561,4.42056075 18.1962617,4.72897196 18.1962617,5.08878505 C18.1962617,5.44859813 18.0420561,5.75700935 17.7850467,6.01401869 C17.5280374,6.27102804 17.2196262,6.42523364 16.8598131,6.42523364 C16.5,6.42523364 16.1915888,6.27102804 15.9345794,6.01401869 C15.6775701,5.75700935 15.5233645,5.44859813 15.5233645,5.08878505 C15.5233645,4.72897196 15.6775701,4.42056075 15.9345794,4.1635514 C16.1915888,3.90654206 16.5,3.75233645 16.8598131,3.75233645 C17.2196262,3.75233645 17.5280374,3.90654206 17.7850467,4.1635514 Z" transform="translate(1 1)"/></svg>