<svg xmlns="http://www.w3.org/2000/svg" viewBox="0 0 24 24" width="currentSize" height="currentSize"><path fill="currentColor" d="M12,2 C18.0751731,2 23,5.82540225 23,10.5441937 C23,15.2630894 18.0751731,19.0883875 12,19.0883875 C11.3332308,19.0883875 10.6803173,19.0424364 10.0462308,18.9539727 C9.41150962,19.3946239 5.74438462,21.9322494 5.39830769,21.9798677 C5.39830769,21.9798677 5.25636538,22.0342588 5.13568269,21.964238 C5.015,21.8942173 5.03689423,21.7106214 5.03689423,21.7106214 C5.07327885,21.4662783 5.98754808,18.3559833 6.15603846,17.7835224 C3.05890385,16.2719295 1,13.5949919 1,10.5441937 C1,5.82540225 5.92482692,2 12,2 Z M7.54309615,7.99135536 L4.29344231,7.99135536 C3.95011538,7.99135536 3.67067308,8.26601993 3.67067308,8.60351558 C3.67067308,8.94101124 3.95000962,9.21567581 4.29344231,9.21567581 L4.29344231,9.21567581 L5.28365385,9.21567581 L5.28365385,12.9297951 C5.28365385,13.2590592 5.56827885,13.5268467 5.91826923,13.5268467 C6.26825962,13.5268467 6.55288462,13.2590592 6.55288462,12.9297951 L6.55288462,12.9297951 L6.55288462,9.21567581 L7.54309615,9.21567581 C7.88642308,9.21567581 8.16586538,8.94101124 8.16586538,8.60351558 C8.16586538,8.26601993 7.88652885,7.99135536 7.54309615,7.99135536 L7.54309615,7.99135536 Z M9.67254808,7.99145956 C9.25920192,8.00073314 8.93438462,8.30915769 8.82745192,8.60851706 L8.82745192,8.60851706 L7.30945192,12.5446812 C7.11674038,13.1343348 7.28491346,13.3529411 7.45985577,13.4324438 C7.58646586,13.4894326 7.72405997,13.5188597 7.86325962,13.5187198 C8.12789423,13.5187198 8.33023077,13.4129589 8.39104808,13.2430128 L8.39104808,13.2430128 L8.7055,12.4320438 L10.6406538,12.432148 L10.9548942,13.242596 C11.0159231,13.4128547 11.2183654,13.5187198 11.483,13.5187198 L11.483,13.5187198 L11.483,13.5187198 L11.6213037,13.509067 C11.7126884,13.4961763 11.801977,13.4704731 11.8864038,13.432548 C12.0613462,13.3532537 12.2295192,13.1345432 12.0363846,12.5435351 L12.0363846,12.5435351 L10.5190192,8.60914225 C10.411875,8.30915769 10.0870577,8.00062894 9.67254808,7.99145956 Z M16.5834038,7.99135536 C16.2334135,7.99135536 15.9487885,8.27175079 15.9487885,8.61654027 L15.9487885,8.61654027 L15.9487885,12.8935344 C15.9487885,13.2383239 16.2334135,13.5187193 16.5834038,13.5187193 C16.933857,13.51826 17.2178229,13.2384673 17.2182308,12.8932218 L17.2182308,12.8932218 L17.2182308,11.5291726 L17.4384423,11.3122334 L18.9267212,13.2548913 C19.0462296,13.4121336 19.2342788,13.5043165 19.4336731,13.5034023 C19.5715195,13.5037341 19.7056509,13.4593952 19.8153942,13.3772191 C19.9501023,13.2777202 20.0387748,13.1292394 20.061625,12.9649097 C20.0855412,12.8006823 20.0416548,12.6338625 19.9397788,12.5017519 L19.9397788,12.5017519 L18.3776731,10.4630239 L19.8238558,9.03854008 C19.9232788,8.94049025 19.9730962,8.80534611 19.9638942,8.65790667 C19.9547981,8.5117176 19.8884808,8.3709468 19.7773173,8.26153944 C19.6581154,8.14421307 19.4990385,8.0769015 19.3405962,8.0769015 C19.2047885,8.0769015 19.0796635,8.1262911 18.9885962,8.21600514 L18.9885962,8.21600514 L17.2180192,9.96027103 L17.2180192,8.61654027 C17.2180192,8.27175079 16.9333942,7.99135536 16.5834038,7.99135536 Z M13.0973558,7.99135536 C12.7401731,7.99135536 12.4495192,8.27175079 12.4495192,8.61654027 L12.4495192,8.61654027 L12.4495192,12.8625878 C12.4495192,13.1785145 12.7222981,13.4356739 13.0576923,13.4356739 L13.0576923,13.4356739 L15.09375,13.4356739 C15.4291442,13.4356739 15.7019231,13.1785145 15.7019231,12.8625878 C15.7019231,12.546661 15.4291442,12.2895016 15.09375,12.2895016 L15.09375,12.2895016 L13.7451923,12.2895016 L13.7451923,8.61654027 C13.7451923,8.27175079 13.4545385,7.99135536 13.0973558,7.99135536 Z M9.67307692,9.55077492 L10.3069519,11.3247371 L9.03920192,11.3247371 L9.67307692,9.55077492 Z"/></svg>