<svg xmlns="http://www.w3.org/2000/svg" viewBox="0 0 24 24" width="currentSize" height="currentSize"><path fill="currentColor" d="M11.1101414,0.158324546 C12.2648332,0.64483798 17.2370738,3.75573961 19.6496584,6.39581616 L19.8391123,6.60878356 C21.4492778,8.37442792 22.2204959,10.1662694 22.2204959,12.1559738 C22.2204959,17.1274661 17.2366505,21.1720483 11.1101414,21.1720483 C4.98448432,21.1720483 0,17.1274661 0,12.1559738 C0,7.69905298 3.95257275,3.96649357 9.29167684,3.26066179 C9.65353809,3.18270934 10.1459591,3.02211877 10.2705552,2.71286477 C10.3825852,2.43193776 10.343822,1.99191107 10.3063366,1.70821526 C10.3063366,1.70821526 10.1759899,0.924218048 10.1478759,0.757237929 C10.0995284,0.476310919 9.9246678,-0.3413379 11.1101414,0.158324546 Z M8.85284275,9.28527969 L8.07353121,9.28527969 C7.95404671,9.28527969 7.85692562,9.38197481 7.85692562,9.50124632 L7.85692562,9.50124632 L7.85692562,14.3423918 C7.85692562,14.4614504 7.95404671,14.5583585 8.07353121,14.5583585 L8.07353121,14.5583585 L8.85284275,14.5583585 C8.97232725,14.5583585 9.06923536,14.4614504 9.06923536,14.3423918 L9.06923536,14.3423918 L9.06923536,9.50124632 C9.06923536,9.38197481 8.97232725,9.28527969 8.85284275,9.28527969 L8.85284275,9.28527969 Z M10.8225046,9.28527969 L10.043406,9.28527969 C9.9239215,9.28527969 9.82680041,9.38197481 9.82680041,9.50124632 L9.82680041,9.50124632 L9.82680041,14.3423918 C9.82680041,14.4614504 9.9239215,14.5583585 10.043406,14.5583585 L10.043406,14.5583585 L10.8263383,14.5581455 L10.8263383,14.5581455 L10.830172,14.5579325 L10.8412472,14.5572936 C10.845081,14.5568676 10.8489147,14.5566546 10.8527484,14.5558027 C10.8557302,14.5555897 10.858925,14.5551637 10.8619068,14.5547377 C10.8659535,14.5538858 10.8700002,14.5528209 10.8742599,14.5519689 C10.8768157,14.551117 10.8793715,14.550691 10.8817143,14.5498391 C10.886187,14.5487742 10.8904467,14.5472833 10.8947064,14.5457924 C10.8970493,14.5449404 10.8991791,14.5440885 10.9017349,14.5432366 C10.9059946,14.5417457 10.9100413,14.5398288 10.914088,14.5379119 C10.9164309,14.53706 10.9185607,14.5357821 10.9209036,14.5347172 L10.9209036,14.5347172 L10.9324047,14.5281146 C10.9347476,14.5270497 10.9368774,14.5257718 10.9390073,14.5242809 C10.942841,14.5219381 10.9464617,14.5191693 10.9502955,14.5166134 L10.9531441,14.514457 L10.9558331,14.5121408 L10.9673343,14.5025564 L10.9673343,14.5025564 L10.9858639,14.4842398 C10.9918275,14.4772113 10.9975781,14.4699698 11.0026897,14.4623023 L11.0026897,14.4623023 L13.2211399,11.4662445 L13.2211399,14.3423918 C13.2211399,14.4614504 13.318048,14.5583585 13.4375325,14.5583585 L13.4375325,14.5583585 L14.216844,14.5583585 C14.3365415,14.5583585 14.4332366,14.4614504 14.4332366,14.3423918 L14.4332366,14.3423918 L14.4332366,9.50124632 C14.4332366,9.38197481 14.3365415,9.28527969 14.216844,9.28527969 L14.216844,9.28527969 L13.4375325,9.28527969 C13.4183638,9.28527969 13.3998342,9.28804849 13.3821564,9.29273416 C13.3810915,9.29294714 13.3800266,9.29337311 13.3789617,9.29337311 C13.374063,9.29486401 13.3693773,9.2963549 13.3642657,9.29827177 C13.3621359,9.29891072 13.360006,9.29976266 13.3578762,9.3006146 C13.3540424,9.30210549 13.3508477,9.30359639 13.3472269,9.30508728 C13.3438192,9.30657817 13.3401984,9.30828205 13.3370036,9.31019892 C13.3348738,9.31126384 13.3329569,9.31211578 13.3308271,9.31339369 L13.3241181,9.31736053 L13.317409,9.32148711 C13.2946197,9.33724799 13.275664,9.35492573 13.2603291,9.37665019 L13.2603291,9.37665019 L11.0391101,12.3765417 L11.0391101,9.50124632 C11.0391101,9.38197481 10.942202,9.28527969 10.8225046,9.28527969 L10.8225046,9.28527969 Z M6.97429555,9.2851937 L3.86088309,9.2851937 C3.80273823,9.2851937 3.75034396,9.30819606 3.71136773,9.3456814 L3.71136773,9.3456814 C3.66791882,9.3906212 3.64470347,9.44322846 3.64470347,9.50137332 L3.64470347,9.50137332 L3.64470347,14.3420929 C3.64470347,14.4615774 3.74161158,14.5584855 3.86109608,14.5584855 L3.86109608,14.5584855 L4.64062061,14.5584855 C4.75989212,14.5584855 4.85680023,14.4615774 4.85680023,14.3420929 L4.85680023,14.3420929 L4.85680023,10.4975034 L6.97429555,10.4975034 C7.09378005,10.4975034 7.19026219,10.4005953 7.19026219,10.2811108 L7.19026219,10.2811108 L7.19026219,9.50179929 C7.19026219,9.38231479 7.09378005,9.2851937 6.97429555,9.2851937 L6.97429555,9.2851937 Z M18.5204805,9.28519468 L15.4068551,9.28519468 C15.3489232,9.28519468 15.2963159,9.30841003 15.2575527,9.34568238 L15.2575527,9.34568238 C15.2141038,9.39062218 15.1908884,9.44322944 15.1908884,9.5013743 L15.1908884,9.5013743 L15.1908884,14.3420939 C15.1908884,14.4000257 15.2138908,14.45242 15.2509502,14.4911832 L15.2509502,14.4911832 C15.29589,14.5350581 15.3484972,14.5584865 15.4068551,14.5584865 L15.4068551,14.5584865 L18.5204805,14.5584865 C18.639965,14.5584865 18.7364471,14.4613654 18.7364471,14.3418809 L18.7364471,14.3418809 L18.7364471,13.5625693 C18.7364471,13.4428718 18.639965,13.3461767 18.5204805,13.3461767 L18.5204805,13.3461767 L16.4031982,13.3461767 L16.4031982,12.5281019 L18.5204805,12.5281019 C18.639965,12.5281019 18.7364471,12.4309808 18.7364471,12.3114963 L18.7364471,12.3114963 L18.7364471,11.5321848 C18.7364471,11.4127003 18.639965,11.3157922 18.5204805,11.3157922 L18.5204805,11.3157922 L16.4031982,11.3157922 L16.4031982,10.4975044 L18.5204805,10.4975044 C18.639965,10.4975044 18.7364471,10.4003833 18.7364471,10.2811118 L18.7364471,10.2811118 L18.7364471,9.50158728 C18.7364471,9.38231577 18.639965,9.28519468 18.5204805,9.28519468 L18.5204805,9.28519468 Z" transform="matrix(1 0 0 -1 1.04 23.066)"/></svg>