<svg xmlns="http://www.w3.org/2000/svg" viewBox="0 0 24 24" width="currentSize" height="currentSize"><path fill="currentColor" d="M17.5,0 C18.8807118,0 20,1.11928812 20,2.5 L20,17.5 C20,18.8807118 18.8807118,20 17.5,20 L2.5,20 C1.11928812,20 0,18.8807118 0,17.5 L0,2.5 C0,1.11928812 1.11928812,0 2.5,0 L17.5,0 Z M6.63461538,8.38286717 L4.01223776,8.38286717 L4.01223776,16.25 L6.63461538,16.25 L6.63461538,8.38286717 Z M13.1905594,8.20804196 C12.4038462,8.20804196 11.4423077,8.7325175 11.0052447,9.43181817 L11.0052447,9.43181817 L11.0052447,8.38286717 L8.38286717,8.38286717 L8.38286717,16.25 L11.0052447,16.25 L11.0052447,11.6171328 C11.0052447,10.9178664 11.6171328,10.3059441 12.3164336,10.3059441 C13.0157342,10.3059441 13.6276224,10.9178664 13.6276224,11.6171328 L13.6276224,11.6171328 L13.6276224,16.25 L16.25,16.25 L16.25,11.2674825 C16.25,9.60664333 14.8513986,8.20804196 13.1905594,8.20804196 Z M5.32342658,3.75 C4.4493007,3.75 3.75,4.4493007 3.75,5.32342658 C3.75,6.19755245 4.4493007,6.89685315 5.32342658,6.89685315 C6.19755245,6.89685315 6.89685315,6.19755245 6.89685315,5.32342658 C6.89685315,4.4493007 6.19755245,3.75 5.32342658,3.75 Z" transform="translate(2 2)"/></svg>