<svg xmlns="http://www.w3.org/2000/svg" xmlns:xlink="http://www.w3.org/1999/xlink" viewBox="0 0 24 24" width="currentSize" height="currentSize"><defs><path id="password-a" d="M12.55,1 C14.5106109,1 16.1,2.58938914 16.1,4.55 L16.1,4.55 L16.099,5.999 L17.05,6 C19.2189728,6 20.9897174,7.70501808 21.0950435,9.84786415 L21.1,10.05 L21.1,18.05 C21.1,20.2867532 19.2867532,22.1 17.05,22.1 L17.05,22.1 L7.05,22.1 C4.81324676,22.1 3,20.2867532 3,18.05 L3,18.05 L3,10.05 C3,7.81324676 4.81324676,6 7.05,6 L7.05,6 L7.999,5.999 L8,4.55 C8,2.65474283 9.48519585,1.10637174 11.3552214,1.00525285 L11.55,1 Z M17.05,8.1 L7.05,8.1 C5.97304474,8.1 5.1,8.97304474 5.1,10.05 L5.1,10.05 L5.1,18.05 C5.1,19.1269553 5.97304474,20 7.05,20 L7.05,20 L17.05,20 C18.1269553,20 19,19.1269553 19,18.05 L19,18.05 L19,10.05 C19,8.97304474 18.1269553,8.1 17.05,8.1 L17.05,8.1 Z M12.05,12.95 C12.6170123,12.95 13.0838239,13.3790107 13.1435453,13.9301429 L13.15,14.05 L13.15,15.5240638 C13.15,16.1315771 12.6575132,16.6240638 12.05,16.6240638 C11.4829877,16.6240638 11.0161761,16.1950531 10.9564547,15.643921 L10.95,15.5240638 L10.95,14.05 C10.95,13.4424868 11.4424868,12.95 12.05,12.95 Z M12.55,3.1 L11.55,3.1 C10.7491871,3.1 10.1,3.74918711 10.1,4.55 L10.1,4.55 L10.1,6 L14,6 L14,4.55 C14,3.79629375 13.4249415,3.17689961 12.6896447,3.10663769 L12.6896447,3.10663769 L12.55,3.1 Z"/></defs><g fill="none" fill-rule="evenodd"><mask id="password-b" fill="currentColor"><use xlink:href="#password-a"/></mask><use fill="currentColor" fill-rule="nonzero" xlink:href="#password-a"/><rect width="24" height="24" fill="currentColor" mask="url(#password-b)"/></g></svg>