<svg xmlns="http://www.w3.org/2000/svg" xmlns:xlink="http://www.w3.org/1999/xlink" width="currentSize" height="currentSize" viewBox="0 0 24 24"><defs><path id="a" d="M8.84044665,2.1 C13.2909462,2.1 17.0317662,5.40683206 17.6054183,9.78082593 L17.608,9.829 L22.6685703,13.3099849 C23.6859638,14.0099027 23.9763734,15.3719612 23.3593248,16.4199257 L23.2695401,16.5607914 C23.0863375,16.8270928 22.8516214,17.0501217 22.5820373,17.2185122 L22.5820373,17.2185122 L22.4919453,17.2704586 L22.8228256,17.8440113 C23.4629124,18.9526741 23.1238542,20.3579566 22.0739617,21.0585093 L22.0739617,21.0585093 L21.9390423,21.1423355 L21.3937449,21.4571631 C20.2388878,22.1239202 18.7621777,21.7282369 18.0954207,20.5733798 L18.0954207,20.5733798 L17.7661786,20.0011906 L17.6614497,20.0595083 C16.8495632,20.484916 15.8353393,20.4029933 15.0971123,19.7985317 L15.0971123,19.7985317 L14.976712,19.6929472 C14.5524372,19.2948205 14.2918796,18.7527828 14.2459664,18.1727776 L14.2459664,18.1727776 L13.7375074,11.7496036 C13.658469,10.751141 14.2247396,9.85050697 15.0862827,9.45791949 L13.0458029,9.45870162 C13.1910502,10.7083242 13.1344064,11.9788132 12.8733413,13.2170368 L12.9051112,13.2166253 C13.4021674,13.2166253 13.8051112,13.619569 13.8051112,14.1166253 C13.8051112,14.5754465 13.4617745,14.9540771 13.0180052,15.009613 L12.9051112,15.0166253 L12.3385189,15.0168045 C11.9767582,15.9492794 11.4894646,16.8460878 10.8754315,17.6818933 C11.3818305,17.5301031 11.8697914,17.3201208 12.330978,17.0562634 C12.7624138,16.8094272 13.3122618,16.9590748 13.559098,17.3905106 C13.8059342,17.8219464 13.6562866,18.3717944 13.2248508,18.6186306 C11.9004792,19.3763397 10.3988652,19.7808933 8.84044665,19.7808933 C3.95800278,19.7808933 3.19744231e-13,15.8228905 3.19744231e-13,10.9404467 C3.19744231e-13,6.05800278 3.95800278,2.1 8.84044665,2.1 Z M16.0853551,11.1517633 L16.0141714,11.1513007 C15.784709,11.169465 15.613418,11.3702061 15.6315822,11.5996685 L15.6315822,11.5996685 L16.1400412,18.0228425 C16.1486364,18.1314232 16.1974145,18.2328962 16.2768415,18.3074281 C16.4530863,18.4728109 16.7300301,18.4640055 16.8954129,18.2877607 L16.8954129,18.2877607 L18.1796173,16.9192127 L19.7408689,19.6233798 C19.8829555,19.8694809 20.1976438,19.9538014 20.4437449,19.8117149 L20.4437449,19.8117149 L20.9890423,19.4968873 C21.2351435,19.3548007 21.3194639,19.0401124 21.1773774,18.7940113 L21.1773774,18.7940113 L19.6161258,16.0898441 L21.4434254,15.6619645 C21.5494771,15.6371315 21.6424566,15.5736424 21.7041907,15.4839063 C21.8411757,15.2847863 21.7908053,15.0123193 21.5916853,14.8753343 L21.5916853,14.8753343 L16.2832829,11.2234089 C16.2045065,11.1692145 16.109491,11.1437552 16.0141714,11.1513007 Z M5.21328858,15.0168045 L3.09951824,15.0169071 C3.96107688,16.2280628 5.19631275,17.1548953 6.63704633,17.6292253 C6.04168201,16.8079432 5.56735902,15.929457 5.21328858,15.0168045 Z M10.3796901,15.0166677 L7.17211742,15.0166677 C7.57591401,15.8681976 8.10992376,16.6755256 8.77552748,17.4096547 C9.44188374,16.6755256 9.97589349,15.8681976 10.3796901,15.0166677 Z M11.0260196,13.2163292 C11.3362407,11.9846526 11.4035146,10.7071839 11.2313987,9.45863385 L6.32040882,9.45863385 C6.14829293,10.7071839 6.21556676,11.9846526 6.52578794,13.2163292 Z M4.50600459,9.45870162 L1.95632479,9.45811116 C1.85390942,9.93602946 1.8,10.4319424 1.8,10.9404467 C1.8,11.7369781 1.93227613,12.5026149 2.17606022,13.2165887 L4.67846616,13.2170368 C4.41740114,11.9788132 4.36075732,10.7083242 4.50600459,9.45870162 Z M6.38834098,4.33907574 L6.36041266,4.34922705 C4.74299922,4.95809735 3.408887,6.14523595 2.61005792,7.65866092 L4.86035805,7.65829433 C5.18657998,6.49358978 5.69664721,5.37165207 6.38834098,4.33907574 Z M8.77642449,4.20226182 L8.62842523,4.36764413 C7.77207376,5.35342198 7.14271645,6.47393743 6.74374917,7.65787751 L10.8080583,7.65787751 C10.3866047,6.40720906 9.70805912,5.2273161 8.77642449,4.20226182 Z M11.1215567,4.27863197 L11.1836425,4.36929768 C11.865087,5.39352932 12.3684075,6.50494327 12.6914494,7.65829433 L15.0719098,7.65846131 C14.2380715,6.0781303 12.8224486,4.86134567 11.1215567,4.27863197 Z"/></defs><g fill="none" fill-rule="evenodd"><mask id="b" fill="currentColor"><use xlink:href="#a"/></mask><use xlink:href="#a" fill="currentColor" fill-rule="nonzero"/><rect width="24" height="24" fill="currentColor" mask="url(#b)"/></g></svg>
