<svg xmlns="http://www.w3.org/2000/svg" xmlns:xlink="http://www.w3.org/1999/xlink" viewBox="0 0 24 24" width="currentSize" height="currentSize"><defs><path id="plus-a" d="M12.5,5 C13.1218031,5 13.6337229,5.47046628 13.6992153,6.07485472 L13.7062937,6.20629371 L13.706,11.293 L18.7937063,11.2937063 C19.4599239,11.2937063 20,11.8337824 20,12.5 C20,13.1218031 19.5295337,13.6337229 18.9251453,13.6992153 L18.7937063,13.7062937 L13.706,13.706 L13.7062937,18.7937063 C13.7062937,19.4599239 13.1662176,20 12.5,20 C11.8781969,20 11.3662771,19.5295337 11.3007847,18.9251453 L11.2937063,18.7937063 L11.293,13.706 L6.20629371,13.7062937 C5.54007609,13.7062937 5,13.1662176 5,12.5 C5,11.8781969 5.47046628,11.3662771 6.07485472,11.3007847 L6.20629371,11.2937063 L11.293,11.293 L11.2937063,6.20629371 C11.2937063,5.54007609 11.8337824,5 12.5,5 Z"/></defs><g fill="none" fill-rule="evenodd"><mask id="plus-b" fill="currentColor"><use xlink:href="#plus-a"/></mask><use fill="currentColor" fill-rule="nonzero" xlink:href="#plus-a"/><rect width="24" height="24" fill="currentColor" mask="url(#plus-b)"/></g></svg>