<svg xmlns="http://www.w3.org/2000/svg" xmlns:xlink="http://www.w3.org/1999/xlink" width="currentSize" height="currentSize" viewBox="0 0 24 24"><defs><path id="a" d="M19.7830365,4.21146765 C15.4705666,-0.0704892162 8.49178464,-0.0704892162 4.20250004,4.21146765 L3.62286698,4.79011047 L3.62286698,3.00789058 C3.62286698,2.3135192 3.06641925,1.75802209 2.37085958,1.75802209 C1.67529992,1.75802209 1.11885219,2.3135192 1.11885219,3.00789058 L1.11885219,7.79905313 C1.11885219,8.12309311 1.25796412,8.44713309 1.48981734,8.67859022 C1.72167056,8.91004734 2.04626507,9.04892162 2.37085958,9.04892162 L7.17022128,9.04892162 C7.51800111,9.04892162 7.8194103,8.91004734 8.05126352,8.67859022 C8.28311674,8.44713309 8.42222868,8.14623882 8.42222868,7.79905313 C8.42222868,7.10468175 7.86578094,6.54918464 7.17022128,6.54918464 L5.38495147,6.54918464 L5.96458452,5.97054182 C9.2800856,2.66070489 14.6822657,2.66070489 18.0209521,5.97054182 C21.3364531,9.28037875 21.3364531,14.6733298 18.0209521,18.0063125 C14.705451,21.3161494 9.30327092,21.3161494 5.96458452,18.0063125 C4.50390923,16.5481326 3.62286698,14.6038927 3.48375505,12.56707 C3.4373844,11.8726986 2.83456603,11.3634929 2.16219168,11.4097843 C1.46663202,11.4560757 0.956554931,12.0578643 1.00292558,12.72909 C1.18840815,15.3908469 2.32448894,17.8905839 4.20250004,19.7885324 C8.49178464,24.0704892 15.4937519,24.0704892 19.7830365,19.7885324 C24.0723212,15.4834298 24.0723212,8.49342451 19.7830365,4.21146765 Z"/></defs><g fill="none" fill-rule="evenodd"><mask id="b" fill="currentColor"><use xlink:href="#a"/></mask><use xlink:href="#a" fill="currentColor" fill-rule="nonzero"/><rect width="24" height="24" fill="currentColor" mask="url(#b)"/></g></svg>
