<svg xmlns="http://www.w3.org/2000/svg" xmlns:xlink="http://www.w3.org/1999/xlink" viewBox="0 0 24 24" width="currentSize" height="currentSize"><defs><path id="remove-a" d="M13.9056304,0.5 C14.9599922,0.5 15.8237955,1.31587779 15.9001446,2.35073766 L15.9056304,2.5 L15.905,3.5 L18.5,3.5 C20.0976809,3.5 21.4036609,4.74891996 21.4949073,6.32372721 L21.5,6.5 L21.5,7.5 C21.5,8.43155158 20.8631171,9.21435119 20.0010222,9.43672788 L20,20.5 C20,22.0976809 18.75108,23.4036609 17.1762728,23.4949073 L17,23.5 L7,23.5 C5.40231912,23.5 4.09633912,22.25108 4.00509269,20.6762728 L4,20.5 L3.99998077,9.43698631 C3.13737692,9.21495822 2.5,8.43191279 2.5,7.5 L2.5,7.5 L2.5,6.5 C2.5,4.84314575 3.84314575,3.5 5.5,3.5 L5.5,3.5 L7.905,3.5 L7.90563038,2.5 C7.90563038,1.4456382 8.72150817,0.581834878 9.75636803,0.505485736 L9.90563038,0.5 L13.9056304,0.5 Z M18,9.5 L6,9.5 L6,20.5 C6,21.0128358 6.38604019,21.4355072 6.88337887,21.4932723 L7,21.5 L17,21.5 C17.5128358,21.5 17.9355072,21.1139598 17.9932723,20.6166211 L18,20.5 L18,9.5 Z M10,11.55 C10.487194,11.55 10.8887318,11.9167382 10.9436087,12.3892099 L10.95,12.5 L10.95,18.5 C10.95,19.0246705 10.5246705,19.45 10,19.45 C9.51280595,19.45 9.1112682,19.0832618 9.05639134,18.6107901 L9.05,18.5 L9.05,12.5 C9.05,11.9753295 9.47532949,11.55 10,11.55 Z M14.5,11.55 C14.987194,11.55 15.3887318,11.9167382 15.4436087,12.3892099 L15.45,12.5 L15.45,18.5 C15.45,19.0246705 15.0246705,19.45 14.5,19.45 C14.012806,19.45 13.6112682,19.0832618 13.5563913,18.6107901 L13.55,18.5 L13.55,12.5 C13.55,11.9753295 13.9753295,11.55 14.5,11.55 Z M18.5,5.5 L5.5,5.5 C4.94771525,5.5 4.5,5.94771525 4.5,6.5 L4.5,6.5 L4.5,7.5 L19.5,7.5 L19.5,6.5 C19.5,5.94771525 19.0522847,5.5 18.5,5.5 L18.5,5.5 Z M13.9056304,2.5 L9.90563038,2.5 L9.905,3.5 L13.905,3.5 L13.9056304,2.5 Z"/></defs><g fill="none" fill-rule="evenodd"><mask id="remove-b" fill="currentColor"><use xlink:href="#remove-a"/></mask><use fill="currentColor" fill-rule="nonzero" xlink:href="#remove-a"/><rect width="24" height="24" fill="currentColor" mask="url(#remove-b)"/></g></svg>