<svg xmlns="http://www.w3.org/2000/svg" xmlns:xlink="http://www.w3.org/1999/xlink" viewBox="0 0 24 24" width="currentSize" height="currentSize"><defs><path id="save-a" d="M19.9066367,15.64 C20.5140607,15.64 20.9797525,16.1 21,16.68 L21,16.68 L21,20.94 C21,21.52 20.5140607,22 19.9268841,22 L19.9268841,22 L4.07311586,22 C3.48593926,22 3,21.52 3,20.94 L3,20.94 L3,16.68 C3,16.1 3.46569179,15.64 4.05286839,15.64 C4.64004499,15.64 5.12598425,16.12 5.12598425,16.7 L5.12598425,16.7 L5.12598425,19.9 L18.8335208,19.9 L18.8335208,16.7 C18.8335208,16.12 19.3194601,15.64 19.9066367,15.64 Z M11.9898763,3 C12.5770529,3 13.0629921,3.48 13.0629921,4.06 L13.0629921,4.06 L13.0629921,13.18 L16.12036,10.14 C16.5455568,9.72 17.2137233,9.72 17.6389201,10.14 C18.064117,10.56 18.064117,11.22 17.6389201,11.64 L17.6389201,11.64 L12.7390326,16.48 C12.5365579,16.68 12.2733408,16.78 11.9898763,16.78 C11.7266592,16.78 11.4431946,16.68 11.2407199,16.48 L11.2407199,16.48 L6.32058493,11.64 C5.89538808,11.22 5.89538808,10.56 6.32058493,10.14 C6.74578178,9.72 7.41394826,9.72 7.83914511,10.14 L7.83914511,10.14 L10.9167604,13.2 L10.9167604,4.06 C10.9167604,3.48 11.4026997,3 11.9898763,3 Z"/></defs><g fill="none" fill-rule="evenodd"><mask id="save-b" fill="currentColor"><use xlink:href="#save-a"/></mask><use fill="currentColor" fill-rule="nonzero" xlink:href="#save-a"/><rect width="24" height="24" fill="currentColor" mask="url(#save-b)" transform="rotate(90 12 12)"/><rect width="24" height="24" fill="currentColor" mask="url(#save-b)" opacity="0" transform="rotate(90 12 12)"/></g></svg>