<svg xmlns="http://www.w3.org/2000/svg" xmlns:xlink="http://www.w3.org/1999/xlink" viewBox="0 0 24 24" width="currentSize" height="currentSize"><defs><path id="search-a" d="M10.5,2.9 C14.6973641,2.9 18.1,6.3026359 18.1,10.5 C18.1,12.1988053 17.5426225,13.7674281 16.6007669,15.0329692 L20.3334875,18.7656776 C20.7630642,19.1952543 20.7630642,19.8917358 20.3334875,20.3213125 C19.9345948,20.7202052 19.3055649,20.7486975 18.8737955,20.4067895 L18.7778526,20.3213125 L15.0469517,16.5903357 C13.7789907,17.5385058 12.2050673,18.1 10.5,18.1 C6.3026359,18.1 2.9,14.6973641 2.9,10.5 C2.9,6.3026359 6.3026359,2.9 10.5,2.9 Z M10.5,5.1 C7.51766235,5.1 5.1,7.51766235 5.1,10.5 C5.1,13.4823376 7.51766235,15.9 10.5,15.9 C13.4823376,15.9 15.9,13.4823376 15.9,10.5 C15.9,7.51766235 13.4823376,5.1 10.5,5.1 Z"/></defs><g fill="none" fill-rule="evenodd"><mask id="search-b" fill="currentColor"><use xlink:href="#search-a"/></mask><use fill="currentColor" fill-rule="nonzero" xlink:href="#search-a"/><rect width="24" height="24" fill="currentColor" mask="url(#search-b)"/></g></svg>