<svg xmlns="http://www.w3.org/2000/svg" xmlns:xlink="http://www.w3.org/1999/xlink" viewBox="0 0 24 24" width="currentSize" height="currentSize"><defs><path id="settings-a" d="M11.9939859,0.5 C11.0317043,0.50272289 10.0742534,0.629328671 9.14335541,0.875715495 C8.67008031,1.0007157 8.34812179,1.44367528 8.37160828,1.93750686 C8.41019098,2.72133131 8.01471312,3.45694246 7.34328101,3.85077309 C6.67015251,4.24267905 5.84254839,4.22311647 5.18965253,3.79768483 C4.77787474,3.52955452 4.23647992,3.59006889 3.89262208,3.94266032 C2.53771759,5.33443005 1.55446898,7.05165967 1.03794694,8.93307922 C0.906286902,9.41156109 1.12582517,9.91762726 1.56323026,10.1439301 C2.25476054,10.5024191 2.68766259,11.2165577 2.68853147,12.0020643 L2.6864627,11.9999733 C2.68663854,12.7842703 2.25665347,13.4981287 1.567223,13.8581085 C1.1332146,14.0853867 0.915832517,14.5886775 1.04599449,15.0648753 C1.55995124,16.9453801 2.53888645,18.6645647 3.89056365,20.057336 C4.23472515,20.4110018 4.77739513,20.4715645 5.18961115,20.2023115 C5.84250701,19.7768778 6.67011113,19.7573152 7.34323964,20.1492232 C8.01518894,20.5426974 8.41194944,21.2783723 8.37358396,22.0624895 C8.35009747,22.5563211 8.672056,22.9992806 9.14533109,23.1242808 C10.0755153,23.3704795 11.0324077,23.4971302 11.9939445,23.5 C11.9967029,23.5 11.9994613,23.5 12.0022196,23.5 C12.9647908,23.495078 13.9222521,23.3668162 14.8528503,23.1181555 C15.325321,22.9923518 15.646286,22.5496019 15.6225804,22.0563642 C15.5855493,21.2739929 15.9808306,20.5423587 16.6509076,20.1492232 C17.3253188,19.7560471 18.1549503,19.7768297 18.8085806,20.2043501 C19.2207966,20.4736031 19.7634666,20.4130404 20.1076281,20.0593747 C21.4625326,18.667606 22.4457812,16.9503764 22.9623032,15.0689558 C23.0936395,14.5899706 22.8731868,14.0837406 22.4350029,13.8581054 C21.7420555,13.5008218 21.3075501,12.7860748 21.3056572,11.9999702 L21.3056572,11.9978793 C21.3062364,11.2143873 21.7380938,10.5014531 22.4269243,10.141787 C22.8609329,9.91450866 23.078315,9.41121759 22.9481528,8.93501958 C22.434196,7.05451481 21.4552608,5.33533018 20.1035836,3.94255891 C19.7594221,3.58889314 19.2167521,3.52833043 18.8045361,3.79758342 C18.1516506,4.22301715 17.3240361,4.24257973 16.6509076,3.85067168 C15.9789583,3.45719755 15.5821978,2.72152263 15.6205633,1.93740545 C15.6440498,1.44357387 15.3220913,1.00061429 14.8488162,0.875614086 C13.9183318,0.629619308 12.9615842,0.502865072 12.0000474,0.5 C11.9979786,0.5 11.9959098,0.5 11.9938411,0.5 L11.9939859,0.5 Z M11.9939859,2.59091693 L12.0001922,2.59091693 C12.6001584,2.59311239 13.1904841,2.70742988 13.7780479,2.82573578 C14.0103613,3.98562648 14.5760789,5.05469004 15.6165085,5.66194427 C15.6171971,5.66264222 15.6178867,5.66333919 15.6185773,5.66403518 C16.6568554,6.26853986 17.8526295,6.2280138 18.9601392,5.85393287 C19.7510019,6.77265461 20.3528196,7.82554392 20.7420291,8.97804951 C19.8689636,9.76148505 19.2366417,10.7893477 19.2369106,12.0000706 C19.2375993,12.0007685 19.2382888,12.0014655 19.2389794,12.0021615 C19.2410482,13.2164912 19.8755319,14.2441954 20.7541935,15.0262248 C20.363329,16.1775386 19.7620802,17.2311514 18.9702762,18.1482997 C17.8599219,17.770568 16.6600206,17.7290227 15.6186187,18.3361556 C15.6179281,18.3368516 15.6172385,18.3375486 15.6165499,18.3382465 C14.5783339,18.9453837 14.0125853,20.0123197 13.7801064,21.1703704 C13.192077,21.2903355 12.6009652,21.4057089 12.0002336,21.4092739 C11.3982504,21.4074966 10.8058559,21.2931582 10.2163163,21.174455 C9.98400297,20.0145643 9.41828561,18.9455008 8.37785599,18.3382465 C8.37716737,18.3375486 8.37647778,18.3368516 8.37578721,18.3361556 C7.33750912,17.7316509 6.14174534,17.772177 5.03422527,18.1462579 C4.24336263,17.2275362 3.64155524,16.1746469 3.25233543,15.0221413 C4.12540094,14.2387057 4.75570574,13.2108436 4.75542646,12.0001197 C4.75542715,11.9994227 4.75542715,11.9987258 4.75542646,11.9980288 C4.75439207,10.78602 4.12186333,9.75827759 3.24627391,8.97600774 C3.6371384,7.82469396 4.23838722,6.7710812 5.03019115,5.85393287 C6.13865252,6.22951194 7.33635061,6.26921313 8.37578721,5.66403518 C8.37647778,5.66333919 8.37716737,5.66264222 8.37785599,5.66194427 C9.41742706,5.0541694 9.98253414,3.9852658 10.2142993,2.82573578 C10.8024734,2.70730547 11.3935853,2.59297753 11.9941721,2.59091693 L11.9939859,2.59091693 Z M11.9960547,7.8181975 C9.72320273,7.8181975 7.85849972,9.70284751 7.85849972,12.0000214 C7.85849972,14.2971959 9.72320273,16.1818459 11.9960547,16.1818459 C14.2689171,16.1818459 16.1336098,14.2971959 16.1336098,12.0000214 C16.1336098,9.70284751 14.2689171,7.8181975 11.9960547,7.8181975 Z M11.9960547,9.90911025 C13.150867,9.90911025 14.0648322,10.8328606 14.0648322,12.0000214 C14.0648322,13.1671833 13.150867,14.0909337 11.9960547,14.0909337 C10.8412527,14.0909337 9.9272773,13.1671833 9.9272773,12.0000214 C9.9272773,10.8328606 10.8412527,9.90911025 11.9960547,9.90911025 Z"/></defs><g fill="none" fill-rule="evenodd"><mask id="settings-b" fill="currentColor"><use xlink:href="#settings-a"/></mask><use fill="currentColor" fill-rule="nonzero" xlink:href="#settings-a"/><rect width="24" height="24" fill="currentColor" mask="url(#settings-b)"/></g></svg>