<svg xmlns="http://www.w3.org/2000/svg" xmlns:xlink="http://www.w3.org/1999/xlink" width="currentSize" height="currentSize" viewBox="0 0 24 24"><defs><path id="a" d="M18.0625,1 C20.237155,1 22,2.7628765 22,4.9375 C22,7.1121235 20.237155,8.875 18.0625,8.875 C16.9063516,8.875 15.866667,8.37674321 15.1463294,7.58325987 L15.00658,7.420687 L8.758345,10.544815 C8.8345435,10.850575 8.875,11.170615 8.875,11.5 C8.875,11.7470388 8.85224913,11.9888209 8.80872302,12.2232646 L8.758345,12.455185 L15.00658,15.579355 C15.72856,14.691895 16.829275,14.125 18.0625,14.125 C20.237155,14.125 22,15.887845 22,18.0625 C22,20.237155 20.237155,22 18.0625,22 C15.887845,22 14.125,20.237155 14.125,18.0625 C14.125,17.93657 14.1309267,17.8119933 14.1425,17.68905 L14.16406,17.505895 L7.721386,14.2846 C7.0088665,14.99692 6.024628,15.4375 4.9375,15.4375 C2.7628765,15.4375 1,13.674655 1,11.5 C1,9.3253765 2.7628765,7.5625 4.9375,7.5625 C5.946976,7.5625 6.867727,7.9423788 7.56459547,8.56698728 L7.7213755,8.7154105 L14.16406,5.494084 C14.138335,5.3122555 14.125,5.1264265 14.125,4.9375 C14.125,2.7628765 15.887845,1 18.0625,1 Z M18.0625,16.225 C17.047675,16.225 16.225,17.047675 16.225,18.0625 C16.225,19.077325 17.047675,19.9 18.0625,19.9 C19.077325,19.9 19.9,19.077325 19.9,18.0625 C19.9,17.047675 19.077325,16.225 18.0625,16.225 Z M4.9375,9.6625 C3.922675,9.6625 3.1,10.485175 3.1,11.5 C3.1,12.514825 3.922675,13.3375 4.9375,13.3375 C5.952325,13.3375 6.775,12.514825 6.775,11.5 C6.775,10.485175 5.952325,9.6625 4.9375,9.6625 Z M18.0625,3.1 C17.047675,3.1 16.225,3.922675 16.225,4.9375 C16.225,5.952325 17.047675,6.775 18.0625,6.775 C19.077325,6.775 19.9,5.952325 19.9,4.9375 C19.9,3.922675 19.077325,3.1 18.0625,3.1 Z"/></defs><g fill="none" fill-rule="evenodd"><mask id="b" fill="currentColor"><use xlink:href="#a"/></mask><use xlink:href="#a" fill="currentColor"/><rect width="24" height="24" fill="currentColor" mask="url(#b)"/></g></svg>
