<svg xmlns="http://www.w3.org/2000/svg" xmlns:xlink="http://www.w3.org/1999/xlink" width="currentSize" height="currentSize" viewBox="0 0 24 24"><defs><path id="a" d="M15.0723684,0 C16.617494,0 17.8805141,1.24891996 17.968759,2.82372721 L17.9736842,3 L17.9736842,3.27272727 L17.9736842,3.27272727 C21.0257841,3.27272727 23.5,5.71481046 23.5,8.72727273 C23.5,11.6662603 21.1450057,14.0623529 18.1959498,14.1774871 L17.9736842,14.1818182 L17.9736842,14.1818182 L17.9736842,21 C17.9736842,22.5976809 16.7658471,23.9036609 15.2428428,23.9949073 L15.0723684,24 L5.40131579,24 C3.8561902,24 2.59317007,22.75108 2.50492517,21.1762728 L2.5,21 L2.5,3 C2.5,1.40231912 3.70783707,0.0963391206 5.23084145,0.00509269341 L5.40131579,0 L15.0723684,0 Z M15.0723684,2 L5.40131579,2 C4.90534955,2 4.49658189,2.38604019 4.44071695,2.88337887 L4.43421053,3 L4.43421053,21 C4.43421053,21.5128358 4.80755203,21.9355072 5.28853089,21.9932723 L5.40131579,22 L15.0723684,22 C15.5683347,22 15.9771023,21.6139598 16.0329673,21.1166211 L16.0394737,21 L16.0390999,13.8382579 C16.0065082,13.8262346 15.9740624,13.8139163 15.9417657,13.8013062 C15.9237977,13.794292 15.9055645,13.7870621 15.8873797,13.7797394 C15.8067973,13.7472827 15.7275628,13.7131849 15.6493208,13.6773331 C15.6412073,13.673615 15.6333074,13.6699722 15.6254178,13.6663115 L13.3748599,14.4568803 C12.9723734,14.5984909 12.529785,14.3912466 12.3863111,13.9939872 C12.3263851,13.8280603 12.3264216,13.646787 12.3864145,13.4808837 L13.1452088,11.3825078 C13.1024809,11.3067511 13.0647761,11.2363072 13.0286092,11.1649717 L13.1452088,11.3825078 C13.0852169,11.2764565 13.0287074,11.1682248 12.9758331,11.0579632 C12.9612397,11.0275337 12.9468388,10.996765 12.9327215,10.9658431 C12.913815,10.9244313 12.8954203,10.8827523 12.8775416,10.8408063 C12.7839891,10.6213266 12.7045463,10.3944648 12.6403667,10.1613986 C12.6321881,10.1317105 12.6241192,10.1013843 12.6163094,10.070956 C12.6044773,10.0248421 12.593333,9.97889891 12.5827817,9.93273391 C12.5737267,9.89311624 12.565105,9.8533179 12.5569257,9.81336128 C12.5241903,9.65348599 12.4985084,9.49080878 12.4802719,9.32592328 C12.4778208,9.30374044 12.4755621,9.2821037 12.4734319,9.26042984 C12.4671283,9.19636996 12.4619081,9.13135699 12.4578527,9.06603321 C12.4561673,9.03886858 12.4546925,9.01184573 12.4534177,8.9847713 C12.4494009,8.89948663 12.4473684,8.81361395 12.4473684,8.72727273 C12.4473684,6.38657905 13.9411377,4.39024285 16.0390999,3.61628754 L16.0394737,3 C16.0394737,2.44771525 15.6064859,2 15.0723684,2 Z M10.2368421,19 L10.349627,19.0067277 C10.8306059,19.0644928 11.2039474,19.4871642 11.2039474,20 C11.2039474,20.5522847 10.7709596,21 10.2368421,21 C9.70272462,21 9.26973684,20.5522847 9.26973684,20 C9.26973684,19.4477153 9.70272462,19 10.2368421,19 Z M15.8736842,8.18181818 C15.3853482,8.18181818 14.9894737,8.57255149 14.9894737,9.05454545 C14.9894737,9.53653942 15.3853482,9.92727273 15.8736842,9.92727273 C16.3620202,9.92727273 16.7578947,9.53653942 16.7578947,9.05454545 C16.7578947,8.57255149 16.3620202,8.18181818 15.8736842,8.18181818 Z M18.3052632,8.18181818 C17.8169272,8.18181818 17.4210526,8.57255149 17.4210526,9.05454545 C17.4210526,9.53653942 17.8169272,9.92727273 18.3052632,9.92727273 C18.7935991,9.92727273 19.1894737,9.53653942 19.1894737,9.05454545 C19.1894737,8.57255149 18.7935991,8.18181818 18.3052632,8.18181818 Z M20.7368421,8.18181818 C20.2485061,8.18181818 19.8526316,8.57255149 19.8526316,9.05454545 C19.8526316,9.53653942 20.2485061,9.92727273 20.7368421,9.92727273 C21.2251781,9.92727273 21.6210526,9.53653942 21.6210526,9.05454545 C21.6210526,8.57255149 21.2251781,8.18181818 20.7368421,8.18181818 Z M12.1710526,3 C12.7051701,3 13.1381579,3.44771525 13.1381579,4 C13.1381579,4.51283584 12.7648164,4.93550716 12.2838375,4.99327227 L12.1710526,5 L8.30263158,5 C7.76851409,5 7.33552632,4.55228475 7.33552632,4 C7.33552632,3.48716416 7.70886782,3.06449284 8.18984667,3.00672773 L8.30263158,3 L12.1710526,3 Z"/></defs><g fill="none" fill-rule="evenodd"><mask id="b" fill="currentColor"><use xlink:href="#a"/></mask><use xlink:href="#a" fill="currentColor" fill-rule="nonzero"/><rect width="24" height="24" fill="currentColor" mask="url(#b)"/></g></svg>
