<svg xmlns="http://www.w3.org/2000/svg" xmlns:xlink="http://www.w3.org/1999/xlink" viewBox="0 0 24 24" width="currentSize" height="currentSize"><defs><path id="sort-a" d="M5.35002404,5.05 C5.8912631,5.05 6.33685591,5.45951022 6.39386278,5.98559093 L6.40002404,6.1 L6.4,14.847 L8.15877609,13.3096354 C8.59528242,12.9278697 9.25862298,12.9722457 9.64038868,13.408752 C9.99488541,13.8140794 9.98194358,14.4149933 9.62879468,14.8044332 L9.54127199,14.8903646 L6.17564225,17.8339233 C5.78145648,18.1786757 5.2095628,18.2105353 4.78231011,17.9263235 L4.67869683,17.8486839 L1.17449574,14.9038417 C0.730546216,14.5307577 0.673098339,13.8684212 1.04618232,13.4244717 C1.39261744,13.0122329 1.98845909,12.9332531 2.42726264,13.2227854 L2.52555234,13.2961583 L4.3,14.788 L4.30002404,6.1 C4.30002404,5.52010101 4.77012505,5.05 5.35002404,5.05 Z M16.550024,15 C17.1575372,15 17.650024,15.4924868 17.650024,16.1 C17.650024,16.6670123 17.2210133,17.1338239 16.6698811,17.1935453 L16.550024,17.2 L11.750024,17.2 C11.1425108,17.2 10.650024,16.7075132 10.650024,16.1 C10.650024,15.5329877 11.0790347,15.0661761 11.6301669,15.0064547 L11.750024,15 L16.550024,15 Z M19.228698,10 C19.8362112,10 20.328698,10.4924868 20.328698,11.1 C20.328698,11.6670123 19.8996873,12.1338239 19.3485551,12.1935453 L19.228698,12.2 L11.750024,12.2 C11.1425108,12.2 10.650024,11.7075132 10.650024,11.1 C10.650024,10.5329877 11.0790347,10.0661761 11.6301669,10.0064547 L11.750024,10 L19.228698,10 Z M22.6,5 C23.2075132,5 23.7,5.49248678 23.7,6.1 C23.7,6.66701234 23.2709893,7.13382387 22.7198571,7.19354535 L22.6,7.2 L12.1,7.2 C11.4924868,7.2 11,6.70751322 11,6.1 C11,5.53298766 11.4290107,5.06617613 11.9801429,5.00645465 L12.1,5 L22.6,5 Z"/></defs><g fill="none" fill-rule="evenodd"><mask id="sort-b" fill="currentColor"><use xlink:href="#sort-a"/></mask><use fill="currentColor" fill-rule="nonzero" xlink:href="#sort-a"/><rect width="24" height="24" fill="currentColor" mask="url(#sort-b)"/></g></svg>