<svg xmlns="http://www.w3.org/2000/svg" xmlns:xlink="http://www.w3.org/1999/xlink" viewBox="0 0 24 24" width="currentSize" height="currentSize"><defs><path id="star-a" d="M12,17.3931362 L7.00161615,20.450994 C6.53049963,20.7392087 5.91494012,20.5909374 5.62672549,20.1198209 C5.48859126,19.8940262 5.44561354,19.6226756 5.50721262,19.3652463 L6.87082271,13.6665707 L6.87082271,13.6665707 L2.41804151,9.85775524 C1.9983501,9.49876003 1.94914611,8.86750979 2.30814133,8.44781838 C2.48019897,8.24667054 2.7249879,8.12194435 2.98885287,8.10097853 L8.8299941,7.63686119 L8.8299941,7.63686119 L11.0764078,2.2250259 C11.2881408,1.71494003 11.8732906,1.47307721 12.3833764,1.68481017 C12.6278481,1.7862886 12.8221137,1.9805542 12.9235922,2.2250259 L15.1700059,7.63686119 L15.1700059,7.63686119 L21.0111471,8.10097853 C21.5616967,8.14472334 21.9725431,8.62649412 21.9287983,9.1770437 C21.9078325,9.44090867 21.7831063,9.6856976 21.5819585,9.85775524 L17.1291773,13.6665707 L17.1291773,13.6665707 L18.4927874,19.3652463 C18.6213128,19.902368 18.2900801,20.4419815 17.7529584,20.5705069 C17.4955291,20.632106 17.2241785,20.5891283 16.9983838,20.450994 L12,17.3931362 L12,17.3931362 Z"/></defs><g fill="none" fill-rule="evenodd"><mask id="star-b" fill="currentColor"><use xlink:href="#star-a"/></mask><use fill="currentColor" xlink:href="#star-a"/><rect width="24" height="24" fill="currentColor" mask="url(#star-b)"/></g></svg>