<svg xmlns="http://www.w3.org/2000/svg" xmlns:xlink="http://www.w3.org/1999/xlink" viewBox="0 0 24 24" width="currentSize" height="currentSize"><defs><path id="store-a" d="M17.3482822,2.1 C18.4489451,2.1 19.4486232,2.72227112 19.9384726,3.69573865 L20.0195411,3.8711175 L21.8085214,8.10435658 L21.8386955,8.39056752 L21.8418952,8.43876934 C21.8576858,8.49409991 21.8685858,8.55149292 21.874098,8.61045108 L21.8782632,8.7 L21.8782632,10.7358684 L21.8731702,10.9372891 C21.8424875,11.5425893 21.674297,12.1116105 21.3992143,12.6137372 L21.3984142,19.1502241 C21.3984142,20.7212769 20.1703096,22.0054906 18.6217491,22.0952162 L18.4484142,22.1002241 L5.66472867,22.1002241 C4.0936758,22.1002241 2.80946213,20.8721194 2.71973648,19.323559 L2.71472867,19.1502241 L2.71449592,12.9183994 C2.32996389,12.3469857 2.09216413,11.6686168 2.05509304,10.9372891 L2.05,10.7358684 L2.05,8.7 C2.05,8.57559359 2.0739132,8.45677241 2.11739379,8.34788226 C2.15459365,8.16861678 2.35079839,7.65238416 2.74614425,6.69336416 L2.83392393,6.48104396 L3.93730545,3.86424071 C4.36736233,2.85387513 5.32807472,2.17831872 6.41295884,2.1063753 L6.60561522,2.1 L17.3482822,2.1 Z M14.9641175,13.2500403 L14.8614428,13.3676421 C14.145439,14.1554215 13.1125428,14.65 11.9641316,14.65 C10.7595843,14.65 9.68212114,14.1058883 8.96411746,13.2500403 C8.24614211,14.1058883 7.16867892,14.65 5.96413162,14.65 C5.48973836,14.65 5.03505664,14.5656049 4.61428142,14.4110096 L4.61472867,19.1502241 C4.61472867,19.6914631 5.02423888,20.1370559 5.5503196,20.1940628 L5.66472867,20.2002241 L9.05,20.2 L9.05,18.2230987 C9.05,16.4706447 10.4706447,15.05 12.2230987,15.05 C13.9151233,15.05 15.2978274,16.3743584 15.3911744,18.0430386 L15.3961974,18.2230987 L15.396,20.2 L18.4484142,20.2002241 C18.9896533,20.2002241 19.4352461,19.7907138 19.492253,19.2646331 L19.4984142,19.1502241 L19.498781,14.337696 C19.0275434,14.5387361 18.5088311,14.65 17.9641316,14.65 C16.7595843,14.65 15.6821211,14.1058883 14.9641175,13.2500403 Z M12.2230987,16.95 C11.5639303,16.95 11.0217682,17.450964 10.9565729,18.0929318 L10.95,18.2230987 L10.95,20.2 L13.496,20.2 L13.4961974,18.2230987 C13.4961974,17.5199857 12.9262117,16.95 12.2230987,16.95 Z M13.978,9.885 L9.949,9.885 L9.95,10.7358684 C9.95,11.8482426 10.8517574,12.75 11.9641316,12.75 C13.0259433,12.75 13.8958501,11.9283574 13.9727388,10.8861854 L13.9782632,10.7358684 L13.978,9.885 Z M7.978,9.886 L3.949,9.886 L3.95,10.7358684 C3.95,11.8482426 4.85175744,12.75 5.96413162,12.75 C7.02594334,12.75 7.89585014,11.9283574 7.97273875,10.8861854 L7.97826325,10.7358684 L7.978,9.886 Z M19.978,9.886 L15.949,9.886 L15.95,10.7358684 L15.9555245,10.8861854 C16.0324131,11.9283574 16.9023199,12.75 17.9641316,12.75 C19.0259433,12.75 19.8958501,11.9283574 19.9727388,10.8861854 L19.9782632,10.7358684 L19.978,9.886 Z M17.3482822,3.9 L6.60564831,3.9 C6.16462289,3.9 5.76623707,4.16341244 5.59351641,4.56919834 C5.50325714,4.78125134 5.41606868,4.98651444 5.33208102,5.1846202 L5.2085164,5.4763649 L4.116,8.086 L19.847,8.086 L18.3615183,4.57180319 C18.2238565,4.24605607 17.9408953,4.0115503 17.606887,3.93077788 L17.4794251,3.90781652 L17.3482822,3.9 Z"/></defs><g fill="none" fill-rule="evenodd"><mask id="store-b" fill="currentColor"><use xlink:href="#store-a"/></mask><use fill="currentColor" fill-rule="nonzero" xlink:href="#store-a"/><rect width="24" height="24" fill="currentColor" mask="url(#store-b)"/></g></svg>