<svg xmlns="http://www.w3.org/2000/svg" xmlns:xlink="http://www.w3.org/1999/xlink" viewBox="0 0 24 24" width="currentSize" height="currentSize"><defs><path id="sm-a" d="M8.93547933,7.25164553 L9.04852814,7.35147186 L12.442,10.745 L15.8367532,7.35147186 C16.3053824,6.88284271 17.0651804,6.88284271 17.5338095,7.35147186 C17.9663903,7.78405262 17.9996657,8.46472988 17.6336358,8.93547933 L17.5338095,9.04852814 L14.139,12.442 L17.5338095,15.8367532 C18.0024387,16.3053824 18.0024387,17.0651804 17.5338095,17.5338095 C17.1012288,17.9663903 16.4205515,17.9996657 15.949802,17.6336358 L15.8367532,17.5338095 L12.442,14.139 L9.04852814,17.5338095 C8.57989899,18.0024387 7.82010101,18.0024387 7.35147186,17.5338095 C6.91889111,17.1012288 6.88561567,16.4205515 7.25164553,15.949802 L7.35147186,15.8367532 L10.745,12.442 L7.35147186,9.04852814 C6.88284271,8.57989899 6.88284271,7.82010101 7.35147186,7.35147186 C7.78405262,6.91889111 8.46472988,6.88561567 8.93547933,7.25164553 Z"/></defs><g fill="none" fill-rule="evenodd"><mask id="sm-b" fill="currentColor"><use xlink:href="#sm-a"/></mask><use fill="currentColor" fill-rule="nonzero" xlink:href="#sm-a"/><rect width="24" height="24" fill="currentColor" mask="url(#sm-b)"/></g></svg>