<svg xmlns="http://www.w3.org/2000/svg" xmlns:xlink="http://www.w3.org/1999/xlink" viewBox="0 0 24 24" width="currentSize" height="currentSize"><defs><path id="md-a" d="M7.07601992,5.28540447 L7.17268136,5.37277319 L12,10.2 L16.8273186,5.37277319 C17.3243496,4.87574227 18.1301959,4.87574227 18.6272268,5.37277319 C19.0931933,5.83873967 19.1223162,6.57612596 18.7145955,7.07601992 L18.6272268,7.17268136 L13.8,12 L18.6272268,16.8273186 C19.1242577,17.3243496 19.1242577,18.1301959 18.6272268,18.6272268 C18.1612603,19.0931933 17.423874,19.1223162 16.9239801,18.7145955 L16.8273186,18.6272268 L12,13.8 L7.17268136,18.6272268 C6.67565044,19.1242577 5.8698041,19.1242577 5.37277319,18.6272268 C4.9068067,18.1612603 4.8776838,17.423874 5.28540447,16.9239801 L5.37277319,16.8273186 L10.2,12 L5.37277319,7.17268136 C4.87574227,6.67565044 4.87574227,5.8698041 5.37277319,5.37277319 C5.83873967,4.9068067 6.57612596,4.8776838 7.07601992,5.28540447 Z"/></defs><g fill="none" fill-rule="evenodd"><mask id="md-b" fill="currentColor"><use xlink:href="#md-a"/></mask><use fill="currentColor" fill-rule="nonzero" xlink:href="#md-a"/><rect width="24" height="24" fill="currentColor" mask="url(#md-b)"/></g></svg>