<svg xmlns="http://www.w3.org/2000/svg" viewBox="0 0 30 24" width="currentSize" height="currentSize"><path fill="currentColor" fill-rule="evenodd" d="M14.4809,2.87725478 C14.46494,4.13092823 15.60342,4.83054115 16.46099,5.24650461 C17.34215,5.67333746 17.63811,5.9470233 17.63475,6.32863668 C17.62803,6.91279709 16.93181,7.17052721 16.28025,7.1805605 C15.14345,7.19811876 14.48258,6.87510258 13.95709,6.63075017 L13.54766,8.53798096 C14.07483,8.77989471 15.05098,8.99080282 16.06332,9 C18.4394,9 19.99396,7.83251529 20.00243,6.02234265 C20.01167,3.72506774 16.80994,3.59784006 16.83178,2.57096075 C16.83934,2.25965007 17.13782,1.92736704 17.79197,1.84285051 C18.11565,1.80020903 19.00941,1.76753116 20.02259,2.23198885 L20.42026,0.386699698 C19.87545,0.189169312 19.17503,0 18.30318,0 C16.06668,0 14.49357,1.18337075 14.4809,2.87725478 M24.2417,0.158999768 C23.80784,0.158999768 23.44209,0.410946814 23.27899,0.797576837 L19.88469,8.86441124 L22.25909,8.86441124 L22.73159,7.5646822 L25.63316,7.5646822 L25.90728,8.86441124 L28,8.86441124 L26.17377,0.158999768 L24.2417,0.158999768 Z M24.57378,2.51069134 L25.25901,5.77959278 L23.38238,5.77959278 L24.57378,2.51069134 Z M11.60208,0.158999768 L9.73049,8.86441124 L11.99303,8.86441124 L13.86378,0.158999768 L11.60208,0.158999768 Z M8.25489,0.158999768 L5.89981,6.0842146 L4.94718,1.04610978 C4.83539,0.483757839 4.39397,0.158999768 3.90376,0.158999768 L0.05383,0.158999768 L0,0.411782922 C0.79037,0.582488194 1.68833,0.857846249 2.2323,1.15243478 C2.56522,1.33233723 2.66028,1.48966478 2.76955,1.91733375 L4.57387,8.86441124 L6.96514,8.86441124 L10.63097,0.158999768 L8.25489,0.158999768 Z" transform="translate(1 8)"/></svg>