<svg xmlns="http://www.w3.org/2000/svg" width="currentSize" height="currentSize" viewBox="0 0 24 24"><g fill="#0F0F0F" fill-rule="evenodd"><path fill-rule="nonzero" d="M9.26185042,3.41194535 L1.4181244,17.2893068 C1.13176179,17.7959483 0.981273985,18.3680299 0.981273985,18.95 C0.981273985,20.813961 2.49231295,22.325 4.35627399,22.325 L20.043726,22.325 C20.6256961,22.325 21.1977777,22.1745122 21.7044193,21.8881496 C23.3271145,20.970974 23.8990511,18.912002 22.9818756,17.2893068 L15.1381496,3.41194535 C14.8363278,2.87795296 14.3946856,2.43631079 13.8606932,2.13448901 C12.237998,1.21731346 10.179026,1.78925014 9.26185042,3.41194535 Z M12.7535644,4.0932554 C12.9315619,4.19386266 13.0787759,4.34107671 13.1793832,4.51907418 L21.0231092,18.3964356 C21.3288344,18.937334 21.1381888,19.623658 20.5972904,19.9293832 C20.4284099,20.0248374 20.2377161,20.075 20.043726,20.075 L4.35627399,20.075 C3.73495364,20.075 3.23127399,19.5713203 3.23127399,18.95 C3.23127399,18.75601 3.28143659,18.5653161 3.37689079,18.3964356 L11.2206168,4.51907418 C11.5059603,4.01423567 12.1228477,3.8145063 12.6436016,4.03868534 L12.7535644,4.0932554 Z"/><g transform="translate(11.2 7.7)"><rect width="2.16" height="7.2" rx="1.08"/><circle cx="1.08" cy="9.18" r="1.08"/></g></g></svg>