<svg xmlns="http://www.w3.org/2000/svg" viewBox="0 0 24 24" width="currentSize" height="currentSize"><path fill="currentColor" d="M20.0133333,3.41333333 C17.8133333,1.21333333 14.88,0 11.76,0 C5.33333333,0 0.106666667,5.22666667 0.0933333333,11.6666667 C0.0933333333,13.72 0.626666667,15.7333333 1.65333333,17.4933333 L0,23.5333333 L6.18666667,21.9066667 C7.89333333,22.84 9.81333333,23.32 11.76,23.32 L11.76,23.32 C11.76,23.32 11.76,23.32 11.76,23.32 C18.1866667,23.32 23.4266667,18.0933333 23.4266667,11.6533333 C23.4266667,8.56 22.2133333,5.62666667 20.0133333,3.41333333 Z M11.76,21.36 L11.76,21.36 C10.0133333,21.36 8.30666667,20.8933333 6.82666667,20.0133333 L6.46666667,19.8 L2.8,20.76 L3.77333333,17.1866667 L3.54666667,16.8133333 C2.57333333,15.2666667 2.06666667,13.48 2.06666667,11.6533333 C2.06666667,6.30666667 6.41333333,1.96 11.76,1.96 C14.3466667,1.96 16.7866667,2.97333333 18.6133333,4.8 C20.44,6.62666667 21.4533333,9.06666667 21.4533333,11.6533333 C21.4533333,17.0133333 17.1066667,21.36 11.76,21.36 Z M17.08,14.1066667 C16.7866667,13.96 15.36,13.2533333 15.0933333,13.16 C14.8266667,13.0666667 14.6266667,13.0133333 14.44,13.3066667 C14.24,13.6 13.6933333,14.2533333 13.52,14.4533333 C13.3466667,14.6533333 13.1866667,14.6666667 12.8933333,14.52 C12.6,14.3733333 11.6666667,14.0666667 10.5466667,13.08 C9.68,12.3066667 9.09333333,11.3466667 8.92,11.0666667 C8.74666667,10.7733333 8.90666667,10.6133333 9.05333333,10.4666667 C9.18666667,10.3333333 9.34666667,10.12 9.49333333,9.96 C9.64,9.78666667 9.69333333,9.66666667 9.78666667,9.48 C9.88,9.28 9.84,9.12 9.76,8.97333333 C9.69333333,8.82666667 9.10666667,7.38666667 8.86666667,6.81333333 C8.62666667,6.24 8.38666667,6.32 8.21333333,6.30666667 C8.04,6.29333333 7.85333333,6.29333333 7.65333333,6.29333333 C7.45333333,6.29333333 7.14666667,6.36 6.88,6.65333333 C6.61333333,6.94666667 5.85333333,7.65333333 5.85333333,9.08 C5.85333333,10.52 6.89333333,11.8933333 7.04,12.0933333 C7.18666667,12.2933333 9.09333333,15.2266667 12.0133333,16.4933333 C12.7066667,16.8 13.2533333,16.9733333 13.68,17.1066667 C14.3733333,17.3333333 15.0133333,17.2933333 15.52,17.2266667 C16.08,17.1466667 17.24,16.52 17.4933333,15.84 C17.7333333,15.16 17.7333333,14.5733333 17.6666667,14.4533333 C17.56,14.32 17.3733333,14.2533333 17.08,14.1066667 Z"/></svg>